# Blender v2.79 (sub 0) OBJ File: 'phobos_31mg_parented_without_antenna.blend'
# www.blender.org
o 31_f_r_coxa_Sungaya_inexpectata_31mg.039
v -0.000385 0.000217 -0.000252
v -0.000068 -0.000236 0.000247
v 0.000005 0.000202 -0.000297
v 0.000198 0.000109 -0.000303
v -0.000208 0.000074 -0.000256
v -0.000369 -0.000073 -0.000278
v 0.000050 -0.000253 -0.000057
v -0.000055 -0.000274 0.000146
v -0.000278 0.000181 -0.000193
v 0.000182 0.000021 0.000203
v 0.000247 0.000213 0.000096
v -0.000233 0.000190 0.000019
v 0.000307 0.000231 -0.000000
v -0.000337 0.000077 -0.000287
v 0.000053 0.000187 0.000153
v 0.000023 0.000198 0.000086
v -0.000080 0.000191 0.000149
v -0.000014 -0.000135 0.000274
v 0.000327 0.000079 -0.000013
v 0.000204 0.000177 0.000156
v -0.000418 0.000191 -0.000289
v 0.000242 -0.000094 0.000160
v 0.000172 0.000289 -0.000135
v 0.000246 0.000290 0.000025
v 0.000192 -0.000227 -0.000071
v -0.000105 -0.000210 -0.000115
v -0.000198 -0.000266 -0.000092
v 0.000281 -0.000136 0.000092
v 0.000140 -0.000207 -0.000128
v 0.000021 -0.000174 -0.000138
v 0.000340 -0.000073 -0.000273
v -0.000196 -0.000075 -0.000212
v -0.000150 0.000165 -0.000199
v 0.000247 -0.000125 -0.000190
v 0.000252 0.000098 0.000152
v 0.000320 0.000246 -0.000327
v -0.000071 0.000175 -0.000116
v 0.000278 0.000205 -0.000334
v -0.000143 -0.000288 -0.000018
v 0.000117 0.000047 -0.000246
v -0.000048 0.000112 -0.000270
v -0.000108 -0.000297 0.000077
v 0.000367 -0.000095 -0.000008
v 0.000011 -0.000195 0.000211
v -0.000240 0.000137 -0.000243
v 0.000308 -0.000092 0.000119
v -0.000127 0.000155 0.000267
v 0.000023 0.000233 -0.000270
v -0.000115 0.000157 -0.000244
v 0.000027 0.000119 0.000227
v 0.000154 0.000273 -0.000310
v 0.000414 -0.000106 -0.000112
v -0.000042 0.000004 0.000310
v -0.000296 -0.000216 -0.000187
v 0.000280 -0.000174 -0.000149
v 0.000353 -0.000138 -0.000100
v 0.000351 0.000260 -0.000046
v 0.000336 0.000321 -0.000060
v 0.000356 0.000240 -0.000042
v 0.000425 -0.000093 -0.000114
v 0.000404 0.000003 -0.000112
v 0.000426 -0.000104 -0.000132
v 0.000334 0.000323 -0.000085
v 0.000427 -0.000099 -0.000116
v 0.000327 0.000321 -0.000168
v 0.000330 0.000248 -0.000325
v 0.000408 -0.000078 -0.000277
v 0.000329 0.000269 -0.000282
v 0.000337 0.000211 -0.000344
v 0.000331 0.000244 -0.000330
v 0.000347 0.000165 -0.000349
v 0.000326 0.000319 -0.000190
v 0.000389 -0.000005 -0.000313
v 0.000399 0.000026 -0.000108
v 0.000369 0.000181 -0.000051
v 0.000361 0.000102 -0.000347
v 0.000424 -0.000120 -0.000204
v 0.000413 -0.000093 -0.000260
v -0.000372 -0.000078 -0.000279
v -0.000215 0.000206 0.000135
v -0.000178 -0.000323 0.000013
v -0.000072 -0.000237 0.000254
v -0.000299 0.000211 -0.000029
v -0.000425 0.000198 -0.000283
v -0.000089 0.000053 0.000326
v -0.000233 -0.000321 -0.000095
v -0.000182 0.000213 0.000202
v -0.000055 -0.000143 0.000322
v -0.000149 0.000173 0.000251
v -0.000134 0.000156 0.000276
v -0.000302 -0.000216 -0.000193
v -0.000111 -0.000300 0.000153
v -0.000184 -0.000320 0.000003
v -0.000406 0.000226 -0.000236
v -0.000079 -0.000246 0.000236
v -0.000063 -0.000066 0.000334
v -0.000413 0.000226 -0.000249
v -0.000414 0.000087 -0.000302
v -0.000380 0.000224 -0.000185
v -0.000071 0.000015 0.000349
v -0.000071 0.000001 0.000343
v -0.000275 -0.000257 -0.000154
v -0.000374 -0.000071 -0.000280
v -0.000404 0.000015 -0.000308
v -0.000427 0.000184 -0.000291
v -0.000130 -0.000309 0.000113
v -0.000255 0.000218 0.000059
v -0.000426 0.000192 -0.000288
v -0.000071 -0.000226 0.000261
v -0.000344 0.000218 -0.000116
v -0.000173 -0.000323 0.000023
vt 0.512557 0.467361
vt 0.512167 0.467153
vt 0.512716 0.467213
vt 0.513352 0.469391
vt 0.517795 0.469781
vt 0.515359 0.471805
vt 0.140212 0.636702
vt 0.139563 0.636303
vt 0.140177 0.636057
vt 0.375714 0.392044
vt 0.374157 0.388160
vt 0.377218 0.391683
vt 0.112157 0.247268
vt 0.119223 0.246203
vt 0.115711 0.248441
vt 0.111298 0.245186
vt 0.107513 0.245739
vt 0.114823 0.258237
vt 0.108875 0.253521
vt 0.380291 0.387455
vt 0.518676 0.337654
vt 0.514284 0.336929
vt 0.517257 0.333883
vt 0.174044 0.731505
vt 0.171199 0.730319
vt 0.173431 0.729926
vt 0.517779 0.337275
vt 0.517053 0.339314
vt 0.515556 0.338223
vt 0.179654 0.693816
vt 0.182511 0.696048
vt 0.179441 0.694896
vt 0.916526 0.890016
vt 0.915035 0.890846
vt 0.913372 0.887638
vt 0.913892 0.887842
vt 0.409101 0.526161
vt 0.409817 0.526604
vt 0.409020 0.527705
vt 0.104115 0.250897
vt 0.104607 0.248748
vt 0.104394 0.250743
vt 0.918345 0.903195
vt 0.915734 0.904799
vt 0.918533 0.900358
vt 0.900732 0.905458
vt 0.900812 0.904877
vt 0.900990 0.905615
vt 0.544411 0.122801
vt 0.546395 0.122893
vt 0.543822 0.124163
vt 0.541722 0.301678
vt 0.540810 0.297101
vt 0.541796 0.297290
vt 0.912381 0.889378
vt 0.909157 0.891963
vt 0.907770 0.895637
vt 0.914726 0.909270
vt 0.912669 0.909373
vt 0.914426 0.906451
vt 0.478216 0.522168
vt 0.482211 0.525705
vt 0.482648 0.530637
vt 0.383893 0.382795
vt 0.380377 0.384310
vt 0.564936 0.370269
vt 0.561738 0.373261
vt 0.560088 0.371505
vt 0.007144 0.174650
vt 0.007821 0.173382
vt 0.007799 0.174766
vt 0.007194 0.175159
vt 0.473646 0.520201
vt 0.478133 0.521014
vt 0.920025 0.896722
vt 0.918620 0.895493
vt 0.919684 0.895319
vt 0.913197 0.898958
vt 0.913493 0.902898
vt 0.104006 0.263110
vt 0.105923 0.261683
vt 0.107343 0.263793
vt 0.106855 0.263913
vt 0.906805 0.899950
vt 0.908513 0.906344
vt 0.903584 0.902294
vt 0.910462 0.901865
vt 0.909850 0.910083
vt 0.903937 0.907140
vt 0.109694 0.261329
vt 0.108669 0.264321
vt 0.916339 0.907760
vt 0.518667 0.477252
vt 0.516612 0.475093
vt 0.563207 0.341962
vt 0.563653 0.340978
vt 0.564042 0.342072
vt 0.910599 0.899297
vt 0.330762 0.759125
vt 0.331873 0.759091
vt 0.331659 0.759404
vt 0.378799 0.378172
vt 0.379073 0.378276
vt 0.379384 0.379860
vt 0.378090 0.378873
vt 0.117916 0.244450
vt 0.518302 0.517924
vt 0.520787 0.516321
vt 0.517725 0.519304
vt 0.915559 0.231212
vt 0.916445 0.229784
vt 0.916973 0.230289
vt 0.515518 0.520017
vt 0.380403 0.394266
vt 0.379120 0.394756
vt 0.109619 0.258724
vt 0.102809 0.257351
vt 0.921654 0.900892
vt 0.685994 0.106438
vt 0.683774 0.106262
vt 0.685680 0.105434
vt 0.102831 0.260805
vt 0.784707 0.592020
vt 0.783292 0.589491
vt 0.784560 0.590672
vt 0.373945 0.385037
vt 0.372867 0.386244
vt 0.703466 0.352970
vt 0.703825 0.353267
vt 0.703676 0.353226
vt 0.102688 0.257487
vt 0.328556 0.759348
vt 0.327422 0.760471
vt 0.325311 0.758766
vt 0.326882 0.758722
vt 0.542322 0.297592
vt 0.542476 0.298571
vt 0.739180 0.735896
vt 0.739177 0.735982
vt 0.738990 0.735758
vt 0.225343 0.324188
vt 0.226228 0.323272
vt 0.226782 0.324220
vt 0.473692 0.521871
vt 0.479182 0.527088
vt 0.378283 0.384862
vt 0.818101 0.854384
vt 0.817184 0.855732
vt 0.817581 0.854329
vt 0.382128 0.379448
vt 0.918237 0.490154
vt 0.917659 0.490356
vt 0.917340 0.489073
vt 0.479999 0.530715
vt 0.538262 0.305963
vt 0.536068 0.305083
vt 0.537761 0.304324
vt 0.542392 0.303929
vt 0.539977 0.305718
vt 0.489380 0.352756
vt 0.487677 0.351410
vt 0.489535 0.349895
vt 0.482756 0.535389
vt 0.102637 0.257220
vt 0.866105 0.488269
vt 0.865810 0.488178
vt 0.865924 0.488106
vt 0.382400 0.387072
vt 0.484993 0.536391
vt 0.775179 0.113934
vt 0.775124 0.113894
vt 0.775146 0.113776
vt 0.912673 0.894892
vt 0.912272 0.891413
vt 0.602060 0.504680
vt 0.603996 0.509300
vt 0.601073 0.509022
vt 0.601733 0.509259
vt 0.913401 0.899823
vt 0.518226 0.478125
vt 0.974924 0.777060
vt 0.973660 0.777788
vt 0.973466 0.776595
vt 0.903275 0.906802
vt 0.611245 0.123709
vt 0.611345 0.122254
vt 0.612762 0.123623
vt 0.517021 0.517060
vt 0.514120 0.517675
vt 0.249876 0.973782
vt 0.251773 0.973921
vt 0.252841 0.976076
vt 0.251723 0.973452
vt 0.252219 0.973999
vt 0.903219 0.900493
vt 0.904187 0.899562
vt 0.126344 0.071334
vt 0.126042 0.072996
vt 0.124935 0.071398
vt 0.654498 0.653000
vt 0.650424 0.646331
vt 0.655212 0.650844
vt 0.919300 0.895072
vt 0.918212 0.892677
vt 0.541881 0.292185
vt 0.540401 0.291962
vt 0.483841 0.354495
vt 0.484436 0.353228
vt 0.486965 0.356132
vt 0.484089 0.355170
vt 0.485204 0.357124
vt 0.516209 0.345905
vt 0.517143 0.346036
vt 0.517221 0.346260
vt 0.381400 0.391570
vt 0.112760 0.260636
vt 0.111350 0.261495
vt 0.105439 0.267103
vt 0.105202 0.267046
vt 0.105297 0.266953
vt 0.512653 0.467882
vt 0.038196 0.665788
vt 0.038987 0.665321
vt 0.040053 0.666713
vt 0.516265 0.343340
vt 0.517755 0.343863
vt 0.980745 0.579101
vt 0.982036 0.579041
vt 0.980573 0.580473
vt 0.710844 0.746905
vt 0.711259 0.747272
vt 0.710492 0.747451
vt 0.709883 0.747422
vt 0.524075 0.513350
vt 0.523970 0.514697
vt 0.523347 0.517775
vt 0.538153 0.290862
vt 0.538169 0.290804
vt 0.538789 0.290960
vt 0.538999 0.293604
vt 0.540173 0.291501
vt 0.784525 0.592202
vt 0.783531 0.591992
vt 0.541920 0.292229
vt 0.541430 0.295551
vt 0.104966 0.266829
vt 0.737875 0.735955
vt 0.737740 0.734951
vt 0.478736 0.520012
vt 0.479598 0.520541
vt 0.921451 0.901548
vt 0.920651 0.902961
vt 0.919097 0.902255
vt 0.105288 0.245269
vt 0.108109 0.243846
vt 0.921811 0.900786
vt 0.107445 0.267386
vt 0.107138 0.267627
vt 0.473080 0.520110
vt 0.471238 0.521994
vt 0.472808 0.520174
vt 0.201385 0.817216
vt 0.199642 0.817702
vt 0.198900 0.816228
vt 0.198327 0.813905
vn 0.5869 -0.7493 -0.3069
vn 0.6381 -0.7684 0.0485
vn -0.3228 -0.8304 0.4541
vn 0.5284 -0.7843 -0.3250
vn -0.2957 -0.9199 0.2575
vn 0.5243 -0.7845 -0.3311
vn 0.4179 -0.8695 -0.2633
vn -0.2803 -0.9498 0.1387
vn 0.6636 -0.7032 -0.2552
vn -0.2645 0.8653 0.4257
vn 0.2200 0.5773 0.7863
vn 0.1960 0.5942 0.7801
vn -0.1423 0.6731 0.7257
vn -0.0181 0.7164 0.6975
vn 0.0117 0.4337 0.9010
vn -0.3185 0.8546 0.4102
vn -0.4878 0.6380 0.5958
vn 0.1110 0.1939 0.9747
vn -0.1577 0.3668 0.9168
vn 0.1666 0.4327 0.8860
vn -0.6745 -0.2149 -0.7064
vn -0.6734 -0.4332 -0.5991
vn -0.8377 -0.1056 -0.5359
vn -0.5325 0.3067 0.7890
vn -0.3426 -0.5417 -0.7676
vn -0.3160 0.9462 0.0702
vn -0.4102 0.8765 -0.2521
vn -0.5143 0.7535 -0.4096
vn 0.0278 0.3559 -0.9341
vn -0.5946 0.3363 -0.7304
vn -0.6439 0.6625 -0.3827
vn 0.1587 0.5491 -0.8205
vn -0.2077 -0.5649 0.7986
vn 0.0359 -0.9760 0.2149
vn 0.4315 0.6704 0.6036
vn 0.4882 0.7335 0.4729
vn 0.0318 -0.8484 -0.5285
vn -0.2326 -0.5843 -0.7775
vn -0.8712 0.3364 -0.3575
vn -0.6132 0.6111 -0.5006
vn -0.7793 -0.0687 -0.6229
vn -0.8776 0.2777 -0.3907
vn 0.1900 -0.9741 -0.1229
vn 0.3039 -0.9517 -0.0425
vn -0.1425 -0.8391 -0.5250
vn -0.4667 0.6618 -0.5867
vn -0.6957 -0.1920 -0.6922
vn -0.3445 0.9374 0.0505
vn 0.3782 -0.2509 0.8911
vn 0.2413 0.3070 0.9206
vn -0.4999 0.8561 -0.1307
vn -0.9160 -0.1006 -0.3883
vn -0.8891 -0.1992 -0.4121
vn 0.2961 0.9398 -0.1706
vn 0.3765 0.8687 -0.3218
vn 0.1848 -0.3681 -0.9112
vn -0.6024 -0.2158 -0.7685
vn -0.0122 -0.1386 -0.9903
vn -0.4304 -0.0618 -0.9005
vn 0.7869 0.0466 0.6153
vn -0.2573 -0.0670 0.9640
vn -0.1578 -0.4550 0.8764
vn 0.7897 -0.0670 0.6099
vn -0.7638 0.2406 -0.5989
vn -0.9501 -0.1444 -0.2765
vn 0.5369 -0.7823 -0.3160
vn 0.1718 -0.0654 0.9830
vn -0.4759 0.3461 -0.8085
vn -0.5511 -0.1390 0.8228
vn -0.5231 -0.2997 0.7978
vn -0.4840 -0.5670 0.6665
vn 0.1036 -0.6372 0.7637
vn -0.0666 0.9320 0.3564
vn 0.4290 -0.8670 0.2537
vn 0.1829 -0.7192 0.6703
vn 0.2106 -0.9764 0.0478
vn -0.0752 0.0086 0.9971
vn -0.4683 0.1800 0.8651
vn -0.4972 -0.7047 -0.5062
vn 0.6798 0.2863 0.6752
vn -0.5819 0.1488 0.7995
vn -0.6361 0.3354 0.6949
vn -0.8891 0.4500 -0.0841
vn 0.6573 0.3942 0.6423
vn -0.5351 0.0279 0.8443
vn -0.0090 0.6714 -0.7410
vn 0.3112 0.7399 -0.5964
vn 0.2637 -0.6842 0.6800
vn -0.0721 -0.9797 -0.1869
vn 0.5192 0.5086 0.6868
vn -0.5691 -0.7257 0.3866
vn -0.9496 -0.1436 -0.2788
vn -0.5717 -0.7780 -0.2606
vn -0.8694 -0.2779 -0.4085
vn 0.1371 0.2775 -0.9509
vn 0.1160 0.1441 -0.9827
vn -0.5077 -0.8614 0.0151
vn -0.5314 -0.8439 0.0738
vn -0.6973 0.4471 0.5603
vn -0.8050 0.5511 0.2198
vn 0.3952 -0.5452 -0.7393
vn 0.1967 -0.5495 -0.8120
vn 0.7826 -0.5602 0.2716
vn 0.8340 -0.3749 0.4048
vn -0.6611 -0.6840 0.3085
vn -0.4967 -0.8483 0.1836
vn 0.2806 0.8541 -0.4379
vn 0.4586 -0.7635 -0.4547
vn 0.2447 0.9345 0.2585
vn 0.4935 0.8696 0.0127
vn 0.3306 0.9426 -0.0475
s 1
f 94/1/1 97/2/2 1/3/3
f 99/4/4 1/3/3 9/5/5 110/6/6
f 107/7/7 12/8/8 80/9/9
f 55/10/10 31/11/11 34/12/12
f 26/13/13 29/14/14 30/15/15
f 39/16/16 26/13/13 27/17/17
f 41/18/18 32/19/19 30/15/15
f 31/11/11 40/20/20 34/12/12
f 35/21/21 11/22/22 19/23/23
f 27/24/17 26/25/13 54/26/24
f 35/27/21 20/28/25 11/29/22
f 25/30/26 8/31/27 28/32/28
f 88/33/29 18/34/30 2/35/31 109/36/32
f 30/15/15 32/19/19 26/13/13
f 45/37/33 33/38/34 9/39/5
f 91/40/35 102/41/36 54/42/24
f 15/43/37 20/44/25 50/45/38
f 64/46/39 52/47/40 60/48/41
f 52/49/40 43/50/42 19/51/23
f 16/52/43 23/53/44 24/54/45
f 2/35/31 44/55/46 8/56/27
f 28/57/28 8/56/27 44/55/46
f 24/58/45 13/59/47 11/60/22
f 42/61/48 8/62/27 25/63/26
f 3/64/49 40/20/20 4/65/50
f 28/66/28 56/67/51 25/68/26
f 75/69/52 19/70/23 13/71/47 59/72/53
f 111/73/54 106/74/55 42/61/48
f 85/75/56 53/76/57 100/77/58
f 10/78/59 18/34/30 53/76/57
f 20/44/25 35/79/21 10/78/59
f 98/80/60 14/81/61 21/82/62 105/83/63
f 46/84/64 19/85/23 43/86/42
f 19/85/23 46/84/64 35/87/21
f 75/88/52 74/89/65 19/85/23
f 21/82/62 45/90/33 1/91/3
f 20/44/25 24/92/45 11/60/22
f 110/6/6 9/5/5 12/93/8 83/94/66
f 4/95/50 38/96/67 3/97/49
f 10/78/59 46/84/64 22/98/68
f 46/84/64 10/78/59 35/79/21
f 71/99/69 69/100/70 38/101/67
f 70/102/71 36/103/72 38/104/67 69/105/70
f 26/13/13 39/16/16 7/106/73
f 48/107/74 51/108/75 23/109/44
f 37/110/76 23/111/44 16/112/43
f 23/109/44 37/113/76 48/107/74
f 40/20/20 30/114/15 29/115/14
f 54/42/24 5/116/77 6/117/78
f 32/19/19 5/116/77 54/42/24
f 47/118/79 50/45/38 53/76/57
f 53/119/57 50/120/38 10/121/59
f 98/80/60 104/122/80 14/81/61
f 52/123/40 55/124/10 56/125/51
f 21/82/62 14/81/61 45/90/33
f 73/126/81 31/11/11 67/127/82
f 62/128/83 52/129/40 64/130/39
f 103/131/84 6/117/78 14/81/61 104/122/80
f 76/132/85 4/133/50 31/134/11 73/135/81
f 2/35/31 18/34/30 44/55/46
f 16/52/43 24/136/45 15/137/37
f 82/138/86 2/139/31 95/140/87
f 10/141/59 22/142/68 18/143/30
f 39/144/16 42/61/48 7/145/73
f 40/20/20 31/11/11 4/146/50
f 49/147/88 41/148/18 3/149/49
f 51/150/75 38/104/67 36/103/72
f 9/151/5 1/152/3 45/153/33
f 34/12/12 40/20/20 29/115/14
f 29/154/14 7/145/73 25/63/26
f 12/155/8 33/156/34 37/157/76
f 17/158/89 12/159/8 16/52/43
f 12/159/8 37/157/76 16/52/43
f 7/106/73 29/14/14 26/13/13
f 55/160/10 34/161/12 29/162/14
f 25/63/26 55/163/10 29/154/14
f 79/164/90 6/117/78 103/131/84
f 14/81/61 5/116/77 45/90/33
f 42/61/48 25/63/26 7/145/73
f 13/59/47 19/85/23 11/60/22
f 5/116/77 14/81/61 6/117/78
f 109/165/32 2/166/31 82/167/86
f 41/168/18 40/20/20 3/64/49
f 56/169/51 55/163/10 25/63/26
f 3/64/49 38/104/67 51/150/75
f 66/170/91 36/171/72 70/172/71
f 22/173/68 28/57/28 44/174/46
f 48/175/74 37/176/76 49/177/88
f 37/176/76 33/178/34 49/177/88
f 10/179/59 50/45/38 20/44/25
f 83/94/66 12/93/8 107/180/7
f 12/181/8 9/182/5 33/183/34
f 32/19/19 54/42/24 26/13/13
f 61/184/92 60/48/41 52/47/40
f 17/185/89 16/186/43 15/187/37
f 3/188/49 51/108/75 48/107/74
f 49/189/88 3/188/49 48/107/74
f 58/190/93 57/191/94 24/192/45
f 59/193/53 13/194/47 24/192/45 57/191/94
f 56/195/51 28/196/28 43/86/42
f 28/197/28 46/198/64 43/199/42
f 18/200/30 22/201/68 44/202/46
f 5/116/77 32/19/19 41/18/18
f 22/173/68 46/84/64 28/57/28
f 101/203/95 53/76/57 96/204/96
f 63/205/97 23/53/44 65/206/98
f 91/40/35 54/42/24 6/117/78 79/164/90
f 67/207/82 31/208/11 55/209/10 78/210/99
f 78/210/99 55/209/10 77/211/100
f 89/212/101 47/213/79 90/214/102
f 41/215/18 30/114/15 40/20/20
f 45/90/33 5/116/77 49/216/88
f 33/217/34 45/90/33 49/216/88
f 49/216/88 5/116/77 41/18/18
f 84/218/103 108/219/104 21/220/62
f 99/221/4 94/1/1 1/3/3
f 17/222/89 15/223/37 50/224/38
f 47/213/79 17/225/89 50/226/38
f 56/227/51 43/228/42 52/229/40
f 20/44/25 15/43/37 24/92/45
f 4/230/50 76/231/85 71/232/69 38/233/67
f 36/234/72 68/235/105 72/236/106 51/108/75
f 36/237/72 66/238/91 68/239/105
f 51/240/75 72/241/106 65/206/98 23/53/44
f 52/123/40 62/242/83 77/243/100 55/124/10
f 19/85/23 74/89/65 61/184/92 52/47/40
f 23/53/44 63/205/97 58/244/93 24/245/45
f 78/210/99 77/243/100 62/128/83 64/46/39 60/48/41 61/184/92 74/89/65 75/69/52 59/193/53 57/191/94 58/244/93 63/205/97 65/206/98 72/236/106 68/239/105 66/170/91 70/102/71 69/100/70 71/232/69 76/132/85 73/126/81 67/207/82
f 21/220/62 108/219/104 105/246/63
f 53/76/57 101/203/95 100/77/58
f 8/247/27 92/248/107 95/140/87 2/139/31
f 42/61/48 106/74/55 92/249/107 8/250/27
f 53/76/57 18/34/30 88/33/29 96/204/96
f 47/118/79 89/251/101 87/252/108 17/253/89
f 54/42/24 102/41/36 86/254/109 27/17/17
f 27/17/17 86/254/109 93/255/110
f 47/118/79 53/76/57 85/75/56 90/256/102
f 21/220/62 1/257/3 97/258/2 84/218/103
f 39/144/16 81/259/111 111/73/54 42/61/48
f 39/144/16 27/260/17 93/261/110 81/259/111
f 17/262/89 87/263/108 80/264/9 12/265/8
f 96/204/96 95/140/87 85/75/56
f 102/41/36 91/40/35 83/94/66
f 91/40/35 79/164/90 103/131/84
f 103/131/84 104/122/80 98/80/60
f 91/40/35 103/131/84 83/94/66
f 93/261/110 86/254/109 102/41/36
f 111/73/54 81/259/111 93/261/110
f 92/248/107 106/74/55 95/140/87
f 106/74/55 111/73/54 80/9/9
f 95/140/87 106/74/55 80/9/9
f 109/36/32 82/167/86 95/140/87
f 111/73/54 93/261/110 83/94/66
f 93/261/110 102/41/36 83/94/66
f 103/131/84 98/80/60 110/6/6
f 83/94/66 103/131/84 110/6/6
f 98/80/60 105/83/63 108/219/104
f 108/219/104 84/218/103 97/258/2
f 97/258/2 94/1/1 108/219/104
f 94/1/1 99/221/4 108/219/104
f 99/221/4 110/6/6 98/80/60
f 83/94/66 107/180/7 111/73/54
f 107/180/7 80/9/9 111/73/54
f 80/9/9 87/263/108 89/251/101
f 89/251/101 90/214/102 85/75/56
f 85/75/56 100/77/58 101/203/95
f 101/203/95 96/204/96 85/75/56
f 96/204/96 88/33/29 95/140/87
f 88/33/29 109/36/32 95/140/87
f 98/80/60 108/219/104 99/221/4
f 80/9/9 89/251/101 85/75/56
f 95/140/87 80/9/9 85/75/56
