# Blender v2.79 (sub 0) OBJ File: 'phobos_31mg_parented_without_antenna.blend'
# www.blender.org
o 19_f_l_pretarsus_Sungaya_inexpectata_31mg.001
v -0.000136 0.000022 -0.000104
v 0.000032 -0.000064 -0.000010
v 0.000054 -0.000063 0.000047
v -0.000408 0.000168 0.000006
v 0.000472 0.000010 0.000124
v 0.000388 0.000032 0.000034
v 0.000187 0.000044 0.000040
v -0.000099 -0.000045 0.000032
v -0.000075 0.000095 -0.000060
v -0.000187 0.000141 -0.000076
v -0.000394 0.000080 0.000030
v -0.000077 0.000116 -0.000020
v 0.000188 -0.000128 0.000022
v 0.000094 -0.000040 -0.000058
v 0.000463 -0.000021 0.000027
v -0.000117 -0.000020 -0.000072
v 0.000383 -0.000153 0.000112
v 0.000093 0.000043 0.000054
v -0.000039 0.000017 0.000072
v -0.000399 0.000076 -0.000162
v 0.000399 -0.000078 0.000008
v 0.000015 0.000062 -0.000069
v 0.000267 -0.000111 -0.000001
v 0.000289 0.000055 0.000002
v 0.000198 0.000062 -0.000032
v -0.000330 0.000164 -0.000121
v 0.000504 -0.000016 0.000177
v -0.000243 0.000175 -0.000052
v -0.000278 0.000165 -0.000004
v -0.000159 0.000074 0.000057
v -0.000309 0.000022 0.000006
v 0.000266 0.000020 0.000083
v 0.000184 -0.000082 0.000077
v 0.000314 -0.000101 0.000104
v 0.000434 -0.000217 0.000047
v 0.000283 -0.000012 0.000115
v -0.000211 0.000032 0.000055
v 0.000107 -0.000033 0.000081
v 0.000108 0.000007 -0.000053
v 0.000113 0.000075 -0.000012
v 0.000496 -0.000154 -0.000044
v 0.000421 -0.000155 0.000002
v -0.000466 0.000229 -0.000129
v -0.000495 0.000196 -0.000009
v -0.000517 0.000129 0.000014
v -0.000522 0.000094 -0.000006
v -0.000471 0.000181 -0.000171
v -0.000523 0.000090 -0.000010
v -0.000492 0.000095 -0.000185
v -0.000516 0.000082 -0.000064
v -0.000496 0.000091 -0.000165
v -0.000466 0.000229 -0.000130
v -0.000506 0.000165 0.000005
v -0.000480 0.000141 -0.000181
v 0.000475 -0.000222 0.000035
v 0.000505 -0.000041 0.000181
v 0.000511 -0.000018 0.000177
v 0.000471 -0.000229 0.000045
v 0.000475 -0.000180 0.000122
v 0.000501 -0.000155 -0.000043
v 0.000500 -0.000157 -0.000043
v 0.000521 -0.000045 0.000031
v 0.000522 -0.000002 0.000122
v 0.000483 -0.000126 0.000176
v 0.000520 -0.000062 0.000006
v 0.000506 -0.000130 -0.000031
v 0.000512 -0.000017 0.000175
v 0.000473 -0.000198 0.000099
v 0.000522 -0.000053 0.000009
v 0.000471 -0.000229 0.000052
v 0.000523 -0.000002 0.000115
v 0.000486 -0.000110 0.000185
v 0.000485 -0.000117 0.000182
vt 0.000000 0.000000
vt 0.000000 0.000000
vt 0.000000 0.000000
vt 0.000000 0.000000
vt 0.000000 0.000000
vt 0.000000 0.000000
vt 0.000000 0.000000
vt 0.000000 0.000000
vt 0.000000 0.000000
vt 0.000000 0.000000
vt 0.000000 0.000000
vt 0.000000 0.000000
vt 0.000000 0.000000
vt 0.000000 0.000000
vt 0.000000 0.000000
vt 0.000000 0.000000
vt 0.000000 0.000000
vt 0.000000 0.000000
vt 0.000000 0.000000
vt 0.828092 0.130687
vt 0.825838 0.125611
vt 0.827753 0.123651
vt 0.425369 0.048377
vt 0.424692 0.052947
vt 0.422337 0.051591
vt 0.879908 0.544317
vt 0.878458 0.546114
vt 0.876305 0.544855
vt 0.986430 0.447182
vt 0.986873 0.447622
vt 0.984450 0.447057
vt 0.423627 0.072156
vt 0.421438 0.069677
vt 0.424833 0.069128
vt 0.377868 0.125737
vt 0.377517 0.125705
vt 0.377501 0.125648
vt 0.340392 0.387585
vt 0.341023 0.385433
vt 0.345677 0.391088
vt 0.739565 0.159732
vt 0.738477 0.160732
vt 0.737065 0.159679
vt 0.346397 0.388585
vt 0.352278 0.393768
vt 0.425169 0.042217
vt 0.427080 0.038932
vt 0.425552 0.043767
vt 0.150871 0.972885
vt 0.150599 0.970134
vt 0.152183 0.971388
vt 0.925152 0.318828
vt 0.926273 0.320645
vt 0.922992 0.318316
vt 0.422301 0.046345
vt 0.423155 0.040757
vt 0.211044 0.146572
vt 0.210490 0.147214
vt 0.210432 0.146121
vt 0.943729 0.549641
vt 0.942432 0.552506
vt 0.940820 0.551356
vt 0.955336 0.485948
vt 0.954601 0.488344
vt 0.954229 0.486954
vt 0.323170 0.658310
vt 0.324398 0.660802
vt 0.321668 0.662968
vt 0.735600 0.964281
vt 0.733219 0.963413
vt 0.734998 0.963106
vt 0.643519 0.278307
vt 0.641942 0.276865
vt 0.643157 0.276507
vt 0.425293 0.066002
vt 0.462878 0.649326
vt 0.465227 0.652792
vt 0.462060 0.650943
vt 0.423934 0.056186
vt 0.302896 0.950500
vt 0.303191 0.953732
vt 0.301496 0.950847
vt 0.421797 0.061022
vt 0.424912 0.063645
vt 0.423476 0.059019
vt 0.425293 0.059996
vt 0.421179 0.058172
vt 0.864035 0.581361
vt 0.864774 0.582961
vt 0.862817 0.582544
vt 0.323507 0.662454
vt 0.825127 0.120190
vt 0.645406 0.279110
vt 0.644361 0.278638
vt 0.644696 0.277113
vt 0.080065 0.685377
vt 0.078318 0.683996
vt 0.082222 0.681892
vt 0.425442 0.045682
vt 0.783736 0.949572
vt 0.783120 0.948209
vt 0.785663 0.948923
vt 0.350813 0.395514
vt 0.745009 0.895320
vt 0.745124 0.895457
vt 0.744846 0.895494
vt 0.745169 0.895690
vt 0.712325 0.086862
vt 0.711544 0.089032
vt 0.711278 0.087459
vt 0.055853 0.224859
vt 0.056817 0.223751
vt 0.058270 0.224169
vt 0.455656 0.734112
vt 0.454541 0.735503
vt 0.455110 0.732049
vt 0.463338 0.648050
vt 0.459773 0.645034
vt 0.918460 0.710553
vt 0.918101 0.711569
vt 0.916232 0.711543
vt 0.502933 0.689554
vt 0.503379 0.691473
vt 0.501932 0.691395
vt 0.777639 0.686533
vt 0.777961 0.685637
vt 0.779534 0.687394
vt 0.706347 0.093883
vt 0.707071 0.092991
vt 0.707803 0.094213
vt 0.422834 0.038648
vt 0.423987 0.038225
vt 0.242975 0.933255
vt 0.244491 0.933669
vt 0.240814 0.935900
vt 0.151343 0.158831
vt 0.150136 0.158961
vt 0.150253 0.157700
vt 0.629017 0.133487
vt 0.629990 0.133930
vt 0.628595 0.135053
vt 0.628636 0.133564
vt 0.955736 0.474696
vt 0.952762 0.473585
vt 0.956498 0.473946
vt 0.879810 0.318101
vt 0.882837 0.319082
vt 0.880198 0.319087
vt 0.952951 0.615031
vt 0.953298 0.613358
vt 0.955287 0.615374
vt 0.453533 0.728682
vt 0.352135 0.781495
vt 0.353949 0.778769
vt 0.352271 0.784412
vt 0.116633 0.843308
vt 0.117212 0.842358
vt 0.118274 0.847183
vt 0.735527 0.722286
vt 0.733717 0.721974
vt 0.737576 0.721121
vt 0.822834 0.109724
vt 0.825594 0.115849
vt 0.824041 0.114293
vt 0.822774 0.109868
vt 0.422875 0.060617
vt 0.584914 0.141769
vt 0.583389 0.140689
vt 0.584278 0.140096
vt 0.833162 0.952497
vt 0.835027 0.952040
vt 0.835284 0.953081
vt 0.824476 0.122489
vt 0.095692 0.863921
vt 0.094406 0.863122
vt 0.093506 0.859595
vt 0.547697 0.795863
vt 0.548804 0.800885
vt 0.546764 0.798322
vt 0.189355 0.658741
vt 0.190627 0.659144
vt 0.190441 0.659759
vt 0.359944 0.696121
vt 0.359910 0.695788
vt 0.361401 0.695422
vt 0.361371 0.695485
vt 0.361392 0.695566
vt 0.911607 0.369055
vt 0.911642 0.369088
vt 0.911512 0.369047
vt 0.730287 0.725252
vt 0.730682 0.725519
vt 0.730611 0.725537
vt 0.829095 0.128750
vt 0.829955 0.126814
vt 0.343937 0.387723
vt 0.148854 0.972842
vt 0.148213 0.971034
vt 0.018959 0.095904
vt 0.020654 0.097438
vt 0.018883 0.097216
vt 0.831434 0.132214
vt 0.129892 0.553423
vt 0.132130 0.552593
vt 0.131551 0.553398
vt 0.923520 0.100083
vt 0.924837 0.102218
vt 0.923447 0.101858
vt 0.924490 0.100538
vt 0.352696 0.395586
vt 0.844938 0.408443
vt 0.843277 0.411999
vt 0.841882 0.412203
vt 0.844678 0.409925
vt 0.419229 0.069660
vt 0.420186 0.065645
vt 0.374319 0.936321
vt 0.372508 0.935244
vt 0.373266 0.934644
vt 0.772210 0.785015
vt 0.772936 0.786653
vt 0.771432 0.787073
vt 0.957626 0.598823
vt 0.957404 0.599158
vt 0.956332 0.597955
vt 0.956629 0.597994
vt 0.444776 0.135242
vt 0.444268 0.134193
vt 0.445380 0.132403
vt 0.887101 0.425999
vt 0.887141 0.427204
vt 0.884668 0.425287
vt 0.766031 0.627104
vt 0.766000 0.628893
vt 0.765177 0.628292
vt 0.765044 0.627587
vt 0.333192 0.383009
vt 0.230667 0.944920
vt 0.231743 0.942960
vt 0.232894 0.941914
vt 0.233110 0.943104
vt 0.822734 0.113583
vt 0.821351 0.109936
vt 0.822581 0.109764
vt 0.336637 0.381492
vt 0.333193 0.382986
vt 0.830162 0.137615
vt 0.829570 0.140136
vt 0.829342 0.140337
vt 0.827837 0.139085
vt 0.419713 0.073714
vt 0.421503 0.074106
vt 0.420177 0.073961
vt 0.973253 0.810957
vt 0.974078 0.812207
vt 0.974065 0.812419
vt 0.972491 0.811830
vt 0.831536 0.138570
vt 0.829883 0.140101
vt 0.608438 0.026001
vt 0.608557 0.026228
vt 0.608352 0.026404
vt 0.663583 0.572858
vt 0.661152 0.573222
vt 0.660742 0.572999
vt 0.661911 0.571579
vt 0.877107 0.600230
vt 0.875170 0.599070
vt 0.876815 0.598893
vt 0.877076 0.599902
vt 0.840245 0.375471
vt 0.840361 0.375520
vt 0.841543 0.377189
vt 0.840978 0.377293
vn 0.9616 -0.2508 0.1113
vn 0.9616 -0.2509 0.1116
vn 0.9616 -0.2507 0.1113
vn 0.9617 -0.2506 0.1113
vn 0.9617 -0.2506 0.1116
vn 0.9616 -0.2509 0.1115
vn 0.9619 -0.2497 0.1117
vn 0.9616 -0.2508 0.1114
vn -0.1506 -0.2103 0.9660
vn -0.0313 -0.0513 0.9982
vn -0.2836 -0.8874 0.3635
vn 0.3212 0.6763 -0.6629
vn 0.2865 0.6650 -0.6898
vn 0.1478 -0.1997 -0.9686
vn -0.2114 -0.9729 -0.0939
vn -0.1999 -0.9617 -0.1875
vn 0.0733 -0.3998 -0.9137
vn -0.6901 0.4143 0.5933
vn 0.0503 0.6340 0.7717
vn -0.5396 0.7325 0.4151
vn 0.2607 0.6753 -0.6899
vn -0.0013 0.1799 -0.9837
vn 0.2729 0.8478 -0.4547
vn -0.2477 0.1364 0.9592
vn 0.1818 0.4383 0.8802
vn 0.0265 0.6188 0.7851
vn 0.3267 0.9419 -0.0788
vn 0.1105 0.8137 0.5706
vn 0.2619 0.9542 0.1449
vn -0.1527 -0.8436 -0.5148
vn -0.3188 -0.9051 0.2814
vn -0.0053 0.4446 0.8957
vn 0.0736 0.6769 0.7324
vn -0.4023 0.4471 -0.7989
vn -0.6968 0.6700 -0.2561
vn 0.3505 0.5174 -0.7807
vn 0.0074 0.8350 0.5502
vn 0.0662 0.9055 0.4191
vn 0.0826 -0.5548 -0.8279
vn -0.5685 0.8081 0.1544
vn -0.3447 -0.9318 -0.1135
vn -0.4669 -0.6656 0.5823
vn -0.3863 -0.4537 0.8031
vn -0.3220 -0.5719 0.7545
vn -0.2054 0.2401 0.9488
vn -0.2840 -0.6982 0.6572
vn -0.3818 -0.4975 0.7789
vn 0.2727 0.7910 -0.5477
vn 0.2721 0.4789 -0.8346
vn -0.8083 -0.5264 -0.2638
vn -0.8363 -0.5335 -0.1262
vn 0.2187 0.5970 -0.7719
vn 0.1928 0.1951 -0.9616
vn 0.2576 0.9583 -0.1236
vn -0.2115 -0.2797 0.9365
vn -0.3184 -0.7594 0.5673
vn -0.3142 -0.6956 -0.6461
vn -0.3442 -0.8548 -0.3884
vn -0.3621 -0.8930 0.2671
vn -0.2549 -0.2118 0.9435
vn -0.0624 0.9622 0.2649
vn -0.5395 -0.3806 -0.7510
vn -0.4589 0.2726 -0.8456
vn 0.0281 -0.3358 -0.9415
vn -0.3268 -0.3805 -0.8651
vn -0.1960 -0.0949 -0.9760
vn -0.8718 -0.4364 0.2224
vn -0.8137 -0.3158 0.4880
vn 0.3297 0.8819 -0.3369
vn 0.1625 0.9464 -0.2793
vn 0.2095 0.9678 0.1392
vn 0.2327 0.8521 0.4689
vn 0.1350 0.0917 -0.9866
vn -0.1619 -0.5736 -0.8030
vn -0.0855 0.4775 -0.8745
vn -0.2216 -0.8103 0.5425
vn -0.7089 0.0678 0.7020
vn -0.4354 -0.3210 0.8411
vn -0.3848 -0.0712 0.9202
vn -0.0830 0.4243 -0.9017
vn 0.0889 0.6280 -0.7731
s off
f 62/1/1 63/2/1 72/3/1
f 73/4/2 64/5/2 72/3/2
f 64/5/1 59/6/1 62/1/1
f 72/3/1 64/5/1 62/1/1
f 59/6/1 68/7/1 66/8/1
f 68/7/3 70/9/3 55/10/3
f 70/9/4 58/11/4 55/10/4
f 55/10/5 61/12/5 60/13/5
f 60/13/1 66/8/1 55/10/1
f 66/8/1 65/14/1 59/6/1
f 55/10/1 66/8/1 68/7/1
f 65/14/6 69/15/6 62/1/6
f 62/1/3 71/16/3 63/2/3
f 63/2/7 67/17/7 57/18/7
f 57/18/1 56/19/1 63/2/1
f 56/19/8 72/3/8 63/2/8
f 65/14/1 62/1/1 59/6/1
s 1
f 38/20/9 19/21/10 8/22/11
f 10/23/12 9/24/13 1/25/14
f 13/26/15 2/27/16 14/28/17
f 53/29/18 4/30/19 44/31/20
f 15/32/21 21/33/22 6/34/23
f 56/35/24 57/36/25 27/37/26
f 28/38/27 29/39/28 12/40/29
f 16/41/30 8/42/11 31/43/31
f 30/44/32 18/45/33 12/40/29
f 47/46/34 52/47/35 26/48/36
f 32/49/37 7/50/38 18/51/33
f 19/52/10 18/53/33 30/54/32
f 26/48/36 1/55/14 20/56/39
f 44/57/20 4/58/19 43/59/40
f 16/60/30 31/61/31 20/62/39
f 35/63/41 17/64/42 34/65/43
f 38/66/9 33/67/44 36/68/45
f 27/69/26 32/70/37 36/71/45
f 59/72/46 64/73/47 17/74/42
f 24/75/48 6/34/23 21/33/22
f 16/76/30 2/77/16 8/78/11
f 1/25/14 9/24/13 22/79/49
f 51/80/50 31/81/31 50/82/51
f 24/75/48 14/83/17 25/84/52
f 39/85/53 22/79/49 40/86/54
f 39/85/53 14/87/17 22/79/49
f 13/88/15 33/89/44 38/90/9
f 33/67/44 34/91/43 36/68/45
f 19/21/10 37/92/55 8/22/11
f 68/93/56 59/94/46 17/95/42
f 27/96/26 6/97/23 32/98/37
f 10/23/12 1/25/14 26/99/36
f 22/100/49 12/101/29 40/102/54
f 12/40/29 18/45/33 40/103/54
f 55/104/57 58/105/58 35/106/41
f 58/105/58 70/107/59 35/106/41
f 28/108/27 12/109/29 10/110/12
f 22/79/49 14/87/17 1/25/14
f 11/111/60 31/112/31 37/113/55
f 37/114/55 30/115/32 11/116/60
f 1/117/14 16/76/30 20/118/39
f 5/119/61 15/120/21 6/121/23
f 10/122/12 12/123/29 9/124/13
f 26/125/36 28/126/27 10/127/12
f 5/128/61 6/129/23 27/130/26
f 49/131/62 54/132/63 20/56/39
f 9/133/13 12/134/29 22/135/49
f 24/136/48 21/137/22 23/138/64
f 49/139/62 20/140/39 31/141/31 51/142/50
f 32/143/37 18/144/33 36/145/45
f 38/146/9 36/147/45 18/148/33
f 42/149/65 21/150/22 41/151/66
f 11/116/60 30/115/32 4/152/19
f 29/153/28 4/154/19 30/155/32
f 18/156/33 19/157/10 38/158/9
f 48/159/67 50/160/51 31/161/31
f 48/162/67 31/163/31 11/164/60 46/165/68
f 25/84/52 14/83/17 39/166/53
f 25/167/52 39/168/53 40/169/54
f 1/170/14 14/171/17 16/172/30
f 19/21/10 30/173/32 37/92/55
f 35/174/41 34/175/43 13/176/15
f 13/177/15 34/178/43 33/179/44
f 62/180/69 5/181/61 71/182/70
f 63/183/71 5/184/61 27/185/26 67/186/72
f 67/186/72 27/185/26 57/187/25
f 60/188/73 61/189/74 41/190/66
f 66/191/75 60/192/73 41/193/66
f 3/194/76 8/22/11 2/195/16
f 38/20/9 8/22/11 3/194/76
f 31/163/31 8/22/11 37/92/55
f 29/39/28 30/196/32 12/40/29
f 32/197/37 24/198/48 7/50/38
f 32/199/37 6/200/23 24/201/48
f 13/202/15 38/20/9 3/194/76
f 2/203/16 13/204/15 3/205/76
f 40/206/54 24/207/48 25/208/52
f 7/209/38 24/207/48 40/206/54
f 40/103/54 18/45/33 7/210/38
f 42/211/65 13/212/15 23/213/64
f 35/214/41 13/212/15 42/211/65
f 21/33/22 42/215/65 23/216/64
f 41/217/66 35/218/41 42/219/65
f 14/220/17 2/221/16 16/222/30
f 14/83/17 24/75/48 23/216/64
f 68/223/56 17/224/42 35/225/41 70/226/59
f 23/227/64 13/228/15 14/229/17
f 28/230/27 26/231/36 52/232/35
f 26/233/36 20/234/39 54/235/63 47/236/34
f 28/38/27 52/237/35 29/39/28
f 4/238/19 53/239/18 45/240/77 11/241/60
f 11/242/60 45/243/77 46/244/68
f 4/245/19 29/39/28 52/237/35 43/246/40
f 34/247/43 73/248/78 72/249/79 36/250/45
f 41/251/66 21/33/22 65/252/80 66/253/75
f 15/254/21 69/255/81 65/256/80 21/257/22
f 34/247/43 17/258/42 64/259/47 73/248/78
f 5/260/61 63/261/71 71/262/70
f 5/263/61 62/264/69 69/265/81 15/266/21
f 27/267/26 36/268/45 72/269/79 56/270/24
f 41/271/66 61/272/74 55/273/57 35/274/41
f 52/47/35 47/236/34 54/132/63 49/139/62 51/80/50 50/160/51 48/162/67 46/244/68 45/240/77 53/29/18 44/57/20 43/246/40
