# Blender v2.79 (sub 0) OBJ File: 'CarausiusMorosus.blend'
# www.blender.org
mtllib Textured_mesh_1.mtl

o 33_FL_Pretarsus_L_Collision_Textured_mesh_1.067
v -0.015178 0.010227 -0.011068
v 0.040294 0.027182 -0.000215
v 0.088298 -0.034611 -0.026806
v -0.034392 0.018285 0.010671
v 0.073721 0.011160 -0.022242
v 0.095913 -0.002130 0.048142
v 0.096702 -0.012948 0.029776
v 0.100228 -0.003919 0.036489
v -0.069842 0.024440 -0.024598
v 0.101752 -0.015264 -0.032923
v 0.090379 -0.013354 -0.034787
v 0.080061 -0.035180 -0.021332
v 0.089172 -0.001863 -0.026960
v 0.012817 0.008437 0.040537
v 0.030535 -0.013835 -0.017600
v -0.020672 -0.006356 -0.010694
v -0.049181 -0.019258 0.003436
v 0.094635 0.021582 0.013201
v 0.085417 0.011245 0.033445
v 0.044482 -0.017190 -0.007566
v 0.026889 0.025250 0.030768
v -0.028841 -0.012640 0.027978
v -0.072759 -0.000848 0.014177
v 0.017165 -0.012956 0.025238
v 0.022552 -0.021416 0.006701
v 0.082401 -0.027085 -0.007967
v 0.086302 -0.013192 0.049783
v 0.049988 0.011001 0.030043
v 0.057312 -0.005627 0.020172
v -0.058627 0.020514 0.000055
v -0.074859 0.023964 -0.024045
v -0.074848 0.022928 -0.024620
v -0.074171 -0.006227 0.011978
v -0.074318 -0.010658 -0.019966
v -0.074608 0.003486 -0.031959
v -0.074743 0.013678 -0.029458
v -0.074084 -0.013559 0.008753
v -0.074627 0.004699 -0.032141
v -0.074823 0.023571 -0.019383
v -0.074684 0.021100 -0.004094
v -0.074368 -0.008794 -0.023327
v -0.074234 -0.000870 0.014587
v -0.074225 -0.002387 0.012455
v -0.074289 0.001643 0.011803
v -0.074635 0.007778 -0.026443
vt 0.908513 0.902372
vt 0.906782 0.907615
vt 0.910077 0.908759
vt 0.950886 0.525592
vt 0.949643 0.523334
vt 0.946500 0.521541
vt 0.479816 0.637575
vt 0.479536 0.637826
vt 0.479605 0.637907
vt 0.913402 0.913172
vt 0.913542 0.913035
vt 0.913057 0.912629
vt 0.900598 0.339742
vt 0.899501 0.327752
vt 0.897956 0.334949
vt 0.913385 0.914451
vt 0.812282 0.969715
vt 0.810096 0.969402
vt 0.804632 0.972004
vt 0.007838 0.096442
vt 0.006255 0.093499
vt 0.000413 0.094981
vt 0.032708 0.808146
vt 0.035527 0.804996
vt 0.032288 0.805433
vt 0.012192 0.091671
vt 0.007680 0.090394
vt 0.902938 0.917146
vt 0.904046 0.918252
vt 0.905161 0.915770
vt 0.029957 0.768962
vt 0.030609 0.766883
vt 0.029240 0.768011
vt 0.911166 0.913134
vt 0.908246 0.916097
vt 0.825364 0.071076
vt 0.821071 0.072264
vt 0.823158 0.074544
vt 0.905962 0.339551
vt 0.903173 0.333396
vt 0.904577 0.339876
vt 0.025405 0.768763
vt 0.025852 0.769858
vt 0.949291 0.518167
vt 0.953502 0.515772
vt 0.947442 0.515255
vt 0.775280 0.410369
vt 0.774397 0.401341
vt 0.770683 0.404027
vt 0.314971 0.029740
vt 0.314394 0.029041
vt 0.311774 0.027467
vt 0.123931 0.788505
vt 0.126979 0.787427
vt 0.124806 0.786051
vt 0.768230 0.381320
vt 0.768958 0.386262
vt 0.773598 0.379143
vt 0.285615 0.473211
vt 0.288478 0.470739
vt 0.284505 0.471038
vt 0.904300 0.098720
vt 0.902650 0.099607
vt 0.904061 0.100050
vt 0.897624 0.322514
vt 0.897395 0.327998
vt 0.299082 0.468800
vt 0.296484 0.464726
vt 0.295858 0.468398
vt 0.298499 0.464695
vt 0.772034 0.412121
vt 0.771511 0.409131
vt 0.770287 0.411578
vt 0.770924 0.412399
vt 0.740118 0.529930
vt 0.741024 0.525770
vt 0.737955 0.527923
vt 0.576190 0.923273
vt 0.574805 0.920271
vt 0.572866 0.919120
vt 0.576033 0.923164
vt 0.774896 0.392559
vt 0.771320 0.393369
vt 0.522706 0.852082
vt 0.526691 0.853290
vt 0.524974 0.850514
vt 0.286390 0.469114
vt 0.903468 0.914158
vt 0.127772 0.784823
vt 0.914002 0.912953
vt 0.768039 0.391310
vt 0.767264 0.382263
vt 0.027717 0.767515
vt 0.826807 0.074473
vt 0.796178 0.213988
vt 0.798402 0.211651
vt 0.791027 0.211916
vt 0.299241 0.469672
vt 0.309426 0.029267
vt 0.312134 0.030217
vt 0.951185 0.520749
vt 0.011187 0.089248
vt 0.574919 0.923573
vt 0.939827 0.087239
vt 0.937316 0.083672
vt 0.936953 0.088905
vt 0.288638 0.465436
vt 0.775433 0.410643
vt 0.774961 0.410810
vt 0.905682 0.904948
vt 0.901191 0.327818
vt 0.029357 0.766894
vt 0.286233 0.469836
vt 0.541843 0.987215
vt 0.542145 0.987879
vt 0.542398 0.985749
vt 0.253140 0.456891
vt 0.253810 0.455438
vt 0.253136 0.455354
vt 0.250493 0.455436
vt 0.913805 0.899964
vt 0.910675 0.899982
vt 0.912625 0.902950
vt 0.913460 0.901993
vt 0.586409 0.721652
vt 0.588664 0.723777
vt 0.589043 0.723890
vt 0.588443 0.720577
vt 0.478909 0.637012
vt 0.795139 0.214681
vt 0.790938 0.213557
vt 0.791128 0.215592
vn -0.3045 0.8856 0.3508
vn 0.0053 0.7748 0.6322
vn 0.1231 0.9591 -0.2550
vn -0.2811 -0.9409 -0.1888
vn 0.4855 -0.6544 0.5797
vn -0.4145 -0.7941 0.4444
vn -0.8900 -0.2839 0.3569
vn 0.1830 -0.1838 0.9658
vn 0.0560 -0.0391 0.9977
vn -0.6610 0.0973 -0.7441
vn -0.8009 0.4616 -0.3813
vn 0.7873 0.4520 -0.4195
vn 0.3125 0.7401 -0.5955
vn -0.0940 0.4998 -0.8610
vn -0.4025 -0.2443 -0.8822
vn 0.8171 0.3983 -0.4168
vn 0.7201 0.6939 0.0004
vn 0.1033 -0.9769 -0.1870
vn 0.0345 -0.6900 0.7230
vn -0.3358 -0.7013 0.6288
vn -0.1071 -0.8806 0.4617
vn 0.1979 0.2396 0.9505
vn -0.1147 -0.2675 0.9567
vn 0.8614 -0.4768 -0.1748
vn 0.2386 0.7705 0.5912
vn -0.1048 0.1419 -0.9843
vn -0.4947 -0.5446 -0.6773
vn -0.2275 -0.7606 -0.6081
vn 0.3394 -0.7457 0.5733
vn -0.2044 -0.0855 0.9751
vn 0.8542 -0.4936 0.1634
vn -0.1483 0.9301 0.3360
vn 0.8156 0.2092 0.5395
vn -0.7516 0.6577 0.0502
vn -0.5058 0.8614 -0.0455
vn -0.0004 -0.9924 0.1232
vn -0.5384 0.3956 -0.7441
vn 0.3103 -0.3721 -0.8748
vn -0.6506 -0.3386 -0.6798
vn -0.6180 -0.3813 0.6875
vn -0.6297 -0.6462 -0.4312
vn -0.5705 -0.7534 -0.3270
vn -0.5185 0.6208 0.5880
vn -0.0406 0.7445 -0.6664
vn -0.4032 -0.5022 0.7650
usemtl Textured_mesh_1
s 1
f 4/1/1 21/2/2 2/3/3
f 12/4/4 26/5/5 20/6/6
f 43/7/7 23/8/8 42/9/9
f 32/10/10 31/11/11 9/12/12
f 5/13/13 1/14/14 2/15/3
f 32/10/10 9/12/12 36/16/15
f 13/17/16 5/18/13 18/19/17
f 25/20/18 24/21/19 22/22/20
f 5/23/13 2/24/3 18/25/17
f 29/26/21 14/27/22 24/21/19
f 6/28/23 8/29/24 19/30/25
f 5/31/13 13/32/16 11/33/26
f 2/34/3 21/2/2 18/35/17
f 29/36/21 24/37/19 25/38/18
f 12/39/4 15/40/27 11/41/26
f 3/42/28 12/43/4 11/33/26
f 29/44/21 27/45/29 28/46/30
f 23/47/8 22/48/20 4/49/1
f 15/50/27 20/51/6 25/52/18
f 26/53/5 7/54/31 29/55/21
f 19/56/25 28/57/30 27/58/29
f 27/59/29 7/60/31 6/61/23
f 12/62/4 20/63/6 15/64/27
f 30/65/32 4/66/1 1/14/14
f 21/2/2 19/30/25 18/35/17
f 3/67/28 13/68/16 26/69/5
f 3/67/28 10/70/33 13/68/16
f 40/71/34 30/72/32 9/73/12 39/74/35
f 17/75/36 25/76/18 22/77/20
f 1/14/14 11/41/26 15/40/27
f 38/78/37 1/79/14 16/80/38 35/81/39
f 23/47/8 4/49/1 30/72/32
f 24/82/19 14/83/22 22/48/20
f 37/84/40 34/85/41 17/86/36
f 11/41/26 1/14/14 5/13/13
f 22/48/20 14/83/22 4/49/1
f 13/68/16 8/87/24 7/60/31
f 19/30/25 27/88/29 6/28/23
f 7/54/31 27/89/29 29/55/21
f 31/11/11 39/90/35 9/12/12
f 14/83/22 28/57/30 21/91/2
f 13/68/16 7/60/31 26/69/5
f 19/92/25 21/91/2 28/57/30
f 10/93/33 3/42/28 11/33/26
f 20/94/6 29/36/21 25/38/18
f 17/95/36 22/96/20 23/97/8
f 12/98/4 3/67/28 26/69/5
f 15/50/27 25/99/18 16/100/38
f 29/44/21 20/6/6 26/101/5
f 28/102/30 14/27/22 29/26/21
f 2/15/3 1/14/14 4/66/1
f 41/103/42 35/81/39 16/80/38
f 25/104/18 17/105/36 16/106/38
f 13/68/16 18/107/17 8/87/24
f 42/108/9 23/47/8 44/109/43
f 21/2/2 4/1/1 14/110/22
f 15/40/27 16/111/38 1/14/14
f 13/32/16 10/112/33 11/33/26
f 7/60/31 8/113/24 6/61/23
f 19/114/25 8/115/24 18/116/17
f 23/47/8 30/72/32 40/71/34 44/109/43
f 1/117/14 38/118/37 45/119/44 30/120/32
f 9/121/12 30/122/32 45/123/44 36/124/15
f 17/125/36 34/126/41 41/127/42 16/128/38
f 23/8/8 43/7/7 33/129/45
f 17/130/36 23/97/8 33/131/45 37/132/40
f 41/103/42 34/85/41 37/132/40 33/129/45 43/7/7 42/108/9 44/109/43 40/71/34 39/90/35 31/11/11 32/10/10 36/124/15 45/119/44 38/78/37 35/81/39
