# Blender v2.79 (sub 0) OBJ File: 'aktuell.blend'
# www.blender.org
mtllib Textured_mesh_1.mtl
o ML_Tarsus_R_Textured_mesh_1.017
v 0.088364 -0.012526 -0.018330
v 0.066107 -0.011470 0.005798
v 0.159496 -0.002107 0.021443
v 0.121878 0.024355 -0.003704
v 0.213094 -0.009874 0.012462
v 0.038376 0.027576 -0.002019
v 0.072858 -0.003968 0.017972
v 0.016088 -0.011656 0.010733
v 0.176118 0.009131 -0.031596
v 0.232986 0.012532 -0.009721
v 0.133978 -0.010631 0.002058
v 0.124349 0.006472 0.014812
v 0.034992 0.007177 0.031493
v 0.057673 -0.000288 -0.015651
v 0.078864 -0.006276 -0.030606
v 0.183680 0.023738 -0.003652
v 0.067199 0.017209 0.005736
v 0.183507 -0.008135 0.016240
v 0.070732 0.026054 -0.025218
v 0.210850 0.006023 0.017136
v 0.138626 0.024405 -0.032085
v 0.126810 0.006688 -0.030477
v 0.025724 -0.014615 -0.011699
v 0.214351 0.027125 0.000907
v 0.150034 0.036892 -0.017365
v 0.143286 -0.007435 -0.016313
v 0.182865 -0.005573 -0.016465
v 0.081038 0.033996 -0.018119
v 0.228532 -0.014856 0.006323
v 0.213521 -0.009853 0.018430
v 0.218040 0.022889 0.014372
v 0.229281 -0.015393 0.005722
v 0.211263 0.004786 0.020084
v 0.230255 -0.015506 0.004934
v 0.237756 0.013140 -0.001491
v 0.212462 0.007586 0.019078
v 0.231235 -0.013440 0.004115
v 0.229204 0.014370 0.005426
v 0.230377 -0.015360 0.004833
v 0.015349 -0.006605 0.027526
v 0.015325 -0.005150 0.028347
v 0.015460 -0.010709 0.014036
v 0.015076 0.014840 0.015400
v 0.015357 -0.006948 0.026891
v 0.015131 0.008420 0.026132
v 0.015490 -0.011803 0.010378
v 0.015331 0.003736 -0.009000
v 0.015389 0.000207 -0.010444
v 0.014993 0.025249 -0.004181
v 0.014972 0.024480 0.004643
v 0.015445 -0.003516 -0.010446
v 0.015486 -0.011626 0.010825
v 0.015472 -0.009879 0.007635
v -0.045862 0.010858 0.003820
v -0.183365 0.010630 0.024008
v -0.024323 -0.009641 0.016959
v -0.040925 -0.006746 -0.002273
v -0.019573 -0.020455 -0.010400
v -0.145336 -0.051436 0.012218
v -0.169359 -0.062447 0.012289
v -0.162485 -0.029498 -0.018452
v -0.058758 0.012990 0.019726
v -0.030563 0.005741 0.017660
v 0.012818 -0.006721 0.027947
v 0.004543 0.009083 0.023274
v -0.049720 -0.014451 0.022209
v -0.166130 0.025834 0.038403
v -0.168221 0.001699 0.027239
v -0.033856 0.005650 -0.020530
v -0.166910 0.014793 -0.012306
v -0.182871 -0.029983 0.025122
v -0.150301 0.028112 0.002763
v -0.182476 0.026480 0.010187
v -0.113131 0.008309 0.018176
v -0.101413 -0.010011 0.026649
v -0.116831 -0.032013 0.002437
v -0.084018 -0.033400 -0.007178
v -0.127684 0.011322 0.011304
v 0.011959 0.000247 -0.010022
v -0.080531 -0.017035 -0.013193
v -0.099592 0.000760 -0.019299
v -0.182637 -0.013070 -0.013314
v -0.133264 -0.024301 0.005283
v -0.146529 -0.046827 -0.006089
v -0.020412 0.021727 -0.007454
v -0.113480 0.012771 -0.003460
v -0.008287 0.021403 0.011264
v -0.083157 0.023253 0.002160
v -0.174081 -0.055844 0.003624
v -0.193963 0.030853 0.020288
v 0.015349 -0.006605 0.027526
v 0.015325 -0.005150 0.028347
v 0.015461 -0.010709 0.014036
v 0.015076 0.014840 0.015400
v 0.015357 -0.006948 0.026891
v 0.015131 0.008420 0.026132
v 0.015491 -0.011803 0.010378
v 0.015331 0.003736 -0.009000
v 0.015389 0.000207 -0.010444
v 0.014994 0.025249 -0.004181
v 0.014972 0.024480 0.004643
v 0.015445 -0.003516 -0.010446
v 0.015486 -0.011626 0.010825
v 0.015472 -0.009879 0.007635
vt 0.444063 0.334133
vt 0.437673 0.336368
vt 0.445374 0.331047
vt 0.273580 0.156522
vt 0.276003 0.151725
vt 0.277621 0.155320
vt 0.273872 0.156484
vt 0.449823 0.331263
vt 0.022013 0.063107
vt 0.021594 0.060185
vt 0.023835 0.059752
vt 0.714793 0.226859
vt 0.714327 0.226632
vt 0.714977 0.226619
vt 0.449200 0.547741
vt 0.445613 0.548462
vt 0.446962 0.545179
vt 0.005372 0.024929
vt 0.006888 0.020367
vt 0.007902 0.025084
vt 0.106586 0.012535
vt 0.102852 0.015306
vt 0.102798 0.011913
vt 0.553848 0.690943
vt 0.556201 0.685053
vt 0.556537 0.688294
vt 0.276915 0.799105
vt 0.277206 0.802808
vt 0.275368 0.800830
vt 0.239604 0.698865
vt 0.238408 0.702489
vt 0.235729 0.700671
vt 0.454491 0.538486
vt 0.460305 0.536211
vt 0.461707 0.538826
vt 0.204015 0.622830
vt 0.205396 0.622667
vt 0.204178 0.624321
vt 0.553336 0.685513
vt 0.232470 0.709240
vt 0.235025 0.708928
vt 0.233921 0.710997
vt 0.319273 0.742970
vt 0.315536 0.747124
vt 0.315238 0.744409
vt 0.456616 0.541614
vt 0.448277 0.541799
vt 0.246411 0.697228
vt 0.244391 0.697964
vt 0.246964 0.696238
vt 0.245026 0.694299
vt 0.244705 0.694146
vt 0.131021 0.951869
vt 0.131622 0.947980
vt 0.133912 0.950526
vt 0.009388 0.022241
vt 0.453909 0.328777
vt 0.254958 0.125500
vt 0.255426 0.125306
vt 0.255453 0.125312
vt 0.252745 0.546671
vt 0.257211 0.548275
vt 0.256820 0.550970
vt 0.456049 0.330238
vt 0.453068 0.330727
vt 0.438142 0.330731
vt 0.241360 0.701645
vt 0.134187 0.948466
vt 0.238029 0.705161
vt 0.232874 0.706781
vt 0.547537 0.936212
vt 0.541858 0.932676
vt 0.545668 0.933753
vt 0.434982 0.334011
vt 0.452268 0.328340
vt 0.469068 0.539127
vt 0.469082 0.539095
vt 0.255708 0.544867
vt 0.679660 0.815629
vt 0.682395 0.811826
vt 0.681889 0.814284
vt 0.638007 0.443757
vt 0.638193 0.443807
vt 0.638141 0.443852
vt 0.887496 0.177157
vt 0.886181 0.177059
vt 0.888142 0.175325
vt 0.888280 0.175590
vt 0.024525 0.055995
vt 0.450222 0.543132
vt 0.459067 0.543919
vt 0.027339 0.058902
vt 0.024738 0.060436
vt 0.027418 0.057434
vt 0.461227 0.325419
vt 0.456972 0.329785
vt 0.428302 0.337249
vt 0.430230 0.334227
vt 0.230886 0.709794
vt 0.097335 0.018963
vt 0.098727 0.019778
vt 0.104536 0.008804
vt 0.247194 0.542827
vt 0.250504 0.544412
vt 0.250789 0.546887
vt 0.883759 0.172601
vt 0.835310 0.907396
vt 0.834255 0.908621
vt 0.833717 0.906654
vt 0.249516 0.540135
vt 0.097796 0.014260
vt 0.099493 0.012598
vt 0.277868 0.155937
vt 0.005849 0.026558
vt 0.004912 0.025711
vt 0.828389 0.229323
vt 0.830771 0.224838
vt 0.832308 0.231131
vt 0.832185 0.231168
vt 0.007358 0.026968
vt 0.461151 0.328689
vt 0.462184 0.325245
vt 0.461689 0.328336
vt 0.459725 0.323639
vt 0.459266 0.323550
vt 0.003140 0.953962
vt 0.000871 0.954812
vt 0.000890 0.954398
vt 0.001540 0.952524
vt 0.241615 0.694045
vt 0.244232 0.693834
vt 0.606483 0.730687
vt 0.606443 0.730680
vt 0.606451 0.730624
vt 0.430860 0.339444
vt 0.428753 0.337723
vt 0.430950 0.339575
vt 0.406245 0.036701
vt 0.404255 0.035966
vt 0.404201 0.035756
vt 0.408737 0.033120
vt 0.865316 0.958205
vt 0.866565 0.955538
vt 0.867869 0.958563
vt 0.430950 0.339575
vt 0.430654 0.339716
vt 0.430860 0.339444
vt 0.268978 0.685317
vt 0.269359 0.681584
vt 0.272935 0.683721
vt 0.870019 0.456080
vt 0.873689 0.458017
vt 0.873092 0.463089
vt 0.179567 0.042994
vt 0.177715 0.044089
vt 0.176391 0.044024
vt 0.244705 0.694146
vt 0.244232 0.693834
vt 0.245119 0.693763
vt 0.790949 0.651618
vt 0.786537 0.653832
vt 0.785239 0.653650
vt 0.233594 0.887816
vt 0.230957 0.888504
vt 0.231547 0.885967
vt 0.868202 0.952978
vt 0.863507 0.952553
vt 0.865378 0.948854
vt 0.030042 0.055936
vt 0.032559 0.057750
vt 0.028725 0.058084
vt 0.272269 0.687176
vt 0.270346 0.687421
vt 0.254482 0.691688
vt 0.251278 0.690194
vt 0.254295 0.690154
vt 0.256211 0.685166
vt 0.259843 0.685120
vt 0.610599 0.115878
vt 0.609856 0.118561
vt 0.607184 0.118535
vt 0.263145 0.686224
vt 0.263825 0.687905
vt 0.259798 0.689973
vt 0.213793 0.205697
vt 0.213040 0.208576
vt 0.210598 0.205527
vt 0.902547 0.115624
vt 0.906552 0.115148
vt 0.904439 0.116070
vt 0.648296 0.281446
vt 0.649812 0.278361
vt 0.650447 0.283012
vt 0.391033 0.043611
vt 0.394152 0.041850
vt 0.393033 0.043322
vt 0.288332 0.128106
vt 0.287593 0.125685
vt 0.292153 0.129131
vt 0.954203 0.146427
vt 0.954608 0.144063
vt 0.957870 0.146687
vt 0.606443 0.730680
vt 0.603830 0.730227
vt 0.604576 0.726940
vt 0.606451 0.730624
vt 0.595444 0.339286
vt 0.594794 0.334314
vt 0.599125 0.336312
vt 0.799368 0.268620
vt 0.802292 0.265413
vt 0.803477 0.269318
vt 0.250859 0.693623
vt 0.808385 0.268182
vt 0.808864 0.269200
vt 0.492298 0.748023
vt 0.488298 0.749262
vt 0.488915 0.747592
vt 0.404958 0.233832
vt 0.404703 0.237010
vt 0.403035 0.234014
vt 0.212443 0.209687
vt 0.208779 0.208786
vt 0.592609 0.638477
vt 0.594484 0.639613
vt 0.592101 0.642690
vt 0.788343 0.035528
vt 0.792328 0.032450
vt 0.792318 0.034455
vt 0.810364 0.466714
vt 0.810332 0.468535
vt 0.808030 0.466857
vt 0.805400 0.266300
vt 0.138309 0.596826
vt 0.141195 0.596708
vt 0.140255 0.598966
vt 0.653603 0.207980
vt 0.655654 0.211078
vt 0.650614 0.211643
vt 0.002875 0.106867
vt 0.001394 0.105064
vt 0.007158 0.104391
vt 0.295342 0.131804
vt 0.292204 0.133541
vt 0.108182 0.335381
vt 0.107454 0.339971
vt 0.106712 0.336559
vt 0.397726 0.041283
vt 0.394434 0.042886
vt 0.930107 0.133149
vt 0.931376 0.132764
vt 0.934910 0.136861
vt 0.600780 0.197212
vt 0.601670 0.195385
vt 0.603170 0.197517
vt 0.653830 0.213732
vt 0.646375 0.213207
vt 0.428753 0.337723
vt 0.387560 0.046267
vt 0.390506 0.046255
vt 0.387957 0.049787
vt 0.402569 0.038953
vt 0.399469 0.040036
vt 0.404001 0.035872
vt 0.257747 0.692218
vt 0.153354 0.552904
vt 0.153946 0.551021
vt 0.155306 0.553413
vt 0.227177 0.886404
vt 0.229841 0.887787
vt 0.015755 0.100352
vt 0.014195 0.102452
vt 0.010330 0.100432
vt 0.001540 0.952524
vt 0.000890 0.954398
vt 0.000997 0.952036
vt 0.401488 0.228928
vt 0.399694 0.230994
vt 0.264732 0.680152
vt 0.932962 0.139342
vt 0.486835 0.747164
vt 0.424191 0.341987
vt 0.424742 0.338914
vt 0.426766 0.342142
vt 0.505980 0.238997
vt 0.503473 0.238444
vt 0.504276 0.235766
vt 0.211597 0.210729
vt 0.209660 0.211942
vt 0.404255 0.035966
vt 0.404201 0.035756
vt 0.264424 0.686673
vt 0.813053 0.660483
vt 0.816001 0.664787
vt 0.813557 0.663536
vt 0.912833 0.113966
vt 0.914706 0.114071
vt 0.911454 0.115885
vt 0.248419 0.696496
vt 0.246411 0.697228
vt 0.246964 0.696238
vt 0.245026 0.694299
vt 0.636947 0.443474
vt 0.638007 0.443757
vt 0.638141 0.443852
vt 0.635070 0.446468
vt 0.203853 0.621348
vt 0.205947 0.621919
vt 0.205396 0.622667
vt 0.204015 0.622830
vt 0.027339 0.058902
vt 0.027418 0.057434
vt 0.252874 0.126293
vt 0.253615 0.124912
vt 0.255426 0.125306
vt 0.254958 0.125500
vt 0.835445 0.907240
vt 0.835310 0.907396
vt 0.833717 0.906654
vt 0.833430 0.905605
vn 0.1569 0.3220 0.9337
vn -0.3612 -0.2211 0.9059
vn 0.0641 -0.9802 0.1875
vn 0.6673 -0.7396 0.0881
vn 0.0746 0.2348 -0.9692
vn 0.2432 0.3288 -0.9126
vn 0.9952 -0.0882 -0.0421
vn 0.0810 -0.1820 0.9800
vn 0.3352 0.8102 0.4808
vn 0.1305 0.5269 0.8399
vn 0.0399 0.5217 0.8522
vn -0.6165 0.4114 0.6714
vn -0.4800 -0.1369 0.8665
vn 0.3793 -0.9249 0.0255
vn -0.5253 -0.6954 -0.4903
vn -0.3771 0.0809 -0.9226
vn 0.0765 0.9845 0.1580
vn -0.0017 0.8232 0.5677
vn 0.2747 -0.3230 -0.9056
vn -0.7747 0.2452 -0.5829
vn -0.4662 0.8760 -0.1237
vn 0.0424 -0.8979 -0.4382
vn 0.1551 -0.9332 -0.3241
vn -0.0970 -0.5874 -0.8035
vn -0.6649 0.7391 0.1080
vn -0.8405 0.4504 0.3012
vn 0.2719 0.9623 0.0084
vn -0.0067 0.6781 -0.7350
vn 0.2162 0.9574 0.1913
vn 0.2841 0.9499 0.1300
vn -0.3515 0.6772 -0.6464
vn -0.7640 -0.0192 -0.6450
vn -0.7352 -0.1783 -0.6540
vn 0.0461 -0.9745 -0.2197
vn 0.1408 -0.8030 0.5792
vn -0.7806 -0.5879 0.2124
vn -0.7987 -0.4315 0.4193
vn 0.0607 -0.9975 0.0368
vn 0.4650 -0.8410 0.2765
vn -0.8703 -0.4081 -0.2759
vn -0.5148 -0.8530 -0.0859
vn 0.3012 0.6186 0.7257
vn -0.7211 0.5621 0.4050
vn -0.5415 -0.7104 0.4495
vn -0.7357 -0.3725 0.5657
vn 0.6629 0.7357 0.1388
vn 0.4544 0.4419 0.7734
vn 0.4390 -0.6375 0.6331
vn -0.3643 -0.7671 0.5280
vn 0.6091 -0.4601 0.6460
vn -0.7610 0.0581 -0.6461
vn -0.7091 -0.5136 0.4831
vn -0.7631 -0.1568 0.6269
vn 0.2442 0.9444 -0.2203
vn 0.0171 0.6773 0.7355
vn -0.2739 0.1399 0.9515
vn 0.7818 -0.1597 0.6028
vn -0.1427 -0.7254 0.6734
vn 0.8207 -0.5697 0.0445
vn 0.4040 0.9102 -0.0908
vn -0.1926 0.6815 -0.7060
vn -0.6668 0.4430 -0.5992
vn -0.2437 -0.9695 0.0264
vn 0.0660 -0.7631 -0.6429
vn 0.5794 -0.3554 0.7335
vn 0.2188 -0.0930 0.9713
vn 0.3102 -0.7987 0.5157
vn 0.6232 0.4678 -0.6267
vn 0.3419 -0.8425 -0.4163
vn -0.1259 -0.0091 -0.9920
vn -0.7017 -0.3025 0.6451
vn 0.1569 -0.1603 0.9745
vn -0.8090 0.0933 0.5804
vn 0.2715 -0.1068 -0.9565
vn -0.2695 -0.5959 -0.7565
vn -0.3320 -0.0757 0.9402
vn 0.3235 0.8709 0.3699
vn -0.3751 0.6924 0.6163
vn -0.2705 0.8771 0.3969
vn -0.1303 0.3407 0.9311
vn 0.2823 -0.0226 0.9591
vn 0.5945 0.3097 0.7421
vn -0.3936 0.4328 -0.8110
vn 0.0160 -0.8594 -0.5111
vn 0.0373 0.5243 -0.8507
vn 0.1110 0.9589 -0.2610
vn -0.6215 -0.5361 0.5712
vn -0.8690 -0.0488 -0.4924
vn 0.0727 -0.9315 -0.3565
vn 0.6916 -0.6987 -0.1829
vn 0.7280 -0.6789 -0.0956
vn -0.0821 0.9604 -0.2664
vn -0.8857 -0.3758 -0.2727
vn 0.1416 -0.8861 0.4414
vn -0.8054 0.1564 0.5717
vn 0.3708 -0.7389 -0.5626
vn 0.8122 -0.5656 0.1427
vn 0.7652 -0.5906 -0.2560
vn 0.6080 0.2050 0.7670
vn 0.7294 0.5721 0.3752
vn 0.6959 0.6838 -0.2193
vn 0.7216 0.4021 -0.5635
vn 0.5941 0.5327 0.6028
vn 0.3733 0.4108 0.8318
usemtl Textured_mesh_1
s 1
f 12/1/1 7/2/2 11/3/3
f 39/4/4 9/5/5 10/6/6 37/7/7
f 3/8/8 12/1/1 11/3/3
f 7/9/2 17/10/9 13/11/10
f 36/12/11 20/13/12 33/14/13
f 2/15/14 23/16/15 14/17/16
f 10/18/6 9/19/5 24/20/17
f 7/21/2 12/22/1 4/23/18
f 22/24/19 19/25/20 28/26/21
f 22/27/19 27/28/22 26/29/23
f 14/30/16 19/31/20 15/32/24
f 22/33/19 9/34/5 27/35/22
f 50/36/25 43/37/26 6/38/27
f 22/24/19 15/39/24 19/25/20
f 21/40/28 4/41/18 25/42/29
f 3/43/8 24/44/17 16/45/30
f 22/33/19 26/46/23 15/47/24
f 50/48/25 6/49/27 49/50/31
f 47/51/32 6/49/27 14/30/16 48/52/33
f 47/51/32 49/50/31 6/49/27
f 2/53/14 14/54/16 1/55/34
f 9/19/5 16/56/30 24/20/17
f 11/3/3 18/57/35 3/8/8
f 42/58/36 52/59/37 8/60/38
f 25/61/29 16/62/30 9/63/5
f 20/64/12 3/65/8 18/57/35
f 7/2/2 1/66/34 11/3/3
f 6/49/27 17/67/9 14/30/16
f 1/55/34 14/54/16 15/68/24
f 28/69/21 21/40/28 22/70/19
f 27/71/22 11/72/3 26/73/23
f 1/66/34 7/2/2 2/74/14
f 27/75/22 18/57/35 11/3/3
f 34/76/39 27/35/22 9/34/5 39/77/4
f 16/62/30 25/61/29 12/78/1
f 9/79/5 21/80/28 25/81/29
f 53/82/40 8/83/38 46/84/41
f 31/85/42 24/86/17 20/87/12 36/88/11
f 6/89/27 13/11/10 17/10/9
f 15/47/24 26/46/23 1/90/34
f 26/46/23 11/91/3 1/90/34
f 45/92/43 13/93/10 6/89/27 43/94/26
f 5/95/44 20/96/12 18/57/35
f 8/97/38 23/98/15 2/74/14
f 9/99/5 22/70/19 21/40/28
f 16/100/30 12/22/1 3/101/8
f 7/21/2 4/23/18 17/102/9
f 28/103/21 4/104/18 21/105/28
f 17/67/9 28/69/21 19/31/20
f 19/31/20 14/30/16 17/67/9
f 3/106/8 20/87/12 24/86/17
f 41/107/45 13/108/10 45/109/43
f 28/103/21 17/110/9 4/104/18
f 25/111/29 4/112/18 12/22/1
f 10/6/6 35/113/46 37/7/7
f 10/18/6 38/114/47 35/115/46
f 18/116/35 27/117/22 34/118/39 32/119/48
f 10/18/6 24/20/17 31/120/42 38/114/47
f 20/121/12 5/95/44 30/122/49 33/123/13
f 5/95/44 29/124/50 30/122/49
f 5/95/44 18/57/35 32/125/48 29/124/50
f 38/114/47 36/88/11 29/124/50
f 23/126/15 8/127/38 53/128/40 51/129/51
f 14/30/16 23/130/15 51/131/51 48/52/33
f 8/132/38 52/133/37 46/134/41
f 2/74/14 44/135/52 42/136/36 8/97/38
f 7/2/2 40/137/53 44/135/52 2/74/14
f 13/138/10 41/139/45 40/140/53 7/141/2
f 51/131/51 53/82/40 46/134/41 52/59/37 42/136/36 44/135/52 40/140/53 41/107/45 45/92/43 43/37/26 50/48/25 49/50/31 47/51/32 48/52/33
f 54/142/54 62/143/55 63/144/56
f 91/145/57 64/146/58 95/147/59
f 72/148/60 70/149/61 73/150/62
f 76/151/63 77/152/64 66/153/65
f 76/154/63 83/155/66 59/156/67
f 99/157/68 102/158/69 79/159/70
f 71/160/71 68/161/72 55/162/73
f 80/163/74 76/164/63 61/165/75
f 75/166/76 88/167/77 74/168/78
f 87/169/79 63/170/56 65/171/80
f 67/172/81 78/173/82 72/148/60
f 54/174/54 69/175/83 57/176/84
f 80/177/74 81/178/85 57/176/84
f 66/179/65 62/180/55 75/181/76
f 72/148/60 73/150/62 67/172/81
f 86/182/86 74/183/78 88/184/77
f 66/185/65 75/186/76 76/187/63
f 86/188/86 72/189/60 78/190/82
f 68/191/72 78/192/82 67/193/81
f 81/178/85 70/149/61 86/182/86
f 66/194/65 56/195/87 63/196/56
f 82/197/88 70/198/61 61/199/75
f 57/200/84 69/201/83 58/202/89
f 103/203/90 56/204/87 58/205/89 97/206/91
f 73/207/62 82/208/88 55/209/73
f 55/210/73 82/211/88 71/212/71
f 69/175/83 54/174/54 85/213/92
f 89/214/93 60/215/94 71/212/71
f 68/216/72 67/217/81 55/218/73
f 55/219/73 90/220/95 73/221/62
f 76/187/63 75/222/76 83/223/66
f 83/224/66 78/225/82 68/226/72
f 76/227/63 80/228/74 77/229/64
f 57/230/84 56/231/87 66/232/65
f 71/212/71 82/211/88 89/233/93
f 54/234/54 63/235/56 87/236/79
f 60/237/94 59/238/67 71/239/71
f 85/213/92 79/159/70 69/175/83
f 60/240/94 89/241/93 84/242/96
f 84/243/96 89/244/93 61/199/75
f 59/245/67 60/246/94 84/247/96
f 56/195/87 65/248/80 63/249/56
f 77/250/64 80/251/74 57/252/84
f 85/253/92 54/254/54 87/255/79
f 83/256/66 68/257/72 71/239/71
f 95/147/59 64/146/58 93/258/97
f 75/259/76 62/260/55 88/261/77
f 65/262/80 56/263/87 64/264/58
f 62/265/55 54/174/54 88/184/77
f 72/148/60 86/182/86 70/149/61
f 58/266/89 69/267/83 79/268/70
f 84/269/96 61/165/75 76/270/63
f 88/184/77 81/178/85 86/182/86
f 81/178/85 54/174/54 57/176/84
f 81/271/85 80/272/74 61/273/75
f 102/274/69 104/275/98 79/276/70
f 89/244/93 82/197/88 61/199/75
f 82/277/88 73/221/62 70/278/61
f 81/178/85 61/279/75 70/149/61
f 57/252/84 66/280/65 77/250/64
f 88/184/77 54/174/54 81/178/85
f 67/217/81 90/281/95 55/218/73
f 57/282/84 58/283/89 56/284/87
f 83/256/66 71/239/71 59/238/67
f 59/285/67 84/286/96 76/287/63
f 83/223/66 75/288/76 78/289/82
f 92/290/99 64/264/58 91/291/57
f 74/183/78 86/182/86 78/292/82
f 78/293/82 75/294/76 74/295/78
f 73/296/62 90/297/95 67/298/81
f 63/196/56 62/260/55 66/194/65
f 87/299/79 101/300/100 100/301/101 85/213/92
f 79/159/70 98/302/102 99/157/68
f 79/159/70 85/213/92 100/301/101 98/302/102
f 79/303/70 104/304/98 97/305/91 58/306/89
f 87/307/79 65/308/80 94/309/103 101/310/100
f 65/171/80 96/311/104 94/312/103
f 64/313/58 56/314/87 103/315/90 93/316/97
f 64/317/58 92/318/99 96/319/104 65/320/80
f 99/157/68 98/302/102 100/301/101 101/300/100 94/309/103 96/311/104 92/318/99 91/291/57 95/147/59 93/258/97 103/315/90 97/206/91 104/304/98 102/274/69
f 39/77/4 37/7/7 32/125/48
f 37/7/7 35/113/46 38/114/47
f 38/114/47 31/120/42 36/88/11
f 37/7/7 38/114/47 29/124/50
f 32/125/48 34/118/39 39/77/4
f 33/14/13 30/122/49 36/88/11
f 30/122/49 29/124/50 36/88/11
f 29/124/50 32/125/48 37/7/7
