# Blender v2.79 (sub 0) OBJ File: 'aktuell.blend'
# www.blender.org
mtllib Textured_mesh_1.mtl
o HL_CT_R_Textured_mesh_1.026
v 0.033059 -0.040129 -0.058580
v 0.049884 0.036964 -0.061865
v -0.044704 0.018756 0.043125
v -0.055451 0.045126 0.009077
v -0.034635 -0.051655 -0.008531
v -0.052394 -0.010657 -0.053110
v 0.046436 -0.044529 0.048890
v 0.020989 -0.039572 0.062755
v 0.051933 0.031248 0.079790
v -0.022184 0.048856 -0.026613
v -0.028049 0.009206 -0.059833
v -0.015638 0.030573 -0.063577
v -0.003721 -0.002401 0.079117
v 0.051431 -0.020832 0.074755
v 0.013811 -0.052126 0.012754
v -0.068702 -0.027646 -0.038357
v -0.020027 -0.029063 -0.061924
v -0.041833 0.027709 -0.040005
v -0.005674 0.045879 0.044335
v -0.033924 -0.021591 -0.047885
v -0.074130 -0.014150 0.031892
v -0.016772 -0.029621 0.058527
v 0.004992 0.028036 -0.066687
v -0.044961 0.048091 0.017860
v -0.030093 0.050979 0.004617
v -0.065423 0.042141 0.001020
v -0.020684 0.031664 0.050705
v 0.050885 0.052961 0.049613
v -0.061455 -0.039260 0.003446
v -0.005900 -0.004202 -0.077680
v -0.061213 0.004576 -0.052110
v -0.024160 -0.044806 0.034577
v 0.041561 -0.020401 -0.080174
v 0.056178 -0.056483 0.006736
v -0.050657 0.045710 -0.002695
v 0.056550 -0.006184 -0.082500
v 0.056111 0.018561 -0.072463
v 0.055510 0.052460 0.045348
v 0.055500 0.053032 0.040869
v 0.057481 -0.058669 0.008306
v 0.056847 -0.022938 -0.078225
v 0.057636 -0.067394 0.054533
v 0.055506 0.052699 0.049372
v 0.056716 -0.015530 0.081951
v 0.055511 0.052408 0.055394
v 0.057426 -0.055574 0.003971
v 0.057241 -0.045109 -0.032839
v 0.055778 0.037364 -0.060679
v 0.057299 -0.048410 -0.013851
v 0.057335 -0.050409 0.065657
v 0.056835 -0.022222 0.081721
v 0.055795 0.036422 -0.062825
v 0.055533 0.051188 0.007410
v 0.055856 0.032970 -0.066077
v 0.055513 0.052288 -0.012794
v 0.055945 0.027974 0.084637
v 0.055833 0.034245 0.080032
v 0.056455 -0.000818 -0.082919
v 0.057072 -0.035589 -0.064663
v 0.057513 -0.060468 0.029756
v 0.055731 0.040020 -0.051905
v 0.055764 0.038158 -0.058882
v -0.082417 -0.029364 -0.036318
v -0.082490 -0.033712 0.006228
v -0.082390 -0.036417 -0.012159
v -0.083282 0.028082 -0.033118
v -0.082954 -0.007655 0.030194
v -0.083297 0.028806 -0.031666
v -0.083462 0.031551 0.006924
v -0.082580 -0.017020 -0.042625
v -0.083305 0.029092 -0.030478
v -0.082526 -0.031895 0.009160
v -0.082807 -0.000219 -0.049728
v -0.083301 0.028937 -0.030932
v -0.083258 0.026676 -0.034046
v -0.083363 0.022860 0.016125
v -0.083249 0.011756 0.032096
v -0.082851 -0.014571 0.030062
vt 0.805739 0.813040
vt 0.803263 0.816206
vt 0.800387 0.813576
vt 0.133137 0.526978
vt 0.133118 0.526853
vt 0.133757 0.526926
vt 0.227696 0.370334
vt 0.223273 0.366904
vt 0.228539 0.367788
vt 0.340836 0.811276
vt 0.337639 0.804971
vt 0.340715 0.802566
vt 0.214137 0.127625
vt 0.214972 0.126813
vt 0.218997 0.132120
vt 0.533966 0.971912
vt 0.531005 0.973917
vt 0.532089 0.969335
vt 0.806362 0.811243
vt 0.678193 0.753294
vt 0.153484 0.524011
vt 0.153347 0.523867
vt 0.153297 0.523725
vt 0.236253 0.366064
vt 0.330631 0.812363
vt 0.332239 0.813293
vt 0.333400 0.815282
vt 0.573374 0.614351
vt 0.631764 0.602435
vt 0.633759 0.603118
vt 0.672906 0.550469
vt 0.017074 0.722279
vt 0.484521 0.523413
vt 0.481945 0.526292
vt 0.484880 0.521959
vt 0.333396 0.811809
vt 0.796312 0.812671
vt 0.801963 0.808098
vt 0.902864 0.979137
vt 0.899442 0.976619
vt 0.899525 0.970966
vt 0.649872 0.040451
vt 0.645462 0.037855
vt 0.649705 0.034913
vt 0.597806 0.352425
vt 0.595052 0.351577
vt 0.596247 0.347689
vt 0.146134 0.223408
vt 0.146458 0.223223
vt 0.145907 0.223925
vt 0.335775 0.800733
vt 0.333070 0.803307
vt 0.333797 0.805688
vt 0.959437 0.851091
vt 0.961233 0.849887
vt 0.960082 0.853572
vt 0.339821 0.798236
vt 0.337956 0.795896
vt 0.341548 0.793221
vt 0.118060 0.352993
vt 0.117897 0.353074
vt 0.117637 0.352386
vt 0.224372 0.364534
vt 0.231839 0.365372
vt 0.642821 0.605013
vt 0.638352 0.605245
vt 0.645476 0.599286
vt 0.795713 0.809400
vt 0.241386 0.273499
vt 0.240240 0.277240
vt 0.238805 0.275765
vt 0.347951 0.800234
vt 0.714452 0.144378
vt 0.721527 0.145381
vt 0.714293 0.149990
vt 0.337225 0.797299
vt 0.134096 0.527307
vt 0.133330 0.527092
vt 0.102738 0.344284
vt 0.104553 0.342141
vt 0.106339 0.343978
vt 0.220242 0.128031
vt 0.219303 0.122001
vt 0.223823 0.126831
vt 0.881088 0.382994
vt 0.877751 0.384529
vt 0.878596 0.380169
vt 0.336063 0.814560
vt 0.138268 0.526296
vt 0.144925 0.527938
vt 0.688191 0.994003
vt 0.688673 0.989193
vt 0.689922 0.991453
vt 0.153444 0.524006
vt 0.150446 0.527390
vt 0.146697 0.523969
vt 0.634004 0.602967
vt 0.637629 0.599776
vt 0.802914 0.807463
vt 0.724746 0.748811
vt 0.718718 0.747187
vt 0.721859 0.745160
vt 0.476107 0.271406
vt 0.475672 0.271843
vt 0.475285 0.269093
vt 0.475919 0.269031
vt 0.631388 0.601744
vt 0.056607 0.715521
vt 0.054593 0.718818
vt 0.054019 0.715359
vt 0.691000 0.991030
vt 0.693198 0.991798
vt 0.786845 0.811415
vt 0.800768 0.805631
vt 0.217719 0.125575
vt 0.235718 0.368197
vt 0.141713 0.526782
vt 0.900091 0.977910
vt 0.902885 0.979869
vt 0.223394 0.361584
vt 0.352575 0.805570
vt 0.352528 0.806062
vt 0.346867 0.808636
vt 0.351734 0.802707
vt 0.482978 0.523582
vt 0.657156 0.324042
vt 0.653425 0.326438
vt 0.651625 0.325773
vt 0.280786 0.215348
vt 0.283555 0.216086
vt 0.281000 0.221022
vt 0.352944 0.806325
vt 0.195864 0.254952
vt 0.197903 0.255201
vt 0.195822 0.260221
vt 0.195698 0.259408
vt 0.346704 0.793638
vt 0.346668 0.795879
vt 0.346104 0.793229
vt 0.278621 0.221166
vt 0.652782 0.598745
vt 0.651999 0.598577
vt 0.652913 0.598299
vt 0.185586 0.032502
vt 0.187759 0.031225
vt 0.190492 0.037972
vt 0.722363 0.150057
vt 0.725759 0.146054
vt 0.243008 0.275393
vt 0.244174 0.279285
vt 0.018261 0.721880
vt 0.018862 0.722111
vt 0.017550 0.724035
vt 0.137919 0.528721
vt 0.195754 0.253805
vt 0.198011 0.250678
vt 0.196139 0.715185
vt 0.199347 0.714777
vt 0.197010 0.716428
vt 0.351386 0.800869
vt 0.349750 0.797449
vt 0.476095 0.268346
vt 0.651785 0.038676
vt 0.650506 0.034116
vt 0.652025 0.036086
vt 0.234501 0.275256
vt 0.235008 0.275187
vt 0.117290 0.352886
vt 0.195672 0.260340
vt 0.344213 0.791912
vt 0.345444 0.792319
vt 0.344705 0.791467
vt 0.724593 0.362710
vt 0.722512 0.363578
vt 0.723960 0.362544
vt 0.803647 0.808207
vt 0.805101 0.808566
vt 0.806969 0.809555
vt 0.331758 0.809781
vt 0.329215 0.811615
vt 0.152733 0.526781
vt 0.151447 0.527510
vt 0.153500 0.524047
vt 0.153510 0.524071
vt 0.672922 0.551254
vt 0.673360 0.550967
vt 0.149050 0.521561
vt 0.630982 0.602902
vt 0.572275 0.613318
vt 0.571635 0.614306
vn -0.8476 0.4435 0.2913
vn -0.7971 0.1471 0.5857
vn -0.3776 0.3141 0.8711
vn 0.1712 0.9508 -0.2583
vn 0.7600 0.4268 -0.4901
vn -0.1482 0.7189 -0.6791
vn -0.2424 0.9648 -0.1016
vn -0.1980 0.7380 -0.6451
vn -0.3963 0.6806 -0.6162
vn -0.2715 -0.9616 -0.0391
vn -0.5570 -0.4351 -0.7074
vn -0.4342 -0.5100 -0.7426
vn -0.0593 -0.4577 0.8871
vn -0.4151 -0.9034 0.1076
vn -0.4725 -0.4490 0.7583
vn -0.3235 -0.1266 0.9377
vn -0.4054 0.4319 0.8057
vn -0.3284 0.5957 0.7330
vn -0.6988 0.6576 0.2814
vn -0.8676 0.4946 0.0516
vn -0.7518 0.6295 -0.1964
vn -0.7046 0.5903 -0.3938
vn -0.8182 0.3511 -0.4553
vn -0.6926 0.1738 -0.7001
vn -0.6323 -0.2379 -0.7373
vn -0.4367 -0.7526 -0.4929
vn -0.5125 -0.8090 -0.2877
vn -0.7738 -0.6108 0.1677
vn -0.6362 -0.7159 0.2876
vn -0.6499 -0.5952 0.4726
vn -0.7898 -0.2377 0.5654
vn -0.4853 0.7724 0.4098
vn -0.2292 0.9542 -0.1923
vn -0.6655 0.6559 0.3563
vn -0.0546 -0.7870 -0.6145
vn -0.3440 0.8913 0.2952
vn -0.0838 0.9681 0.2361
vn -0.2791 0.9164 0.2868
vn -0.0963 -0.8846 -0.4563
vn -0.2701 0.0938 -0.9583
vn -0.0709 -0.4393 -0.8956
vn -0.0252 -0.8222 0.5686
vn 0.6264 0.2420 -0.7410
vn -0.4790 0.2477 -0.8421
vn -0.2585 0.0222 -0.9658
vn 0.0984 -0.1905 -0.9767
vn -0.4909 -0.8133 0.3125
vn -0.4505 -0.2928 0.8434
vn -0.0903 0.6113 -0.7862
vn 0.3741 0.8006 0.4681
vn 0.6053 0.7019 0.3755
vn 0.2420 -0.9132 0.3278
vn 0.4216 -0.8778 -0.2273
vn -0.0354 -0.9951 0.0923
vn 0.7400 0.6724 0.0174
vn 0.7217 0.6745 -0.1556
vn -0.2819 -0.8532 0.4389
vn -0.2384 0.9333 -0.2685
vn 0.3956 0.0768 0.9152
vn 0.3930 -0.1529 0.9067
vn 0.3716 0.6447 0.6680
vn 0.7105 -0.5676 -0.4159
vn -0.3512 -0.9177 -0.1857
vn 0.7505 -0.5996 -0.2779
vn 0.1301 -0.9881 -0.0826
vn 0.7498 0.6223 -0.2247
vn 0.6992 0.6944 0.1702
vn 0.7367 0.0077 -0.6761
vn 0.5087 0.4351 -0.7429
vn 0.3109 -0.5447 0.7789
vn 0.7326 0.6599 0.1666
vn 0.3875 -0.2153 0.8964
vn 0.7486 -0.6126 -0.2534
vn 0.6571 -0.4467 -0.6072
vn 0.5886 -0.1999 -0.7833
vn 0.8693 0.4355 -0.2337
vn 0.5100 0.5419 -0.6680
vn -0.7762 -0.2222 0.5900
usemtl Textured_mesh_1
s 1
f 76/1/1 77/2/2 3/3/3
f 48/4/4 52/5/5 2/6/6
f 10/7/7 12/8/8 18/9/9
f 5/10/10 20/11/11 17/12/12
f 21/13/13 29/14/14 22/15/15
f 13/16/16 9/17/17 27/18/18
f 76/1/1 69/19/19 74/20/20 68/21/21 66/22/22 75/23/23 73/24/24 70/25/25 63/26/26 65/27/27 64/28/28 72/29/29 78/30/30 67/31/31 77/32/2
f 4/33/32 25/34/33 26/35/34
f 63/26/26 70/25/25 16/36/35
f 3/3/3 27/37/18 24/38/36
f 9/39/17 28/40/37 19/41/38
f 1/42/39 30/43/40 33/44/41
f 13/45/16 22/46/15 8/47/42
f 52/48/5 54/49/43 2/50/6
f 11/51/44 20/11/11 31/52/45
f 31/52/45 20/11/11 6/53/46
f 8/54/42 7/55/47 14/56/48
f 30/57/40 23/58/49 2/59/6
f 45/60/50 43/61/51 28/62/37
f 18/9/9 11/63/44 31/64/45
f 27/65/18 3/66/3 13/67/16
f 24/38/36 27/37/18 19/68/38
f 42/69/52 7/70/47 60/71/53
f 1/72/39 5/10/10 17/12/12
f 1/73/39 15/74/54 5/75/10
f 23/58/49 30/57/40 12/76/8
f 6/53/46 20/11/11 5/10/10
f 61/77/55 62/78/56 2/6/6
f 10/79/7 18/80/9 25/81/33
f 32/82/57 5/83/10 15/84/54
f 8/85/42 22/86/15 32/87/57
f 11/63/44 18/9/9 12/8/8
f 29/88/14 16/36/35 5/10/10
f 17/12/12 20/11/11 30/57/40
f 2/6/6 23/89/49 10/90/7
f 19/91/38 10/92/7 25/93/33
f 68/94/21 35/95/58 18/96/9 66/22/22
f 21/97/13 22/98/15 3/66/3
f 3/3/3 24/38/36 4/99/32
f 13/100/16 14/101/48 9/102/17
f 56/103/59 9/104/17 14/105/48 44/106/60
f 72/29/29 29/107/14 21/97/13 78/30/30
f 8/108/42 14/109/48 13/110/16
f 18/111/9 35/112/58 25/93/33
f 27/37/18 9/113/17 19/68/38
f 4/99/32 24/38/36 25/114/33
f 32/82/57 29/115/14 5/83/10
f 73/24/24 75/116/23 31/64/45
f 10/90/7 23/89/49 12/117/8
f 11/51/44 30/57/40 20/11/11
f 45/118/50 28/40/37 9/39/17 57/119/61
f 30/57/40 1/72/39 17/12/12
f 16/36/35 6/53/46 5/10/10
f 63/26/26 16/36/35 29/88/14 65/27/27
f 30/120/40 11/63/44 12/8/8
f 46/121/62 34/122/63 15/123/54 49/124/64
f 26/35/34 25/34/33 35/125/58
f 16/126/35 31/127/45 6/128/46
f 15/129/54 34/130/63 7/131/47
f 40/132/65 34/122/63 46/121/62
f 53/133/66 19/134/38 28/135/37 39/136/67
f 36/137/68 33/138/41 30/57/40 58/139/69
f 22/15/15 29/14/14 32/82/57
f 7/131/47 8/140/42 15/129/54
f 57/141/61 9/142/17 56/143/59
f 3/144/3 22/145/15 13/146/16
f 32/147/57 15/74/54 8/148/42
f 19/68/38 25/114/33 24/38/36
f 50/149/70 14/150/48 7/70/47 42/69/52
f 67/151/31 21/152/13 3/153/3 77/32/2
f 10/90/7 55/154/71 61/77/55 2/6/6
f 19/134/38 53/133/66 55/155/71 10/156/7
f 14/157/48 50/158/70 51/159/72
f 2/6/6 62/78/56 48/4/4
f 1/72/39 47/160/73 49/124/64 15/123/54
f 1/72/39 59/161/74 47/160/73
f 14/105/48 51/162/72 44/106/60
f 1/163/39 33/44/41 41/164/75 59/165/74
f 7/70/47 34/166/63 40/167/65 60/71/53
f 28/62/37 43/61/51 38/168/76
f 28/135/37 38/169/76 39/136/67
f 2/170/6 37/171/77 58/139/69 30/57/40
f 2/170/6 54/172/43 37/171/77
f 33/173/41 36/174/68 41/175/75
f 38/168/76 57/141/61 44/106/60
f 4/176/32 26/177/34 71/178/78 74/20/20
f 31/179/45 16/36/35 70/25/25 73/180/24
f 4/176/32 74/20/20 69/19/19
f 4/176/32 69/19/19 76/1/1 3/3/3
f 26/181/34 35/182/58 68/21/21 74/183/20 71/184/78
f 21/185/13 67/31/31 78/186/30
f 18/96/9 31/187/45 75/23/23 66/22/22
f 29/107/14 72/29/29 64/188/28
f 29/189/14 64/28/28 65/190/27
f 41/175/75 36/174/68 59/165/74
f 36/174/68 58/139/69 37/171/77
f 37/171/77 54/49/43 61/77/55
f 54/49/43 52/5/5 48/4/4
f 36/174/68 37/171/77 59/165/74
f 47/160/73 59/165/74 37/171/77
f 47/160/73 37/171/77 61/77/55
f 49/124/64 47/160/73 55/155/71
f 54/49/43 48/4/4 62/78/56
f 61/77/55 54/49/43 62/78/56
f 61/77/55 55/155/71 47/160/73
f 55/155/71 53/133/66 49/124/64
f 60/71/53 40/132/65 46/121/62
f 46/121/62 49/124/64 53/133/66
f 53/133/66 44/106/60 46/121/62
f 53/133/66 39/136/67 44/106/60
f 38/168/76 43/61/51 57/141/61
f 43/61/51 45/118/50 57/141/61
f 39/136/67 38/168/76 44/106/60
f 60/71/53 46/121/62 44/106/60
f 50/149/70 42/69/52 60/71/53
f 44/106/60 51/159/72 50/149/70
f 57/141/61 56/103/59 44/106/60
f 44/106/60 50/149/70 60/71/53
