# Blender v2.79 (sub 0) OBJ File: 'aktuell.blend'
# www.blender.org
mtllib Textured_mesh_1.mtl
o ML_Pretarsus_L_Textured_mesh_1.020
v 0.131736 -0.009543 -0.007748
v 0.117262 -0.025119 -0.012958
v 0.124394 -0.035044 0.011198
v 0.051171 -0.024275 0.004161
v -0.001498 -0.009235 -0.006199
v 0.029938 -0.028419 0.007470
v 0.127941 0.004105 0.024014
v 0.124532 -0.032669 0.021355
v 0.114283 0.033005 -0.008852
v 0.084610 0.025910 0.010136
v 0.114845 0.009028 -0.019609
v 0.047381 0.011200 0.023962
v 0.061156 0.021122 0.011445
v 0.002772 0.006160 -0.011011
v 0.071702 -0.016883 -0.003912
v 0.105966 -0.024492 0.029447
v 0.124124 -0.038688 0.013149
v 0.037029 0.027944 -0.003325
v 0.029971 -0.003104 -0.008641
v 0.071437 0.002723 0.012546
v 0.121722 0.048416 0.029629
v 0.068296 0.003490 -0.017858
v 0.061561 0.019220 -0.011424
v 0.113913 -0.044673 0.028070
v 0.122296 0.035761 0.030621
v 0.047473 -0.019680 -0.004686
v 0.051111 -0.011252 0.025210
v 0.070011 -0.014817 0.008916
v -0.005114 0.011552 0.009340
v -0.004810 -0.008938 0.017431
v -0.004914 -0.001915 0.019368
v -0.005005 0.004203 0.019119
v -0.005103 0.010805 0.006189
v -0.004808 -0.009077 -0.003515
v -0.004795 -0.009948 -0.005909
v -0.004804 -0.009352 -0.011476
v -0.005122 0.012037 0.008629
v -0.004705 -0.015980 0.011674
v -0.005088 0.009784 -0.012764
v -0.004926 -0.001107 -0.017966
v -0.101979 0.003926 0.011038
v -0.024263 0.018623 -0.017039
v -0.115943 -0.013566 0.007340
v -0.077546 -0.022711 -0.016111
v -0.064205 -0.007796 0.011559
v -0.121939 0.019218 -0.015098
v -0.044351 -0.018500 -0.002435
v -0.165150 -0.017862 -0.008266
v -0.131307 -0.012396 -0.033122
v -0.147587 0.023693 -0.003269
v -0.006384 0.011560 0.008986
v -0.026858 -0.008026 0.014363
v -0.133127 -0.006509 0.022826
v -0.025335 0.001488 0.017239
v -0.178058 0.006728 -0.008955
v -0.111906 0.005232 -0.025671
v -0.066825 0.012589 -0.000324
v -0.060572 -0.007024 -0.034628
v -0.107749 -0.010565 -0.021455
v -0.063260 0.020518 -0.023724
v -0.014009 -0.009680 -0.026171
v -0.046538 0.000407 -0.021602
v -0.165585 -0.019125 0.002896
v -0.038414 0.019024 0.000573
v -0.175682 0.007766 -0.005098
v -0.152393 -0.008138 0.021563
v -0.174384 -0.012217 -0.003941
v -0.178615 0.006612 -0.008510
v -0.162604 0.013975 0.010133
v -0.168101 -0.017470 0.003235
v -0.152484 -0.008197 0.021456
v -0.167788 -0.018040 0.003587
v -0.153937 -0.009213 0.019758
v -0.176315 -0.002420 -0.006005
v -0.166736 -0.018878 0.004790
v -0.152650 -0.007818 0.021272
v -0.178372 0.007041 -0.008222
v -0.005115 0.011552 0.009340
v -0.004810 -0.008938 0.017431
v -0.004914 -0.001915 0.019368
v -0.005005 0.004203 0.019119
v -0.005103 0.010805 0.006189
v -0.004808 -0.009077 -0.003515
v -0.004795 -0.009948 -0.005909
v -0.004804 -0.009352 -0.011476
v -0.005122 0.012037 0.008629
v -0.004705 -0.015980 0.011674
v -0.005088 0.009784 -0.012764
v -0.004926 -0.001107 -0.017966
vt 0.610517 0.125454
vt 0.611865 0.121973
vt 0.614558 0.125656
vt 0.952973 0.258010
vt 0.952524 0.262657
vt 0.949323 0.260600
vt 0.952877 0.257977
vt 0.756113 0.341560
vt 0.754450 0.339919
vt 0.756054 0.338060
vt 0.163656 0.067165
vt 0.165046 0.059539
vt 0.167211 0.064739
vt 0.606122 0.123583
vt 0.605174 0.119491
vt 0.444963 0.540895
vt 0.444923 0.540007
vt 0.445557 0.540595
vt 0.605363 0.115826
vt 0.603236 0.115872
vt 0.974946 0.110136
vt 0.969941 0.111382
vt 0.968063 0.107966
vt 0.149371 0.613175
vt 0.152411 0.610307
vt 0.155005 0.611658
vt 0.149570 0.614061
vt 0.264095 0.916408
vt 0.264828 0.920282
vt 0.262524 0.919508
vt 0.611638 0.117785
vt 0.616532 0.116641
vt 0.342416 0.100134
vt 0.346406 0.097070
vt 0.347197 0.099285
vt 0.375882 0.308313
vt 0.374547 0.307380
vt 0.377418 0.305419
vt 0.163816 0.066143
vt 0.304331 0.750402
vt 0.305280 0.750623
vt 0.304970 0.750729
vt 0.185677 0.392583
vt 0.182792 0.395465
vt 0.183881 0.393184
vt 0.284836 0.104531
vt 0.281185 0.103556
vt 0.284552 0.100965
vt 0.284011 0.157136
vt 0.286046 0.159882
vt 0.281137 0.159439
vt 0.971584 0.106845
vt 0.968673 0.105922
vt 0.171739 0.057157
vt 0.167296 0.056101
vt 0.168937 0.054885
vt 0.601593 0.119281
vt 0.598934 0.116502
vt 0.658298 0.545401
vt 0.656412 0.542831
vt 0.655712 0.540912
vt 0.710644 0.356923
vt 0.713288 0.357323
vt 0.712354 0.358809
vt 0.284018 0.107049
vt 0.511553 0.317040
vt 0.509825 0.316003
vt 0.513517 0.314492
vt 0.378007 0.307418
vt 0.379035 0.305688
vt 0.285451 0.162751
vt 0.280908 0.161615
vt 0.283446 0.164426
vt 0.660742 0.533632
vt 0.663345 0.532444
vt 0.662169 0.536231
vt 0.340152 0.102400
vt 0.342972 0.101589
vt 0.200751 0.259221
vt 0.201760 0.259061
vt 0.203617 0.260718
vt 0.617267 0.119619
vt 0.286086 0.104702
vt 0.288102 0.101000
vt 0.309413 0.023829
vt 0.311160 0.022725
vt 0.310477 0.024854
vt 0.506681 0.232354
vt 0.507890 0.234704
vt 0.505684 0.234889
vt 0.701450 0.311886
vt 0.703859 0.312142
vt 0.702316 0.313430
vt 0.510098 0.308515
vt 0.512306 0.311362
vt 0.425909 0.726350
vt 0.423975 0.725635
vt 0.425558 0.727041
vt 0.974853 0.108622
vt 0.973675 0.106581
vt 0.304909 0.751017
vt 0.954136 0.260358
vt 0.261048 0.919312
vt 0.261665 0.915371
vt 0.287178 0.163639
vt 0.187574 0.038738
vt 0.187184 0.041273
vt 0.185638 0.040065
vt 0.057760 0.832762
vt 0.058673 0.828566
vt 0.060293 0.831075
vt 0.344462 0.102010
vt 0.346528 0.100999
vt 0.169666 0.936186
vt 0.171485 0.936965
vt 0.169959 0.937678
vt 0.169315 0.937041
vt 0.957277 0.195364
vt 0.956647 0.196141
vt 0.956744 0.195011
vt 0.702966 0.308343
vt 0.705134 0.310284
vt 0.147594 0.613978
vt 0.147619 0.613823
vt 0.930535 0.569753
vt 0.932523 0.570772
vt 0.932659 0.571040
vt 0.926409 0.574436
vt 0.955215 0.260325
vt 0.956460 0.262681
vt 0.152866 0.614567
vt 0.584073 0.152729
vt 0.589799 0.149794
vt 0.589845 0.157179
vt 0.826515 0.358948
vt 0.827358 0.362429
vt 0.824749 0.363935
vt 0.268914 0.255376
vt 0.268379 0.258173
vt 0.265112 0.255735
vt 0.495537 0.349115
vt 0.496632 0.347156
vt 0.500830 0.351210
vt 0.586071 0.150308
vt 0.875413 0.064072
vt 0.874908 0.064428
vt 0.874904 0.064320
vt 0.143643 0.614873
vt 0.145998 0.617050
vt 0.143085 0.618266
vt 0.140240 0.621427
vt 0.138813 0.621771
vt 0.832476 0.364443
vt 0.834728 0.367853
vt 0.831937 0.369091
vt 0.914761 0.844783
vt 0.918062 0.845721
vt 0.916160 0.846612
vt 0.823642 0.357775
vt 0.588122 0.157499
vt 0.132264 0.166418
vt 0.134758 0.170313
vt 0.133040 0.169941
vt 0.192802 0.972454
vt 0.191487 0.966352
vt 0.193822 0.969792
vt 0.152866 0.614567
vt 0.152087 0.615627
vt 0.147427 0.615009
vt 0.149570 0.614061
vt 0.424723 0.721395
vt 0.422989 0.723005
vt 0.426767 0.724663
vt 0.149371 0.613175
vt 0.147594 0.613978
vt 0.824588 0.355302
vt 0.546341 0.943443
vt 0.546318 0.943338
vt 0.546524 0.943535
vt 0.032407 0.788083
vt 0.032138 0.785208
vt 0.035182 0.785576
vt 0.591608 0.112833
vt 0.592226 0.110580
vt 0.594581 0.113255
vt 0.228524 0.848793
vt 0.227846 0.847171
vt 0.230080 0.849225
vt 0.129375 0.168189
vt 0.469415 0.548587
vt 0.466790 0.544849
vt 0.469135 0.545416
vt 0.469426 0.548559
vt 0.954136 0.260358
vt 0.954761 0.259466
vt 0.955215 0.260325
vt 0.232075 0.392980
vt 0.232288 0.395291
vt 0.229923 0.394125
vt 0.830529 0.360933
vt 0.834800 0.364150
vt 0.264793 0.259019
vt 0.137862 0.617434
vt 0.270034 0.261474
vt 0.272941 0.259221
vt 0.230170 0.392495
vt 0.538101 0.062751
vt 0.535095 0.061801
vt 0.535496 0.060104
vt 0.143783 0.619189
vt 0.580473 0.210111
vt 0.582817 0.210117
vt 0.583141 0.213352
vt 0.497247 0.346985
vt 0.498881 0.346518
vt 0.585855 0.160258
vt 0.585715 0.160327
vt 0.585782 0.160154
vt 0.271099 0.255971
vt 0.932523 0.570772
vt 0.932847 0.570938
vt 0.932659 0.571040
vt 0.828434 0.365008
vt 0.593558 0.110478
vt 0.423718 0.725406
vt 0.546145 0.940126
vt 0.550855 0.938434
vt 0.548021 0.941925
vt 0.546858 0.941657
vt 0.589864 0.158633
vt 0.592922 0.157023
vt 0.589977 0.158938
vt 0.593225 0.156810
vt 0.592920 0.156884
vt 0.546371 0.939068
vt 0.546302 0.939120
vt 0.571296 0.934435
vt 0.571290 0.934361
vt 0.571370 0.934388
vt 0.547065 0.943221
vt 0.546817 0.943048
vt 0.423528 0.456321
vt 0.429537 0.451502
vt 0.429560 0.451569
vt 0.426836 0.459028
vt 0.829246 0.009480
vt 0.829793 0.009943
vt 0.831786 0.012011
vt 0.828839 0.011912
vt 0.444263 0.541249
vt 0.443375 0.538572
vt 0.444923 0.540007
vt 0.444963 0.540895
vt 0.167521 0.935267
vt 0.169666 0.936186
vt 0.169315 0.937041
vt 0.301687 0.749785
vt 0.304331 0.750402
vt 0.304970 0.750729
vt 0.301251 0.752000
vt 0.302437 0.753644
vt 0.304909 0.751017
vt 0.423975 0.725635
vt 0.425909 0.726350
vt 0.952984 0.257898
vt 0.952973 0.258010
vt 0.952877 0.257977
vn 0.2706 0.0215 -0.9625
vn 0.3095 0.8153 -0.4894
vn 0.9425 -0.1161 -0.3135
vn -0.8843 0.2093 0.4173
vn 0.2471 0.3039 0.9201
vn -0.2947 0.9084 0.2966
vn -0.4070 0.8618 -0.3027
vn 0.0291 -0.8102 -0.5855
vn -0.3952 -0.6793 0.6184
vn 0.9724 -0.0835 0.2180
vn -0.1608 -0.0354 0.9864
vn 0.0546 -0.0960 -0.9939
vn 0.0546 0.5191 -0.8529
vn -0.0342 -0.4066 -0.9130
vn -0.5662 0.8025 -0.1882
vn 0.4715 0.1945 -0.8601
vn -0.2030 0.7363 0.6455
vn 0.5962 0.5379 0.5960
vn -0.4473 0.8054 0.3890
vn -0.8257 -0.5585 -0.0794
vn 0.1075 -0.9747 -0.1961
vn 0.2453 -0.3258 0.9130
vn -0.8020 -0.1624 0.5748
vn 0.1724 -0.7770 -0.6054
vn -0.0376 -0.1397 -0.9895
vn 0.4031 0.4721 0.7840
vn -0.3013 -0.9093 -0.2872
vn -0.0224 0.0766 0.9968
vn 0.0869 0.1935 0.9773
vn 0.7750 0.2356 0.5865
vn -0.4508 -0.7632 -0.4629
vn 0.2713 -0.7369 -0.6192
vn -0.4113 -0.8769 0.2488
vn 0.4068 -0.7793 -0.4766
vn 0.2961 -0.9276 0.2276
vn -0.1559 -0.4868 -0.8595
vn -0.5499 0.8121 -0.1953
vn -0.7829 -0.6166 0.0827
vn -0.7858 0.1787 0.5921
vn -0.7670 -0.1367 0.6269
vn -0.4560 -0.4005 -0.7948
vn 0.3142 -0.8393 0.4438
vn -0.1588 -0.9873 0.0043
vn -0.2857 0.8649 -0.4126
vn 0.2808 0.3728 -0.8844
vn -0.3250 0.4352 0.8396
vn 0.3611 0.7631 0.5359
vn 0.0360 0.9390 -0.3420
vn 0.4182 -0.0028 -0.9084
vn -0.2364 -0.8373 -0.4930
vn -0.6119 0.5727 0.5455
vn -0.2884 0.4746 -0.8316
vn -0.4528 0.8916 -0.0053
vn -0.1167 -0.9825 0.1451
vn 0.0779 -0.4079 0.9097
vn -0.3105 0.0031 0.9506
vn 0.5482 0.4223 -0.7219
vn -0.3454 -0.7763 -0.5274
vn -0.1143 0.8190 0.5623
vn -0.5342 0.0852 0.8410
vn 0.0944 0.9950 0.0313
vn -0.4996 0.6782 0.5389
vn 0.6709 -0.0233 0.7412
vn -0.4018 0.4337 0.8065
vn 0.7073 -0.3884 0.5906
vn 0.1979 0.7257 -0.6589
vn 0.6364 -0.6490 0.4169
vn 0.6942 -0.7117 -0.1079
vn -0.5727 -0.8189 -0.0381
vn -0.6117 -0.7328 0.2982
vn 0.1419 -0.5459 -0.8257
vn 0.3466 -0.4259 0.8358
vn -0.6486 -0.3836 0.6574
vn -0.4018 0.1221 0.9075
vn 0.6989 0.4401 0.5638
vn -0.0777 -0.9948 -0.0653
vn -0.5891 -0.7453 0.3122
vn 0.5289 0.8098 -0.2540
vn -0.0125 0.7144 0.6996
vn -0.0954 0.9605 0.2614
vn -0.9226 -0.3403 0.1817
vn -0.8584 -0.5050 -0.0903
vn -0.5704 -0.6467 0.5064
vn -0.9799 -0.1363 -0.1459
vn 0.8634 0.5012 -0.0585
vn 0.9147 0.2417 -0.3240
vn 0.8766 -0.4502 -0.1702
vn 0.8315 -0.5501 -0.0775
vn 0.7768 0.3639 0.5140
usemtl Textured_mesh_1
s 1
f 11/1/1 9/2/2 1/3/3
f 29/4/4 12/5/5 18/6/6 37/7/7
f 2/8/8 11/9/1 1/10/3
f 24/11/9 7/12/10 16/13/11
f 11/1/1 22/14/12 23/15/13
f 40/16/14 39/17/15 14/18/16
f 13/19/17 23/15/13 18/20/6
f 16/21/11 25/22/18 10/23/19
f 38/24/20 6/25/21 27/26/22 30/27/23
f 22/28/12 26/29/24 19/30/25
f 10/31/19 21/32/26 9/2/2
f 26/33/24 22/34/12 15/35/27
f 28/36/28 20/37/29 27/38/22
f 24/11/9 8/39/30 7/12/10
f 36/40/31 5/41/32 35/42/33
f 3/43/34 2/44/8 1/45/3
f 12/46/5 20/47/29 13/48/17
f 11/49/1 2/50/8 22/51/12
f 20/52/29 10/23/19 13/53/17
f 10/54/19 25/55/18 21/56/26
f 18/20/6 23/15/13 19/57/25
f 19/57/25 14/58/16 18/20/6
f 24/59/9 20/60/29 28/61/28
f 23/62/13 13/63/17 10/64/19
f 27/65/22 20/47/29 12/46/5
f 3/66/34 1/67/3 7/68/10
f 4/69/35 27/38/22 6/70/21
f 22/51/12 2/50/8 3/71/34
f 7/12/10 25/55/18 16/13/11
f 15/72/27 3/71/34 24/73/9
f 23/15/13 10/31/19 9/2/2
f 23/15/13 9/2/2 11/1/1
f 20/74/29 16/75/11 10/76/19
f 28/36/28 27/38/22 4/69/35
f 6/77/21 26/33/24 4/78/35
f 28/79/28 15/80/27 24/81/9
f 25/82/18 9/2/2 21/32/26
f 12/83/5 13/48/17 18/84/6
f 17/85/36 3/86/34 8/87/30
f 7/88/10 8/89/30 3/90/34
f 19/91/25 5/92/32 14/93/16
f 1/67/3 25/94/18 7/95/10
f 39/96/15 33/97/37 14/98/16
f 24/99/9 16/21/11 20/100/29
f 3/71/34 15/72/27 22/51/12
f 34/101/38 35/42/33 5/41/32
f 29/4/4 32/102/39 12/5/5
f 19/103/25 23/104/13 22/28/12
f 3/71/34 17/105/36 24/73/9
f 15/106/27 28/107/28 26/108/24
f 9/2/2 25/82/18 1/3/3
f 26/109/24 5/110/32 19/111/25
f 4/112/35 26/33/24 28/113/28
f 40/114/14 14/115/16 5/116/32 36/117/31
f 8/118/30 24/119/9 17/120/36
f 26/121/24 6/122/21 5/92/32
f 6/25/21 38/24/20 34/123/38 5/124/32
f 14/125/16 33/126/37 37/127/7 18/128/6
f 12/5/5 32/102/39 31/129/40 27/130/22
f 27/26/22 31/131/40 30/27/23
f 40/114/14 36/117/31 35/42/33 34/101/38 38/24/20 30/27/23 31/131/40 32/102/39 29/4/4 37/7/7 33/126/37 39/96/15
f 49/132/41 43/133/42 63/134/43
f 46/135/44 56/136/45 49/137/41
f 46/138/44 41/139/46 57/140/47
f 60/141/48 58/142/49 59/143/50
f 43/133/42 49/132/41 59/144/50
f 65/145/51 55/146/52 77/147/53
f 47/148/54 52/149/55 45/150/56
f 41/151/46 43/152/42 45/150/56
f 60/153/48 62/154/57 58/155/49
f 60/156/48 46/157/44 57/158/47
f 49/137/41 55/159/52 46/135/44
f 49/132/41 63/134/43 48/160/58
f 64/161/59 57/162/47 52/163/55
f 76/164/60 50/165/61 69/166/62
f 80/167/63 54/168/64 52/169/55 79/170/65
f 64/171/59 54/172/64 42/173/66
f 87/174/67 52/169/55 83/175/68
f 46/135/44 55/159/52 50/176/61
f 72/177/69 70/178/70 63/179/43
f 47/180/54 62/181/57 61/182/71
f 62/183/57 57/184/47 42/185/66
f 43/186/42 41/187/46 53/188/72
f 64/161/59 52/163/55 54/189/64
f 71/190/73 43/191/42 53/192/72 66/193/74
f 81/194/75 54/195/64 80/196/63
f 47/197/54 44/198/76 58/199/49
f 46/200/44 60/153/48 56/136/45
f 62/154/57 60/153/48 57/201/47
f 45/202/56 57/140/47 41/139/46
f 47/148/54 45/150/56 44/203/76
f 53/204/72 41/139/46 50/205/61
f 44/203/76 45/150/56 43/152/42
f 47/197/54 58/199/49 62/206/57
f 43/207/42 59/208/50 44/209/76
f 45/150/56 52/149/55 57/210/47
f 62/211/57 42/212/66 61/213/71
f 59/143/50 58/214/49 44/215/76
f 75/216/77 72/217/69 63/218/43
f 46/219/44 50/205/61 41/139/46
f 82/220/78 51/221/79 86/222/80
f 59/223/50 56/136/45 60/153/48
f 64/224/59 42/185/66 57/184/47
f 49/137/41 56/136/45 59/223/50
f 51/225/79 42/173/66 54/172/64
f 74/226/81 49/227/41 48/228/58 67/229/82
f 63/230/43 73/231/83 75/232/77
f 63/134/43 43/133/42 71/233/73 73/234/83
f 55/235/52 49/227/41 74/226/81 68/236/84
f 55/237/52 68/238/84 77/239/53
f 63/240/43 70/241/70 67/229/82 48/228/58
f 50/242/61 76/243/60 66/244/74 53/245/72
f 55/246/52 65/247/51 69/248/62 50/249/61
f 70/241/70 69/166/62 74/226/81
f 61/250/71 42/251/66 88/252/85 89/253/86
f 61/254/71 89/255/86 85/256/87
f 61/257/71 85/258/87 84/259/88 47/260/54
f 52/261/55 47/260/54 84/259/88 83/262/68
f 42/173/66 51/225/79 82/263/78 88/264/85
f 52/169/55 87/174/67 79/170/65
f 51/265/79 78/266/89 86/267/80
f 51/265/79 54/195/64 81/194/75 78/266/89
f 82/263/78 86/267/80 78/266/89 81/194/75 80/167/63 79/170/65 87/174/67 83/262/68 84/259/88 85/256/87 89/253/86 88/264/85
f 71/233/73 66/193/74 76/243/60
f 76/243/60 69/166/62 73/234/83
f 69/166/62 65/247/51 74/226/81
f 73/234/83 69/166/62 70/241/70
f 65/247/51 77/147/53 68/238/84
f 74/226/81 67/229/82 70/241/70
f 65/247/51 68/238/84 74/226/81
f 71/233/73 76/243/60 73/234/83
f 72/177/69 75/216/77 70/241/70
f 75/216/77 73/234/83 70/241/70
