# Blender v2.79 (sub 0) OBJ File: 'CarausiusMorosus.blend'
# www.blender.org
mtllib Textured_mesh_1.mtl

o 38_FL_Pretarsus_R_Collision_Textured_mesh_1.072
v 0.058646 0.021710 -0.000117
v -0.056934 -0.007038 0.020005
v -0.049962 0.009783 0.029876
v -0.085814 -0.015261 0.049618
v -0.081596 -0.029088 -0.008132
v -0.021761 -0.022087 0.006534
v -0.016549 -0.013493 0.025070
v 0.073277 0.000623 0.014009
v 0.029536 -0.012159 0.027811
v -0.027139 0.024569 0.030601
v -0.043822 -0.018338 -0.007734
v -0.085464 0.009241 0.033282
v -0.094925 0.019397 0.013033
v 0.050054 -0.018340 0.003270
v 0.021226 -0.006042 -0.010864
v -0.029931 -0.014670 -0.017768
v -0.012666 0.008037 0.040371
v -0.088935 -0.003970 -0.027125
v -0.079066 -0.037143 -0.021496
v -0.089890 -0.015509 -0.034955
v -0.101241 -0.017674 -0.033091
v 0.069795 0.025893 -0.024766
v -0.099965 -0.006275 0.036322
v -0.096234 -0.015243 0.029607
v -0.095683 -0.004386 0.047975
v -0.073744 0.009420 -0.022409
v 0.034406 0.018945 0.010504
v -0.087335 -0.036760 -0.026973
v -0.040610 0.026210 -0.000381
v 0.015340 0.010449 -0.011235
v 0.073539 0.022585 -0.003960
v 0.073819 -0.001272 0.013231
v 0.073582 0.025618 -0.024350
v 0.073902 0.006299 -0.031915
v 0.073787 0.000627 0.014151
v 0.073813 0.010177 -0.024748
v 0.073716 0.017757 -0.028471
v 0.073923 0.004778 -0.031691
v 0.073571 0.025321 -0.020836
v 0.073798 0.000100 0.013413
v 0.073595 0.024836 -0.024783
v 0.073779 0.001481 0.013204
v 0.074082 -0.009525 -0.019228
v 0.074004 -0.012306 0.008395
v 0.074066 -0.007280 -0.023261
vt 0.949291 0.518167
vt 0.947442 0.515255
vt 0.953502 0.515773
vt 0.126979 0.787427
vt 0.124806 0.786051
vt 0.127772 0.784823
vt 0.574881 0.923491
vt 0.572867 0.919122
vt 0.575968 0.923081
vt 0.314971 0.029740
vt 0.311774 0.027467
vt 0.314394 0.029041
vt 0.775280 0.410370
vt 0.770683 0.404026
vt 0.774398 0.401265
vt 0.905962 0.339551
vt 0.904577 0.339876
vt 0.903173 0.333397
vt 0.951185 0.520749
vt 0.946500 0.521541
vt 0.771320 0.393369
vt 0.768039 0.391309
vt 0.768958 0.386262
vt 0.011187 0.089248
vt 0.012192 0.091671
vt 0.007680 0.090394
vt 0.288479 0.470739
vt 0.284505 0.471038
vt 0.286233 0.469836
vt 0.299242 0.469672
vt 0.295857 0.468397
vt 0.299082 0.468800
vt 0.123931 0.788505
vt 0.541843 0.987215
vt 0.542398 0.985749
vt 0.542145 0.987879
vt 0.027717 0.767515
vt 0.029240 0.768011
vt 0.025405 0.768763
vt 0.796178 0.213988
vt 0.791027 0.211916
vt 0.798402 0.211650
vt 0.285615 0.473211
vt 0.825364 0.071076
vt 0.823158 0.074544
vt 0.821071 0.072264
vt 0.899501 0.327752
vt 0.901191 0.327818
vt 0.939827 0.087239
vt 0.936951 0.088905
vt 0.937316 0.083673
vt 0.913422 0.912934
vt 0.913058 0.912629
vt 0.913769 0.912874
vt 0.767264 0.382263
vt 0.913317 0.913038
vt 0.913307 0.914018
vt 0.905160 0.915770
vt 0.902938 0.917146
vt 0.903468 0.914158
vt 0.296483 0.464727
vt 0.768230 0.381320
vt 0.773599 0.379143
vt 0.574805 0.920271
vt 0.576164 0.923217
vt 0.906782 0.907615
vt 0.905682 0.904948
vt 0.908514 0.902373
vt 0.897955 0.334949
vt 0.897395 0.327998
vt 0.298499 0.464695
vt 0.006255 0.093499
vt 0.312134 0.030217
vt 0.309426 0.029267
vt 0.286390 0.469114
vt 0.288638 0.465436
vt 0.774896 0.392559
vt 0.479633 0.637739
vt 0.479560 0.637854
vt 0.479536 0.637826
vt 0.007839 0.096441
vt 0.000413 0.094981
vt 0.812281 0.969715
vt 0.804633 0.972003
vt 0.810096 0.969402
vt 0.950886 0.525592
vt 0.949643 0.523334
vt 0.740118 0.529930
vt 0.737955 0.527923
vt 0.741024 0.525770
vt 0.904046 0.918252
vt 0.522786 0.852026
vt 0.524974 0.850514
vt 0.526625 0.853182
vt 0.826807 0.074473
vt 0.900598 0.339742
vt 0.775333 0.410464
vt 0.775172 0.410519
vt 0.025852 0.769858
vt 0.032708 0.808146
vt 0.032287 0.805433
vt 0.035527 0.804996
vt 0.030609 0.766883
vt 0.029357 0.766894
vt 0.904300 0.098720
vt 0.904061 0.100050
vt 0.902650 0.099607
vt 0.910077 0.908759
vt 0.029957 0.768962
vt 0.911165 0.913134
vt 0.908246 0.916097
vt 0.897624 0.322514
vt 0.770768 0.412197
vt 0.770287 0.411578
vt 0.771512 0.409131
vt 0.771996 0.411902
vt 0.586410 0.721652
vt 0.588443 0.720577
vt 0.589032 0.723829
vt 0.588577 0.723695
vt 0.913805 0.899964
vt 0.913542 0.901510
vt 0.912488 0.902741
vt 0.910675 0.899982
vt 0.253140 0.456891
vt 0.250493 0.455436
vt 0.252950 0.455359
vt 0.253797 0.455465
vt 0.795139 0.214681
vt 0.791193 0.215246
vt 0.790982 0.212442
vt 0.479365 0.637437
vn 0.1021 -0.8688 0.4845
vn 0.1610 -0.0433 0.9860
vn -0.2999 -0.2475 0.9213
vn -0.8415 -0.5127 0.1702
vn 0.7919 -0.4348 -0.4287
vn -0.1647 -0.6998 -0.6951
vn 0.5285 -0.0316 -0.8483
vn 0.2608 -0.4416 -0.8585
vn 0.1864 -0.9658 0.1804
vn -0.1499 -0.8555 0.4957
vn 0.2317 -0.2873 0.9294
vn 0.1280 0.9626 0.2387
vn 0.3149 -0.7067 0.6336
vn 0.3037 -0.9357 -0.1796
vn 0.1037 0.1403 -0.9847
vn -0.3980 -0.9047 0.1520
vn -0.0762 -0.2199 0.9725
vn 0.0231 0.8418 0.5393
vn 0.2414 0.5842 0.7749
vn -0.8867 0.3527 -0.2989
vn -0.3412 -0.9028 0.2619
vn -0.2546 0.6134 0.7476
vn -0.7354 0.6776 0.0021
vn -0.5167 -0.0354 -0.8555
vn 0.1860 -0.9705 0.1536
vn -0.1881 -0.6799 0.7088
vn -0.0554 0.6082 -0.7918
vn 0.8348 0.5158 -0.1924
vn -0.7375 0.3539 -0.5752
vn 0.5923 0.7075 0.3854
vn 0.6506 0.5724 -0.4992
vn 0.0914 -0.4088 -0.9080
vn -0.7265 0.5238 -0.4448
vn 0.5042 0.4349 -0.7461
vn -0.1296 0.9141 -0.3842
vn 0.9068 -0.3123 0.2832
vn 0.6902 -0.3972 0.6048
vn -0.0899 0.8286 -0.5526
vn 0.7749 -0.5651 0.2830
vn 0.5524 -0.7358 -0.3918
vn 0.9033 0.3289 0.2753
vn 0.0967 0.9914 0.0878
vn 0.6185 0.5509 0.5604
vn -0.0916 0.6656 -0.7406
vn 0.7419 -0.5063 0.4395
usemtl Textured_mesh_1
s 1
f 2/1/1 3/2/2 4/3/3
f 24/4/4 2/5/1 4/6/3
f 45/7/5 15/8/6 38/9/7
f 16/10/8 6/11/9 11/12/10
f 8/13/11 27/14/12 9/15/13
f 19/16/14 20/17/15 16/18/8
f 2/1/1 5/19/16 11/20/10
f 17/21/17 10/22/18 3/23/2
f 3/24/2 2/25/1 17/26/17
f 24/27/4 25/28/19 23/29/20
f 19/30/14 5/31/16 28/32/21
f 5/33/16 2/5/1 24/4/4
f 12/34/22 13/35/23 23/36/20
f 21/37/24 20/38/15 28/39/21
f 14/40/25 8/41/11 9/42/13
f 4/43/3 25/28/19 24/27/4
f 2/44/1 6/45/9 7/46/26
f 16/18/8 30/47/27 15/48/6
f 6/49/9 15/50/6 14/51/25
f 33/52/28 22/53/29 39/54/30
f 12/55/22 3/23/2 10/22/18
f 41/56/31 37/57/32 22/53/29
f 12/58/22 25/59/19 4/60/3
f 18/61/33 5/31/16 24/27/4
f 12/62/22 4/63/3 3/23/2
f 38/9/7 15/8/6 30/64/27 34/65/34
f 10/66/18 17/67/17 27/68/12
f 29/69/35 27/70/12 30/47/27
f 28/32/21 18/61/33 21/71/24
f 2/25/1 7/72/26 17/26/17
f 16/10/8 15/73/6 6/74/9
f 18/61/33 23/75/20 13/76/23
f 41/56/31 22/53/29 33/52/28
f 7/77/26 9/15/13 17/21/17
f 9/15/13 27/14/12 17/21/17
f 40/78/36 35/79/37 8/80/11
f 6/81/9 9/82/13 7/72/26
f 18/83/33 13/84/23 26/85/38
f 19/86/14 11/20/10 5/87/16
f 14/88/25 9/89/13 6/90/9
f 25/59/19 12/58/22 23/91/20
f 28/32/21 5/31/16 18/61/33
f 44/92/39 14/93/25 43/94/40
f 11/95/10 6/45/9 2/44/1
f 20/17/15 26/96/38 30/47/27
f 35/97/37 42/98/41 8/13/11
f 28/39/21 20/38/15 19/99/14
f 26/100/38 13/101/23 29/102/35
f 30/47/27 16/18/8 20/17/15
f 18/61/33 24/27/4 23/75/20
f 18/103/33 20/38/15 21/104/24
f 26/96/38 29/69/35 30/47/27
f 19/105/14 16/106/8 11/107/10
f 27/68/12 29/108/35 10/66/18
f 26/109/38 20/38/15 18/103/33
f 29/110/35 13/111/23 10/66/18
f 10/66/18 13/111/23 12/58/22
f 1/112/42 30/47/27 27/70/12
f 39/113/30 22/114/29 1/115/42 31/116/43
f 8/13/11 1/115/42 27/14/12
f 14/117/25 15/118/6 45/119/5 43/120/40
f 22/121/29 37/122/32 36/123/44 1/124/42
f 30/125/27 1/126/42 36/127/44 34/128/34
f 14/129/25 44/130/39 32/131/45 8/41/11
f 8/80/11 32/132/45 40/78/36
f 8/13/11 42/98/41 31/116/43 1/115/42
f 41/56/31 33/52/28 39/54/30 31/116/43 42/98/41 35/97/37 40/78/36 32/132/45 44/130/39 43/94/40 45/119/5 38/9/7 34/65/34 36/127/44 37/122/32
