# Blender v2.79 (sub 0) OBJ File: 'CarausiusMorosus.blend'
# www.blender.org
mtllib Textured_mesh_1.mtl

o 34_FL_CT_R_Collision_Textured_mesh_1.074
v -0.029875 -0.047987 -0.025665
v -0.048955 -0.029002 -0.019807
v -0.049887 -0.007153 -0.041669
v 0.031989 -0.008641 0.060671
v -0.043059 -0.004973 0.047280
v -0.006483 -0.050743 -0.014134
v -0.028159 -0.042280 0.018599
v 0.038809 -0.035241 -0.018935
v -0.000845 -0.004557 0.067196
v 0.001742 -0.008432 -0.072772
v 0.026183 -0.028921 -0.067600
v 0.041309 -0.017281 -0.065678
v -0.036819 -0.023332 -0.058970
v -0.011243 0.041343 0.028627
v -0.049421 0.035569 -0.017854
v -0.045475 0.043487 0.013679
v -0.030803 0.031764 -0.045717
v 0.044086 0.029709 0.062487
v -0.008350 0.005285 0.057377
v 0.031456 -0.035197 0.023714
v -0.057091 0.034026 0.007453
v -0.027691 0.053741 -0.020534
v 0.047147 0.057349 -0.035046
v 0.047851 0.009973 -0.063868
v 0.048622 -0.041834 -0.011221
v 0.047872 0.008569 0.065519
v 0.047556 0.029832 0.063816
v 0.048269 -0.018098 -0.064974
v 0.048441 -0.029709 -0.056646
v 0.048371 -0.024972 -0.058828
v 0.048422 -0.028434 0.044336
v 0.048424 -0.028566 0.043802
v 0.047835 0.011046 -0.063742
v 0.048410 -0.027575 0.045158
v 0.048467 -0.031412 -0.051482
v 0.047175 0.055434 0.033314
v 0.047838 0.010871 -0.063850
v 0.048469 -0.031546 -0.043358
v 0.048149 -0.010026 0.062923
v 0.047413 0.039459 0.052215
v 0.047136 0.058111 -0.034143
v 0.047145 0.057494 -0.031734
v 0.048663 -0.044617 0.016063
v 0.048416 -0.028015 0.044838
v 0.047105 0.060194 0.007306
v 0.047372 0.042226 0.068000
v 0.048546 -0.036727 0.035320
v -0.058959 0.012429 0.035022
v -0.058912 0.009278 0.037466
v -0.058320 -0.030524 0.012215
v -0.058263 -0.034366 -0.002544
v -0.058913 0.009351 -0.033898
v -0.058442 -0.022301 -0.024385
v -0.058564 -0.014100 0.035090
v -0.058364 -0.027556 -0.020954
v -0.059280 0.034027 0.007517
v -0.058668 -0.007159 -0.039634
v -0.059273 0.033576 0.002526
v -0.059043 0.018088 0.030159
v -0.058868 0.006302 0.038300
v -0.059164 0.026206 0.016492
v -0.059273 0.033555 -0.020503
v -0.058223 -0.037061 0.005666
vt 0.264655 0.320044
vt 0.261900 0.320625
vt 0.256981 0.311765
vt 0.738741 0.407667
vt 0.735558 0.408161
vt 0.735667 0.406423
vt 0.741772 0.401460
vt 0.740125 0.407427
vt 0.268353 0.325200
vt 0.267349 0.323267
vt 0.267906 0.323252
vt 0.730766 0.388752
vt 0.735991 0.387604
vt 0.734140 0.389761
vt 0.742176 0.876610
vt 0.744925 0.875653
vt 0.742425 0.882074
vt 0.256619 0.319113
vt 0.838370 0.972308
vt 0.836519 0.974212
vt 0.835011 0.970698
vt 0.735986 0.396341
vt 0.742396 0.390856
vt 0.270002 0.318593
vt 0.269083 0.320973
vt 0.267415 0.319260
vt 0.730136 0.884267
vt 0.729400 0.882272
vt 0.737897 0.885357
vt 0.734929 0.885898
vt 0.389626 0.523472
vt 0.392852 0.523917
vt 0.391420 0.526147
vt 0.389514 0.523670
vt 0.734359 0.402689
vt 0.612858 0.333660
vt 0.613618 0.338145
vt 0.608834 0.332799
vt 0.611799 0.333121
vt 0.560029 0.615991
vt 0.562335 0.619082
vt 0.559734 0.619591
vt 0.741799 0.871522
vt 0.744706 0.873593
vt 0.741695 0.871474
vt 0.503852 0.334961
vt 0.503720 0.332308
vt 0.509486 0.333717
vt 0.507473 0.334263
vt 0.855604 0.271958
vt 0.852550 0.269381
vt 0.854564 0.268572
vt 0.855223 0.269933
vt 0.946002 0.578318
vt 0.946595 0.574109
vt 0.946780 0.583334
vt 0.501135 0.334843
vt 0.946640 0.573951
vt 0.948043 0.581557
vt 0.733284 0.871169
vt 0.741667 0.871473
vt 0.734194 0.879830
vt 0.730827 0.875518
vt 0.729340 0.879757
vt 0.730655 0.875522
vt 0.856554 0.424597
vt 0.856780 0.427029
vt 0.854399 0.427543
vt 0.675300 0.274711
vt 0.682347 0.272947
vt 0.677666 0.277001
vt 0.722897 0.365139
vt 0.724744 0.364610
vt 0.724714 0.367774
vt 0.727906 0.389030
vt 0.725823 0.390188
vt 0.726014 0.388768
vt 0.730944 0.406414
vt 0.728726 0.389093
vt 0.726187 0.393118
vt 0.253871 0.320378
vt 0.253800 0.320742
vt 0.726884 0.403045
vt 0.858680 0.425163
vt 0.857591 0.426472
vt 0.254375 0.317262
vt 0.672947 0.796214
vt 0.672183 0.797734
vt 0.668887 0.797912
vt 0.745754 0.388456
vt 0.743548 0.388562
vt 0.741425 0.387301
vt 0.259657 0.325348
vt 0.810184 0.723790
vt 0.810877 0.724637
vt 0.810445 0.724723
vt 0.060798 0.761082
vt 0.059366 0.758017
vt 0.063871 0.758894
vt 0.265745 0.324340
vt 0.729731 0.388889
vt 0.268069 0.315692
vt 0.268087 0.315772
vt 0.753512 0.275649
vt 0.753410 0.272996
vt 0.755261 0.275145
vt 0.745574 0.275190
vt 0.751577 0.274013
vt 0.751620 0.274059
vt 0.751055 0.278393
vt 0.745845 0.388474
vt 0.745108 0.872962
vt 0.836023 0.970405
vt 0.838187 0.971952
vt 0.524661 0.680986
vt 0.524891 0.681456
vt 0.524028 0.682268
vt 0.897661 0.834552
vt 0.897909 0.834181
vt 0.897716 0.834659
vt 0.734956 0.408379
vt 0.731649 0.408283
vt 0.737486 0.886706
vt 0.740940 0.277714
vt 0.739958 0.278082
vt 0.737817 0.274883
vt 0.254417 0.313218
vt 0.254239 0.311845
vn -0.0822 -0.0994 0.9916
vn -0.4671 0.3836 0.7966
vn -0.2516 -0.9258 0.2821
vn -0.7362 -0.6676 -0.1107
vn -0.7270 -0.4076 -0.5526
vn -0.3793 -0.8202 -0.4282
vn -0.6075 -0.7533 0.2519
vn 0.0374 0.8939 0.4468
vn -0.5861 0.2209 0.7795
vn 0.4845 -0.3658 0.7946
vn 0.7440 -0.6645 -0.0701
vn 0.5397 -0.8310 -0.1350
vn 0.0150 -0.9958 -0.0903
vn -0.1624 0.1357 -0.9773
vn 0.1881 -0.5206 -0.8328
vn -0.6062 -0.5289 -0.5940
vn -0.1395 -0.2586 0.9559
vn -0.3752 0.8815 0.2867
vn -0.4862 0.6818 0.5466
vn -0.4734 0.6916 -0.5456
vn 0.0252 -0.9994 -0.0256
vn -0.0968 -0.9504 0.2956
vn 0.5662 -0.4180 0.7104
vn 0.5436 0.2293 0.8074
vn -0.0101 -0.4202 0.9074
vn -0.7508 0.5420 -0.3776
vn -0.5060 0.0800 -0.8588
vn -0.5537 0.2585 -0.7916
vn -0.8722 0.2961 0.3893
vn -0.2169 0.8011 0.5579
vn -0.6938 0.4470 0.5647
vn -0.2439 -0.8839 -0.3991
vn -0.6560 0.6014 0.4561
vn -0.3646 0.4714 -0.8031
vn -0.4360 0.8996 -0.0257
vn 0.7669 0.1553 -0.6227
vn 0.2685 -0.2409 -0.9327
vn 0.6503 0.3758 -0.6602
vn 0.6146 0.6044 0.5070
vn 0.2658 0.6367 0.7238
vn -0.9299 0.3625 0.0621
vn 0.5019 0.8639 0.0426
vn 0.6363 0.7589 0.1387
vn 0.6672 0.7361 -0.1135
vn 0.6103 0.5887 -0.5301
vn 0.7651 0.2983 -0.5707
vn 0.8115 -0.3350 -0.4787
vn 0.6198 -0.2009 -0.7586
vn 0.7966 -0.4784 -0.3696
vn -0.7255 0.2666 0.6345
vn -0.8016 -0.3167 0.5071
vn 0.5885 -0.7357 0.3353
vn 0.5776 -0.6933 0.4309
vn 0.5423 -0.8390 0.0442
vn -0.6952 -0.4372 -0.5706
vn 0.7094 -0.6811 -0.1815
vn 0.7467 -0.5691 0.3443
vn 0.7405 -0.4150 0.5286
vn 0.6707 -0.6951 0.2589
vn -0.8333 0.5528 -0.0055
vn -0.6851 0.7147 0.1411
vn -0.8048 -0.2134 -0.5539
vn -0.8954 -0.3490 0.2763
usemtl Textured_mesh_1
s 1
f 9/1/1 19/2/2 7/3/3
f 51/4/4 55/5/5 2/6/6
f 51/4/4 2/6/6 7/7/3 63/8/7
f 46/9/8 18/10/9 27/11/10
f 38/12/11 25/13/12 8/14/13
f 10/15/14 11/16/15 13/17/16
f 7/3/3 19/2/2 5/18/17
f 21/19/18 16/20/19 15/21/20
f 6/22/21 20/23/22 7/7/3
f 39/24/23 26/25/24 4/26/25
f 62/27/26 15/28/20 3/29/27 52/30/28
f 49/31/29 19/32/2 14/33/30 48/34/31
f 2/6/6 1/35/32 7/7/3
f 27/11/10 18/10/9 4/26/25 26/25/24
f 48/36/31 14/37/30 16/38/19 59/39/33
f 17/40/34 15/41/20 22/42/35
f 9/1/1 4/26/25 18/10/9
f 24/43/36 12/44/37 10/15/14 37/45/38
f 36/46/39 14/47/30 18/48/9 40/49/40
f 59/50/33 16/51/19 21/52/18 61/53/41
f 45/54/42 42/55/43 14/56/30
f 45/57/42 14/47/30 36/46/39
f 41/58/44 22/59/35 14/56/30 42/55/43
f 23/60/45 33/61/46 17/62/34
f 23/63/45 17/62/34 22/64/35 41/65/44
f 22/66/35 16/67/19 14/68/30
f 6/22/21 8/14/13 20/23/22
f 13/69/16 1/70/32 3/71/27
f 17/72/34 3/73/27 15/74/20
f 30/75/47 12/76/37 28/77/48
f 3/78/27 1/35/32 2/6/6
f 29/79/49 11/80/15 12/76/37 30/75/47
f 60/81/50 5/18/17 19/2/2 49/82/29
f 6/22/21 13/83/16 11/80/15
f 15/84/20 16/85/19 22/66/35
f 7/7/3 1/35/32 6/22/21
f 54/86/51 5/18/17 60/81/50
f 11/16/15 10/15/14 12/44/37
f 13/83/16 6/22/21 1/35/32
f 19/87/2 9/88/1 18/89/9
f 32/90/52 20/23/22 47/91/53
f 47/91/53 20/23/22 43/92/54
f 19/2/2 18/10/9 14/93/30
f 53/94/55 2/95/6 55/96/5
f 3/97/27 17/98/34 13/99/16
f 13/17/16 17/62/34 10/15/14
f 18/10/9 46/9/8 40/100/40
f 6/22/21 35/101/56 38/12/11 8/14/13
f 9/1/1 44/102/57 34/103/58 4/26/25
f 4/104/25 34/105/58 39/106/23
f 17/62/34 33/61/46 37/45/38 10/15/14
f 7/107/3 31/108/59 44/109/57 9/110/1
f 7/7/3 20/23/22 32/90/52 31/111/59
f 6/22/21 11/80/15 29/79/49 35/101/56
f 8/14/13 25/13/12 43/92/54 20/23/22
f 12/44/37 24/43/36 28/112/48
f 24/43/36 37/45/38 33/61/46 23/60/45 41/65/44 42/55/43 45/54/42 36/46/39 40/49/40 46/9/8 27/11/10 26/25/24 39/24/23 34/105/58 44/102/57 31/108/59 32/90/52 47/91/53 43/92/54 25/13/12 38/12/11 35/101/56 29/79/49 30/75/47 28/77/48
f 15/21/20 62/113/26 58/114/60 21/19/18
f 21/115/18 56/116/61 61/117/41
f 21/118/18 58/119/60 56/120/61
f 2/6/6 53/121/55 57/122/62 3/78/27
f 3/29/27 57/123/62 52/30/28
f 5/124/17 54/125/51 50/126/63
f 5/18/17 50/127/63 63/128/7 7/3/3
f 59/39/33 61/117/41 56/120/61 58/114/60 62/27/26 52/30/28 57/122/62 53/94/55 55/5/5 51/4/4 63/128/7 50/126/63 54/86/51 60/81/50 49/31/29 48/36/31
