# Blender v2.79 (sub 0) OBJ File: 'CarausiusMorosus.blend'
# www.blender.org
mtllib Textured_mesh_1.mtl

o 17_HL_Tarsus_R_Visual_Textured_mesh_1.032
v -0.055562 -0.026878 0.003510
v -0.077198 -0.024153 -0.026824
v 0.068645 0.009201 0.019373
v -0.105213 -0.003003 -0.021787
v 0.142253 0.031481 -0.003715
v 0.127234 0.018896 0.013899
v -0.096143 0.007968 0.005030
v 0.043529 -0.013840 -0.010836
v -0.077643 -0.008366 0.036232
v 0.023190 0.019443 0.002133
v 0.031325 -0.003907 0.029079
v -0.015211 -0.011960 0.027035
v -0.035159 0.012179 -0.005390
v -0.040640 0.018513 -0.002726
v 0.072611 -0.002253 0.021265
v -0.104575 -0.018397 0.015403
v -0.024583 -0.015566 0.000566
v 0.166925 0.022155 -0.016869
v 0.084508 0.027805 -0.003072
v -0.119727 0.015387 -0.011234
v -0.007854 0.009734 0.031369
v -0.004938 -0.020496 -0.013864
v 0.109611 -0.011257 -0.006078
v 0.134439 0.008510 -0.025717
v 0.012812 0.022594 -0.014595
v -0.101742 -0.001130 0.019058
v -0.090155 0.017687 -0.026487
v -0.100622 -0.024674 -0.008242
v 0.058262 0.002258 -0.018564
v 0.023877 -0.007911 -0.022909
v 0.038736 -0.003715 -0.022757
v 0.130359 -0.008430 0.012732
v 0.127949 -0.007056 0.014639
v 0.150938 -0.015880 -0.003603
v 0.157342 -0.010668 -0.008776
v 0.127541 0.017657 0.014672
v 0.143501 0.032608 0.001757
v 0.127698 0.019298 0.014527
v 0.127093 0.018484 0.015019
v 0.127735 -0.007757 0.014818
v 0.128463 0.012051 0.014002
v -0.130017 -0.009579 0.017619
v -0.129863 -0.019496 0.015496
v -0.129587 -0.032128 -0.014370
v -0.130137 -0.002893 0.024792
v -0.130207 0.004734 0.010126
v -0.129872 -0.010674 -0.025905
v -0.130047 0.001102 -0.025764
v -0.130284 0.014334 -0.012366
v -0.129686 -0.024636 -0.018527
v -0.130242 0.012402 -0.016722
v -0.129645 -0.029777 -0.006440
vt 0.491595 0.734525
vt 0.495811 0.733606
vt 0.496840 0.735268
vt 0.006756 0.942052
vt 0.006903 0.941715
vt 0.009763 0.941948
vt 0.009690 0.942001
vt 0.194921 0.032961
vt 0.197761 0.029189
vt 0.199693 0.036634
vt 0.327954 0.893172
vt 0.329926 0.893584
vt 0.327902 0.894846
vt 0.492547 0.449403
vt 0.488561 0.445968
vt 0.493813 0.445068
vt 0.514566 0.738498
vt 0.521873 0.738123
vt 0.515189 0.741309
vt 0.214086 0.464269
vt 0.212867 0.464740
vt 0.214708 0.462001
vt 0.803666 0.428519
vt 0.801727 0.437373
vt 0.800879 0.430442
vt 0.468372 0.438362
vt 0.463965 0.436133
vt 0.468438 0.435989
vt 0.808454 0.960605
vt 0.803967 0.956978
vt 0.810744 0.957778
vt 0.502649 0.737595
vt 0.508987 0.741446
vt 0.508053 0.734100
vt 0.783240 0.135552
vt 0.783848 0.136431
vt 0.781520 0.137013
vt 0.803625 0.960621
vt 0.497774 0.475585
vt 0.499949 0.485146
vt 0.498040 0.477282
vt 0.503036 0.487239
vt 0.502936 0.482306
vt 0.504615 0.477563
vt 0.500606 0.471981
vt 0.482913 0.424172
vt 0.479550 0.422765
vt 0.479954 0.421128
vt 0.828933 0.293027
vt 0.827662 0.298604
vt 0.825698 0.294354
vt 0.828776 0.292723
vt 0.222724 0.208090
vt 0.218396 0.211837
vt 0.221413 0.206077
vt 0.714122 0.498547
vt 0.719891 0.496612
vt 0.717649 0.498680
vt 0.498814 0.732576
vt 0.483397 0.436608
vt 0.482890 0.429182
vt 0.488264 0.437438
vt 0.494593 0.469999
vt 0.497095 0.464285
vt 0.499533 0.469026
vt 0.267088 0.939535
vt 0.268933 0.938403
vt 0.271393 0.938845
vt 0.496785 0.739997
vt 0.492151 0.738562
vt 0.953657 0.332078
vt 0.949764 0.336577
vt 0.951067 0.330746
vt 0.819815 0.301051
vt 0.824280 0.299946
vt 0.478507 0.080987
vt 0.480872 0.080896
vt 0.478426 0.082711
vt 0.504293 0.739944
vt 0.499973 0.556404
vt 0.502851 0.557495
vt 0.500796 0.559708
vt 0.382261 0.744181
vt 0.382687 0.744534
vt 0.384581 0.740579
vt 0.381236 0.742969
vt 0.218879 0.207883
vt 0.853941 0.445498
vt 0.855708 0.447555
vt 0.853884 0.447271
vt 0.310897 0.033262
vt 0.315109 0.034457
vt 0.309473 0.036240
vt 0.506456 0.490550
vt 0.505530 0.491133
vt 0.504678 0.487247
vt 0.712939 0.194912
vt 0.712803 0.194951
vt 0.712955 0.194798
vt 0.280110 0.936995
vt 0.278844 0.939047
vt 0.277788 0.937037
vt 0.523097 0.738495
vt 0.521131 0.741157
vt 0.946118 0.817527
vt 0.946967 0.815770
vt 0.948456 0.815772
vt 0.273341 0.937941
vt 0.481683 0.434610
vt 0.479704 0.433025
vt 0.822518 0.305599
vt 0.817571 0.304867
vt 0.217068 0.208709
vt 0.215205 0.210355
vt 0.821559 0.249280
vt 0.822558 0.249222
vt 0.822542 0.249529
vt 0.624515 0.550250
vt 0.624259 0.544428
vt 0.626009 0.545920
vt 0.954196 0.338544
vt 0.951728 0.345831
vt 0.954238 0.345516
vt 0.317434 0.577520
vt 0.315962 0.574638
vt 0.318401 0.574480
vt 0.317936 0.899718
vt 0.313956 0.897586
vt 0.315716 0.896351
vt 0.974471 0.958704
vt 0.974461 0.958785
vt 0.974380 0.958716
vt 0.712683 0.193893
vt 0.954825 0.332577
vt 0.814307 0.214523
vt 0.819817 0.219274
vt 0.819958 0.219494
vt 0.815735 0.217264
vt 0.475737 0.367693
vt 0.478928 0.362721
vt 0.479502 0.366682
vt 0.316168 0.033824
vt 0.315913 0.034563
vt 0.554898 0.681969
vt 0.558453 0.681929
vt 0.556106 0.683140
vt 0.554549 0.682679
vt 0.508627 0.489599
vt 0.519376 0.742993
vt 0.506003 0.485017
vt 0.509219 0.489063
vt 0.897563 0.970885
vt 0.895866 0.972762
vt 0.894837 0.972312
vt 0.894324 0.969077
vt 0.271404 0.936767
vt 0.269102 0.937172
vn 0.0529 0.9975 0.0460
vn -0.2421 0.5501 -0.7992
vn -0.0635 0.9435 0.3251
vn -0.0664 0.7451 0.6636
vn 0.2074 0.8623 -0.4620
vn -0.6143 0.4099 0.6742
vn -0.2940 0.5113 0.8075
vn 0.1196 0.0059 0.9928
vn 0.2303 -0.8778 -0.4200
vn 0.1740 -0.4121 0.8944
vn -0.7506 -0.6599 0.0324
vn 0.0037 -0.8928 0.4505
vn -0.3251 -0.5897 0.7393
vn 0.8999 0.4272 -0.0875
vn 0.1348 -0.0645 -0.9888
vn -0.0231 0.8505 0.5255
vn -0.0966 0.9905 -0.0980
vn -0.2985 0.4547 0.8392
vn 0.1554 0.6144 0.7735
vn 0.0959 0.4916 -0.8655
vn -0.1125 0.5529 0.8256
vn -0.0658 -0.7221 0.6886
vn -0.3317 -0.5759 -0.7472
vn -0.2820 -0.1128 0.9527
vn -0.2807 0.9352 -0.2159
vn -0.4050 0.5998 -0.6901
vn 0.2914 0.5099 -0.8094
vn -0.1031 -0.9003 -0.4228
vn 0.3240 -0.5646 -0.7591
vn -0.1140 -0.9013 0.4179
vn 0.4042 -0.3823 0.8309
vn -0.1049 -0.8577 -0.5033
vn 0.6157 -0.5503 0.5640
vn -0.1852 -0.9656 -0.1826
vn 0.0772 0.0079 -0.9970
vn -0.0856 -0.0007 -0.9963
vn -0.3138 0.0564 0.9478
vn -0.7155 -0.2416 0.6555
vn 0.7031 -0.7009 0.1198
vn 0.5944 -0.1247 0.7944
vn 0.4634 -0.1557 0.8723
vn -0.5870 -0.1643 -0.7927
vn -0.5659 0.3065 -0.7654
vn -0.4387 0.2592 0.8604
vn -0.1256 -0.2213 0.9671
vn 0.7083 -0.3200 -0.6292
vn -0.6910 0.6960 -0.1955
vn -0.7182 0.5528 0.4225
vn 0.4939 -0.7353 0.4640
vn -0.7756 0.4885 -0.3999
vn -0.5305 -0.3411 -0.7760
vn -0.4429 -0.8899 -0.1095
usemtl Textured_mesh_1
s 1
f 19/1/1 25/2/2 10/3/3
f 37/4/4 5/5/5 6/6/6 38/7/7
f 11/8/8 8/9/9 15/10/10
f 52/11/11 16/12/12 43/13/13
f 18/14/14 24/15/15 5/16/5
f 7/17/16 20/18/17 26/19/18
f 3/20/19 11/21/8 15/22/10
f 3/23/19 6/24/6 19/25/1
f 25/26/2 13/27/20 21/28/21
f 12/29/22 22/30/23 11/31/8
f 21/32/21 26/19/18 9/33/24
f 14/34/25 7/17/16 26/19/18
f 4/35/26 20/36/17 27/37/27
f 17/38/28 22/30/23 12/29/22
f 13/39/20 27/40/27 14/41/25
f 4/42/26 27/40/27 2/43/29
f 1/44/30 2/43/29 17/45/28
f 21/46/21 13/47/20 14/48/25
f 40/49/31 15/50/10 23/51/32 32/52/33
f 9/53/24 28/54/34 12/55/22
f 28/56/34 9/57/24 16/58/12
f 25/59/2 21/32/21 10/3/3
f 29/60/35 25/61/2 19/62/1
f 25/63/2 30/64/36 22/65/23
f 13/39/20 25/63/2 22/65/23
f 45/66/37 42/67/38 26/68/18
f 11/69/8 3/70/19 10/3/3
f 35/71/39 24/72/15 18/73/14
f 8/74/9 23/51/32 15/75/10
f 2/76/29 28/77/34 4/78/26
f 12/79/22 21/32/21 9/33/24
f 21/32/21 11/69/8 10/3/3
f 19/80/1 6/81/6 5/82/5
f 41/83/40 6/84/6 3/85/19 33/86/41
f 28/54/34 1/87/30 12/55/22
f 12/88/22 11/89/8 21/90/21
f 27/91/27 20/92/17 7/93/16
f 29/60/35 19/62/1 24/15/15
f 47/94/42 48/95/43 4/96/26
f 39/97/44 6/98/6 36/99/45
f 26/19/18 21/32/21 14/34/25
f 31/100/46 8/101/9 30/102/36
f 49/103/47 46/104/48 20/18/17
f 8/105/9 31/106/46 29/107/35
f 13/39/20 17/45/28 2/43/29
f 27/40/27 13/39/20 2/43/29
f 17/45/28 13/39/20 22/65/23
f 8/101/9 22/108/23 30/102/36
f 31/109/46 25/61/2 29/60/35
f 25/61/2 31/109/46 30/110/36
f 8/74/9 11/111/8 22/112/23
f 1/113/30 28/54/34 2/114/29
f 19/62/1 5/16/5 24/15/15
f 18/115/14 5/116/5 37/117/4
f 1/118/30 17/119/28 12/120/22
f 23/121/32 29/122/35 24/72/15
f 23/121/32 8/123/9 29/122/35
f 14/124/25 27/125/27 7/126/16
f 9/127/24 26/128/18 16/129/12
f 39/130/44 38/131/7 6/132/6
f 3/70/19 19/1/1 10/3/3
f 6/98/6 41/133/40 36/99/45
f 23/121/32 24/72/15 35/71/39 34/134/49
f 15/135/10 40/136/31 33/137/41 3/138/19
f 23/139/32 34/140/49 32/141/33
f 20/92/17 51/142/50 49/143/47
f 20/144/17 4/145/26 48/146/43 51/147/50
f 4/96/26 50/148/51 47/94/42
f 20/18/17 46/104/48 45/149/37 26/19/18
f 28/150/34 44/151/52 50/148/51 4/96/26
f 16/152/12 52/153/11 44/154/52 28/155/34
f 16/156/12 26/68/18 42/67/38 43/157/13
f 51/147/50 48/146/43 47/94/42 50/148/51 44/151/52 52/153/11 43/13/13 42/67/38 45/66/37 46/104/48 49/103/47
f 41/133/40 33/86/41 32/52/33
f 38/7/7 39/97/44 36/99/45
f 38/7/7 36/99/45 41/133/40
f 18/73/14 37/117/4 35/71/39
f 37/117/4 38/7/7 41/133/40
f 34/140/49 35/71/39 41/133/40
f 41/133/40 35/71/39 37/117/4
f 33/86/41 40/136/31 32/52/33
f 32/52/33 34/140/49 41/133/40
