# Blender v2.79 (sub 0) OBJ File: 'aktuell.blend'
# www.blender.org
mtllib Textured_mesh_1.mtl
o HL_Tarsus_R_Textured_mesh_1.032
v 0.090100 -0.025609 0.000513
v 0.068464 -0.022884 -0.029821
v 0.214306 0.010470 0.016376
v 0.040449 -0.001734 -0.024784
v 0.287915 0.032750 -0.006712
v 0.272896 0.020165 0.010901
v 0.049519 0.009238 0.002032
v 0.189191 -0.012570 -0.013833
v 0.068019 -0.007097 0.033234
v 0.168852 0.020713 -0.000864
v 0.176987 -0.002638 0.026081
v 0.130450 -0.010691 0.024038
v 0.110503 0.013449 -0.008387
v 0.105022 0.019782 -0.005723
v 0.218273 -0.000984 0.018268
v 0.041087 -0.017128 0.012405
v 0.121079 -0.014297 -0.002431
v 0.312587 0.023425 -0.019866
v 0.230170 0.029074 -0.006069
v 0.025934 0.016657 -0.014231
v 0.137808 0.011004 0.028372
v 0.140723 -0.019227 -0.016861
v 0.255273 -0.009987 -0.009076
v 0.280101 0.009780 -0.028714
v 0.158474 0.023864 -0.017593
v 0.043920 0.000140 0.016061
v 0.055507 0.018957 -0.029485
v 0.045040 -0.023405 -0.011239
v 0.203924 0.003528 -0.021561
v 0.169539 -0.006641 -0.025906
v 0.184398 -0.002446 -0.025754
v 0.276021 -0.007161 0.009735
v 0.273611 -0.005787 0.011642
v 0.296600 -0.014611 -0.006600
v 0.303004 -0.009398 -0.011773
v 0.273203 0.018926 0.011674
v 0.289163 0.033877 -0.001241
v 0.273360 0.020567 0.011529
v 0.272755 0.019754 0.012021
v 0.273397 -0.006488 0.011821
v 0.274125 0.013320 0.011005
v 0.015645 -0.008310 0.014621
v 0.015799 -0.018227 0.012499
v 0.016075 -0.030859 -0.017367
v 0.015525 -0.001623 0.021795
v 0.015455 0.006003 0.007128
v 0.015790 -0.009405 -0.028902
v 0.015615 0.002372 -0.028762
v 0.015378 0.015603 -0.015363
v 0.015976 -0.023367 -0.021525
v 0.015420 0.013672 -0.019719
v 0.016017 -0.028508 -0.009437
v -0.083292 -0.020873 0.002759
v -0.046702 -0.012383 0.015668
v 0.003978 -0.033972 -0.019927
v -0.014921 -0.024220 -0.006218
v -0.223933 0.021176 0.026157
v -0.213492 -0.039138 0.035020
v -0.174814 0.011448 0.019233
v -0.176123 0.019313 -0.014347
v -0.143152 0.017007 0.022445
v -0.042261 0.017743 -0.013014
v -0.068141 0.006164 -0.027304
v -0.075280 -0.015357 -0.004938
v -0.191524 -0.004635 -0.020947
v -0.156258 0.004234 -0.023790
v -0.226598 -0.031668 0.019671
v -0.020391 0.012033 -0.019198
v -0.165302 -0.021737 0.002046
v -0.137843 0.024314 0.000746
v -0.134303 -0.033859 0.007868
v 0.007460 -0.002124 0.023423
v -0.214403 0.034494 -0.018064
v -0.056327 -0.026430 -0.028260
v -0.229898 -0.005235 -0.001803
v -0.114697 0.023034 -0.009660
v -0.023213 -0.019922 0.012643
v -0.219306 -0.022531 -0.017418
v -0.201145 0.039376 0.029510
v -0.210269 0.042672 0.017914
v -0.129487 -0.024398 -0.008095
v -0.096656 -0.009014 0.029963
v -0.017910 0.000992 0.014370
v -0.147289 -0.007981 0.029765
v -0.199025 -0.035562 0.006155
v -0.170253 0.021109 0.012001
v -0.201746 0.010052 0.028650
v -0.009662 0.006550 -0.032810
v -0.223092 0.056624 0.022472
v -0.090264 0.009435 0.026059
v -0.080048 0.007327 -0.010488
v -0.191232 0.043757 -0.007315
v -0.208560 0.056442 0.011922
v -0.181241 0.036687 0.023361
v -0.060128 -0.001344 0.019598
v -0.026747 -0.014391 -0.021515
v -0.009501 -0.017272 -0.033126
v 0.015645 -0.008310 0.014621
v 0.015799 -0.018227 0.012499
v 0.016075 -0.030859 -0.017367
v 0.015525 -0.001623 0.021795
v 0.015455 0.006003 0.007128
v 0.015790 -0.009405 -0.028902
v 0.015615 0.002372 -0.028762
v 0.015378 0.015603 -0.015363
v 0.015976 -0.023367 -0.021525
v 0.015420 0.013672 -0.019719
v 0.016017 -0.028508 -0.009437
vt 0.491595 0.734525
vt 0.495811 0.733606
vt 0.496840 0.735268
vt 0.006756 0.942052
vt 0.006903 0.941715
vt 0.009763 0.941948
vt 0.009690 0.942001
vt 0.194921 0.032961
vt 0.197761 0.029189
vt 0.199693 0.036634
vt 0.327954 0.893172
vt 0.329926 0.893584
vt 0.327902 0.894846
vt 0.492547 0.449403
vt 0.488561 0.445968
vt 0.493813 0.445068
vt 0.514566 0.738498
vt 0.521873 0.738123
vt 0.515189 0.741309
vt 0.214086 0.464269
vt 0.212867 0.464740
vt 0.214708 0.462001
vt 0.803666 0.428519
vt 0.801727 0.437373
vt 0.800879 0.430442
vt 0.468372 0.438362
vt 0.463965 0.436133
vt 0.468438 0.435989
vt 0.808454 0.960605
vt 0.803967 0.956978
vt 0.810744 0.957778
vt 0.502649 0.737595
vt 0.508987 0.741446
vt 0.508053 0.734100
vt 0.783240 0.135552
vt 0.783848 0.136431
vt 0.781520 0.137013
vt 0.803625 0.960621
vt 0.497774 0.475585
vt 0.499949 0.485146
vt 0.498040 0.477282
vt 0.503036 0.487239
vt 0.502936 0.482306
vt 0.504615 0.477563
vt 0.500606 0.471981
vt 0.482913 0.424172
vt 0.479550 0.422765
vt 0.479954 0.421128
vt 0.828933 0.293027
vt 0.827662 0.298604
vt 0.825698 0.294354
vt 0.828776 0.292723
vt 0.222724 0.208090
vt 0.218396 0.211837
vt 0.221413 0.206077
vt 0.714122 0.498547
vt 0.719891 0.496612
vt 0.717649 0.498680
vt 0.498814 0.732576
vt 0.483397 0.436608
vt 0.482890 0.429182
vt 0.488264 0.437438
vt 0.494593 0.469999
vt 0.497095 0.464285
vt 0.499533 0.469026
vt 0.267088 0.939535
vt 0.268933 0.938403
vt 0.271393 0.938845
vt 0.496785 0.739997
vt 0.492151 0.738562
vt 0.953657 0.332078
vt 0.949764 0.336577
vt 0.951067 0.330746
vt 0.819815 0.301051
vt 0.824280 0.299946
vt 0.478507 0.080987
vt 0.480872 0.080896
vt 0.478426 0.082711
vt 0.504293 0.739944
vt 0.499973 0.556404
vt 0.502851 0.557495
vt 0.500796 0.559708
vt 0.382261 0.744181
vt 0.382687 0.744534
vt 0.384581 0.740579
vt 0.381236 0.742969
vt 0.218879 0.207883
vt 0.853941 0.445498
vt 0.855708 0.447555
vt 0.853884 0.447271
vt 0.310897 0.033262
vt 0.315109 0.034457
vt 0.309473 0.036240
vt 0.506456 0.490550
vt 0.505530 0.491133
vt 0.504678 0.487247
vt 0.712939 0.194912
vt 0.712803 0.194951
vt 0.712955 0.194798
vt 0.280110 0.936995
vt 0.278844 0.939047
vt 0.277788 0.937037
vt 0.523097 0.738495
vt 0.521131 0.741157
vt 0.946118 0.817527
vt 0.946967 0.815770
vt 0.948456 0.815772
vt 0.273341 0.937941
vt 0.481683 0.434610
vt 0.479704 0.433025
vt 0.822518 0.305599
vt 0.817571 0.304867
vt 0.217068 0.208709
vt 0.215205 0.210355
vt 0.821559 0.249280
vt 0.822558 0.249222
vt 0.822542 0.249529
vt 0.624515 0.550250
vt 0.624259 0.544428
vt 0.626009 0.545920
vt 0.954196 0.338544
vt 0.951728 0.345831
vt 0.954238 0.345516
vt 0.317434 0.577520
vt 0.315962 0.574638
vt 0.318401 0.574480
vt 0.317936 0.899718
vt 0.313956 0.897586
vt 0.315716 0.896351
vt 0.974471 0.958704
vt 0.974461 0.958785
vt 0.974380 0.958716
vt 0.712683 0.193893
vt 0.954825 0.332577
vt 0.814307 0.214523
vt 0.819817 0.219274
vt 0.819958 0.219494
vt 0.815735 0.217264
vt 0.475737 0.367693
vt 0.478928 0.362721
vt 0.479502 0.366682
vt 0.316168 0.033824
vt 0.315913 0.034563
vt 0.554898 0.681969
vt 0.558453 0.681929
vt 0.556106 0.683140
vt 0.554549 0.682679
vt 0.508627 0.489599
vt 0.519376 0.742993
vt 0.506003 0.485017
vt 0.509219 0.489063
vt 0.897563 0.970885
vt 0.895866 0.972762
vt 0.894837 0.972312
vt 0.894324 0.969077
vt 0.271404 0.936767
vt 0.269102 0.937172
vt 0.769448 0.944634
vt 0.769706 0.947785
vt 0.770987 0.945732
vt 0.310309 0.889693
vt 0.306177 0.891996
vt 0.307356 0.891192
vt 0.906968 0.319029
vt 0.909678 0.316262
vt 0.913905 0.321015
vt 0.536306 0.746534
vt 0.543621 0.745387
vt 0.544676 0.747836
vt 0.821656 0.361457
vt 0.818468 0.363916
vt 0.819767 0.361159
vt 0.350198 0.632745
vt 0.346219 0.628155
vt 0.347533 0.622030
vt 0.342982 0.615084
vt 0.346580 0.617204
vt 0.521131 0.741157
vt 0.520565 0.743472
vt 0.519376 0.742993
vt 0.913650 0.323887
vt 0.912304 0.325384
vt 0.909001 0.322893
vt 0.347267 0.634720
vt 0.346688 0.632749
vt 0.527320 0.745928
vt 0.524334 0.744531
vt 0.525404 0.743539
vt 0.300214 0.892350
vt 0.294986 0.892766
vt 0.298284 0.890651
vt 0.294506 0.888351
vt 0.341568 0.621701
vt 0.788578 0.249766
vt 0.789101 0.250655
vt 0.787913 0.252084
vt 0.511307 0.502262
vt 0.509475 0.497569
vt 0.511131 0.495695
vt 0.341063 0.617783
vt 0.339831 0.616237
vt 0.351318 0.627005
vt 0.354254 0.635457
vt 0.527245 0.739757
vt 0.530754 0.740532
vt 0.549325 0.749256
vt 0.552854 0.751519
vt 0.553430 0.757189
vt 0.334017 0.702507
vt 0.338996 0.701405
vt 0.336838 0.703830
vt 0.342096 0.617883
vt 0.126766 0.230404
vt 0.123740 0.231466
vt 0.124888 0.230016
vt 0.813072 0.360255
vt 0.814661 0.362655
vt 0.423173 0.320456
vt 0.424133 0.317744
vt 0.424624 0.319966
vt 0.537297 0.748790
vt 0.542967 0.750463
vt 0.556054 0.751332
vt 0.303611 0.893381
vt 0.301413 0.889388
vt 0.478415 0.354101
vt 0.478022 0.359271
vt 0.475244 0.357168
vt 0.530942 0.744686
vt 0.533390 0.718238
vt 0.533856 0.720043
vt 0.529239 0.720578
vt 0.115724 0.015678
vt 0.109863 0.016322
vt 0.111165 0.012594
vt 0.548732 0.747823
vt 0.550872 0.745175
vt 0.349824 0.638046
vt 0.501273 0.571502
vt 0.501621 0.568641
vt 0.503961 0.568455
vt 0.688273 0.553983
vt 0.686902 0.552732
vt 0.689196 0.551374
vt 0.355471 0.630268
vt 0.545909 0.745039
vt 0.288969 0.891054
vt 0.283585 0.890327
vt 0.286040 0.887171
vt 0.535253 0.743115
vt 0.534514 0.741710
vt 0.422599 0.315895
vt 0.350514 0.622174
vt 0.540781 0.742729
vt 0.676580 0.940908
vt 0.674965 0.938043
vt 0.678643 0.936508
vt 0.813373 0.357942
vt 0.810524 0.359079
vt 0.914291 0.310688
vt 0.316168 0.033824
vt 0.318694 0.032315
vt 0.318636 0.034925
vt 0.315913 0.034563
vt 0.349298 0.619042
vt 0.269102 0.937172
vt 0.268933 0.938403
vt 0.265551 0.937796
vt 0.908422 0.312642
vt 0.509219 0.489063
vt 0.510562 0.490752
vt 0.508627 0.489599
vt 0.959078 0.201276
vt 0.958013 0.198178
vt 0.961730 0.197344
vt 0.425547 0.314054
vt 0.554549 0.682679
vt 0.556106 0.683140
vt 0.553717 0.684373
vt 0.357267 0.634638
vt 0.357524 0.632294
vt 0.536087 0.743431
vt 0.426768 0.318568
vt 0.426070 0.315489
vt 0.030681 0.981271
vt 0.034865 0.984271
vt 0.032120 0.984558
vt 0.712986 0.591959
vt 0.710926 0.587799
vt 0.713725 0.589088
vt 0.034862 0.972198
vt 0.031592 0.970146
vt 0.035168 0.970453
vt 0.514437 0.499775
vt 0.512448 0.492957
vt 0.508279 0.493938
vt 0.506456 0.490550
vt 0.119614 0.019828
vt 0.120168 0.021552
vt 0.118347 0.017877
vt 0.238985 0.684347
vt 0.237649 0.686339
vt 0.234868 0.685435
vt 0.234640 0.683985
vt 0.237039 0.683527
vt 0.344958 0.627097
vt 0.490227 0.585042
vt 0.491198 0.583753
vt 0.488581 0.588053
vt 0.691338 0.366086
vt 0.688949 0.367625
vt 0.687855 0.364199
vt 0.895866 0.972762
vt 0.895051 0.973663
vt 0.894837 0.972312
vt 0.114201 0.018704
vt 0.676295 0.705783
vt 0.672388 0.704882
vt 0.677826 0.704967
vt 0.554549 0.748604
vt 0.555424 0.746744
vt 0.506398 0.495087
vt 0.505530 0.491133
vt 0.523097 0.738495
vt 0.327007 0.892974
vt 0.327954 0.893172
vt 0.327902 0.894846
vt 0.324780 0.896793
vt 0.265865 0.939731
vt 0.267088 0.939535
vn 0.0529 0.9975 0.0460
vn -0.2421 0.5501 -0.7992
vn -0.0635 0.9435 0.3251
vn -0.0664 0.7451 0.6636
vn 0.2074 0.8623 -0.4620
vn -0.6143 0.4099 0.6742
vn -0.2940 0.5113 0.8075
vn 0.1196 0.0059 0.9928
vn 0.2303 -0.8778 -0.4200
vn 0.1740 -0.4121 0.8944
vn -0.7506 -0.6599 0.0324
vn 0.0037 -0.8928 0.4505
vn -0.3250 -0.5897 0.7393
vn 0.8999 0.4272 -0.0875
vn 0.1348 -0.0645 -0.9888
vn -0.0231 0.8505 0.5255
vn -0.0966 0.9905 -0.0980
vn -0.2985 0.4547 0.8392
vn 0.1554 0.6144 0.7735
vn 0.0959 0.4916 -0.8655
vn -0.1125 0.5529 0.8256
vn -0.0658 -0.7221 0.6886
vn -0.3317 -0.5759 -0.7472
vn -0.2820 -0.1128 0.9527
vn -0.2807 0.9352 -0.2159
vn -0.4050 0.5998 -0.6901
vn 0.2914 0.5099 -0.8094
vn -0.1031 -0.9003 -0.4228
vn 0.3240 -0.5646 -0.7591
vn -0.1140 -0.9013 0.4179
vn 0.4042 -0.3823 0.8309
vn -0.1049 -0.8577 -0.5033
vn 0.6157 -0.5503 0.5640
vn -0.1852 -0.9656 -0.1826
vn 0.0772 0.0079 -0.9970
vn -0.0856 -0.0007 -0.9963
vn -0.3138 0.0564 0.9478
vn -0.7155 -0.2416 0.6555
vn 0.7031 -0.7009 0.1198
vn 0.5944 -0.1247 0.7944
vn 0.4634 -0.1557 0.8724
vn -0.5870 -0.1643 -0.7927
vn -0.5659 0.3065 -0.7654
vn -0.4386 0.2592 0.8605
vn -0.1256 -0.2213 0.9671
vn 0.7083 -0.3200 -0.6292
vn -0.6910 0.6960 -0.1955
vn -0.7182 0.5528 0.4225
vn 0.4939 -0.7353 0.4640
vn -0.7756 0.4885 -0.3999
vn -0.5305 -0.3411 -0.7760
vn -0.4429 -0.8899 -0.1095
vn 0.0819 -0.6103 0.7880
vn 0.1429 -0.9169 -0.3726
vn -0.1138 -0.7882 -0.6048
vn 0.2514 -0.9427 -0.2194
vn 0.0714 -0.4934 0.8669
vn -0.2731 -0.9619 0.0134
vn -0.1283 0.8198 -0.5581
vn -0.9958 0.0719 -0.0561
vn -0.7761 -0.0399 0.6294
vn 0.2412 0.5427 0.8046
vn 0.1127 0.9936 -0.0116
vn 0.0058 0.7352 0.6778
vn -0.2516 0.5657 -0.7853
vn -0.6321 -0.7241 -0.2759
vn 0.1155 -0.3760 -0.9194
vn 0.0146 0.1028 -0.9946
vn 0.1705 -0.6498 -0.7407
vn 0.6251 0.7523 0.2083
vn 0.0353 0.3877 0.9211
vn 0.4848 0.1873 0.8543
vn -0.9633 0.1181 -0.2410
vn 0.0845 -0.7586 0.6461
vn 0.4207 0.8416 -0.3389
vn 0.1902 0.7034 -0.6849
vn -0.6559 0.0563 0.7528
vn 0.1746 -0.1099 0.9785
vn -0.2840 -0.9532 0.1039
vn 0.0749 0.7554 -0.6509
vn 0.0790 0.2323 -0.9694
vn -0.0714 -0.1643 -0.9838
vn -0.2189 -0.5637 -0.7964
vn -0.0838 0.9818 -0.1705
vn -0.2245 0.6910 -0.6871
vn -0.2033 -0.9356 0.2887
vn -0.6161 -0.3829 -0.6883
vn -0.1664 0.9544 -0.2478
vn 0.3946 -0.1459 0.9072
vn 0.3133 0.2775 0.9082
vn 0.0866 -0.8117 0.5777
vn -0.3602 -0.1142 0.9259
vn 0.2484 0.8379 0.4860
vn 0.5343 0.7186 0.4451
vn 0.5151 0.7441 0.4254
vn 0.4453 0.2517 0.8593
vn 0.0809 0.2517 0.9644
vn -0.0761 -0.9669 -0.2437
vn -0.5520 -0.8336 -0.0205
vn 0.6857 0.4258 -0.5903
vn 0.6506 0.7471 0.1363
vn 0.3609 -0.5541 0.7501
vn 0.7937 -0.3768 0.4775
vn 0.8508 -0.5063 -0.1407
vn 0.6533 -0.5735 -0.4943
vn 0.6175 0.4332 -0.6565
vn 0.7709 -0.3835 -0.5086
vn 0.8692 -0.4195 0.2616
usemtl Textured_mesh_1
s 1
f 19/1/1 25/2/2 10/3/3
f 37/4/4 5/5/5 6/6/6 38/7/7
f 11/8/8 8/9/9 15/10/10
f 52/11/11 16/12/12 43/13/13
f 18/14/14 24/15/15 5/16/5
f 7/17/16 20/18/17 26/19/18
f 3/20/19 11/21/8 15/22/10
f 3/23/19 6/24/6 19/25/1
f 25/26/2 13/27/20 21/28/21
f 12/29/22 22/30/23 11/31/8
f 21/32/21 26/19/18 9/33/24
f 14/34/25 7/17/16 26/19/18
f 4/35/26 20/36/17 27/37/27
f 17/38/28 22/30/23 12/29/22
f 13/39/20 27/40/27 14/41/25
f 4/42/26 27/40/27 2/43/29
f 1/44/30 2/43/29 17/45/28
f 21/46/21 13/47/20 14/48/25
f 40/49/31 15/50/10 23/51/32 32/52/33
f 9/53/24 28/54/34 12/55/22
f 28/56/34 9/57/24 16/58/12
f 25/59/2 21/32/21 10/3/3
f 29/60/35 25/61/2 19/62/1
f 25/63/2 30/64/36 22/65/23
f 13/39/20 25/63/2 22/65/23
f 45/66/37 42/67/38 26/68/18
f 11/69/8 3/70/19 10/3/3
f 35/71/39 24/72/15 18/73/14
f 8/74/9 23/51/32 15/75/10
f 2/76/29 28/77/34 4/78/26
f 12/79/22 21/32/21 9/33/24
f 21/32/21 11/69/8 10/3/3
f 19/80/1 6/81/6 5/82/5
f 41/83/40 6/84/6 3/85/19 33/86/41
f 28/54/34 1/87/30 12/55/22
f 12/88/22 11/89/8 21/90/21
f 27/91/27 20/92/17 7/93/16
f 29/60/35 19/62/1 24/15/15
f 47/94/42 48/95/43 4/96/26
f 39/97/44 6/98/6 36/99/45
f 26/19/18 21/32/21 14/34/25
f 31/100/46 8/101/9 30/102/36
f 49/103/47 46/104/48 20/18/17
f 8/105/9 31/106/46 29/107/35
f 13/39/20 17/45/28 2/43/29
f 27/40/27 13/39/20 2/43/29
f 17/45/28 13/39/20 22/65/23
f 8/101/9 22/108/23 30/102/36
f 31/109/46 25/61/2 29/60/35
f 25/61/2 31/109/46 30/110/36
f 8/74/9 11/111/8 22/112/23
f 1/113/30 28/54/34 2/114/29
f 19/62/1 5/16/5 24/15/15
f 18/115/14 5/116/5 37/117/4
f 1/118/30 17/119/28 12/120/22
f 23/121/32 29/122/35 24/72/15
f 23/121/32 8/123/9 29/122/35
f 14/124/25 27/125/27 7/126/16
f 9/127/24 26/128/18 16/129/12
f 39/130/44 38/131/7 6/132/6
f 3/70/19 19/1/1 10/3/3
f 6/98/6 41/133/40 36/99/45
f 23/121/32 24/72/15 35/71/39 34/134/49
f 15/135/10 40/136/31 33/137/41 3/138/19
f 23/139/32 34/140/49 32/141/33
f 20/92/17 51/142/50 49/143/47
f 20/144/17 4/145/26 48/146/43 51/147/50
f 4/96/26 50/148/51 47/94/42
f 20/18/17 46/104/48 45/149/37 26/19/18
f 28/150/34 44/151/52 50/148/51 4/96/26
f 16/152/12 52/153/11 44/154/52 28/155/34
f 16/156/12 26/68/18 42/67/38 43/157/13
f 51/147/50 48/146/43 47/94/42 50/148/51 44/151/52 52/153/11 43/13/13 42/67/38 45/66/37 46/104/48 49/103/47
f 41/133/40 33/86/41 32/52/33
f 54/158/53 53/159/54 64/160/55
f 55/161/56 77/162/57 56/163/58
f 73/164/59 75/165/60 57/166/61
f 90/167/62 70/168/63 61/169/64
f 64/170/55 63/171/65 74/172/66
f 65/173/67 66/174/68 81/175/69
f 81/175/69 64/176/55 53/177/54
f 102/178/70 72/179/71 101/180/72
f 80/181/73 93/182/74 73/183/59
f 65/173/67 92/184/75 60/185/76
f 54/186/53 77/187/57 83/188/77
f 54/189/53 82/190/78 53/191/54
f 82/190/78 71/192/79 53/191/54
f 81/175/69 66/174/68 76/193/80
f 88/194/81 97/195/82 96/196/83
f 63/197/65 68/198/84 96/199/83
f 64/176/55 91/200/85 63/201/65
f 69/202/86 78/203/87 65/173/67
f 68/204/84 62/205/88 83/188/77
f 59/206/89 87/207/90 58/208/91
f 69/209/86 71/210/79 84/211/92
f 91/212/85 81/175/69 76/193/80
f 80/213/73 89/214/93 93/215/74
f 68/216/84 63/171/65 62/217/88
f 86/218/94 94/219/95 59/220/89
f 90/167/62 61/169/64 82/221/78
f 82/221/78 61/169/64 84/222/92
f 87/207/90 57/223/61 58/208/91
f 54/224/53 64/225/55 77/162/57
f 77/226/57 64/227/55 74/228/66
f 82/221/78 95/229/96 90/167/62
f 54/230/53 95/231/96 82/232/78
f 60/233/76 70/234/63 66/235/68
f 86/236/94 61/169/64 60/237/76
f 73/238/59 92/184/75 65/173/67
f 58/239/91 69/240/86 59/241/89
f 79/242/97 57/243/61 87/244/90
f 78/203/87 69/202/86 85/245/98
f 61/169/64 70/246/63 60/237/76
f 84/247/92 59/248/89 69/249/86
f 91/250/85 95/229/96 63/251/65
f 94/219/95 86/218/94 92/252/75
f 69/202/86 81/175/69 71/253/79
f 90/167/62 76/254/80 70/168/63
f 58/255/91 85/256/98 69/257/86
f 96/258/83 68/216/84 88/259/81
f 81/175/69 69/202/86 65/173/67
f 71/192/79 82/190/78 84/247/92
f 57/166/61 75/165/60 67/260/99
f 107/261/100 88/262/81 68/263/84 105/264/101
f 71/265/79 81/175/69 53/177/54
f 99/266/102 98/267/103 77/268/57
f 67/260/99 75/165/60 78/269/87
f 100/270/104 55/271/56 106/272/105
f 62/205/88 95/229/96 83/188/77
f 65/173/67 78/203/87 73/238/59
f 65/273/67 60/274/76 66/275/68
f 80/276/73 94/219/95 92/252/75
f 107/277/100 104/278/106 88/279/81
f 67/280/99 78/203/87 85/281/98
f 84/222/92 61/169/64 86/236/94
f 90/167/62 91/282/85 76/254/80
f 87/283/90 94/219/95 79/284/97
f 95/229/96 54/186/53 83/188/77
f 86/236/94 59/206/89 84/222/92
f 92/285/75 89/286/93 80/287/73
f 68/204/84 83/188/77 72/179/71
f 81/288/69 91/289/85 64/290/55
f 77/291/57 74/292/66 56/293/58
f 96/199/83 74/294/66 63/197/65
f 56/295/58 74/294/66 96/199/83
f 106/272/105 55/271/56 97/296/82 103/297/107
f 73/298/59 93/299/74 92/300/75
f 55/301/56 56/302/58 96/303/83
f 96/304/83 97/305/82 55/301/56
f 78/269/87 75/165/60 73/164/59
f 70/306/63 76/193/80 66/174/68
f 57/166/61 80/181/73 73/183/59
f 93/307/74 89/308/93 92/309/75
f 58/310/91 67/311/99 85/312/98
f 108/313/108 55/314/56 100/315/104
f 86/316/94 60/233/76 92/300/75
f 72/179/71 83/188/77 77/187/57
f 79/284/97 94/219/95 80/276/73
f 91/282/85 90/167/62 95/229/96
f 59/220/89 94/219/95 87/283/90
f 58/317/91 57/318/61 67/319/99
f 63/251/65 95/229/96 62/205/88
f 79/320/97 80/321/73 57/223/61
f 97/296/82 88/322/81 104/323/106 103/297/107
f 68/204/84 72/179/71 102/178/70 105/324/101
f 55/325/56 108/326/108 99/327/102 77/328/57
f 72/329/71 77/268/57 98/267/103 101/330/72
f 107/277/100 105/324/101 102/178/70 101/330/72 98/267/103 99/327/102 108/313/108 100/270/104 106/272/105 103/297/107 104/278/106
f 38/7/7 39/97/44 36/99/45
f 38/7/7 36/99/45 41/133/40
f 18/73/14 37/117/4 35/71/39
f 37/117/4 38/7/7 41/133/40
f 34/140/49 35/71/39 41/133/40
f 41/133/40 35/71/39 37/117/4
f 33/86/41 40/136/31 32/52/33
f 32/52/33 34/140/49 41/133/40
