# Blender v2.79 (sub 0) OBJ File: 'aktuell.blend'
# www.blender.org
mtllib Textured_mesh_1.mtl
o FL_Tarsus_R_Textured_mesh_1.009
v 0.033745 0.004518 -0.033930
v 0.094016 -0.021398 -0.014690
v 0.034152 -0.008805 -0.024678
v 0.047848 -0.021105 -0.009250
v 0.031093 -0.012998 0.008924
v 0.149001 0.022729 -0.008799
v 0.179483 0.012201 0.008206
v 0.111898 0.011110 0.018763
v 0.174334 0.019392 0.013338
v 0.183096 -0.016646 0.004888
v 0.147038 0.012639 0.020927
v 0.156313 -0.019724 -0.003141
v 0.060222 -0.000527 0.023002
v 0.180455 -0.007512 -0.019423
v 0.150736 -0.009789 -0.017115
v 0.097227 -0.000436 -0.027187
v 0.059059 0.014782 -0.024988
v 0.142694 0.017884 -0.024256
v 0.040875 0.021960 -0.007384
v 0.203390 0.019290 -0.007152
v 0.194046 0.015296 -0.020855
v 0.098965 0.019065 -0.016602
v 0.177307 -0.000652 0.010719
v 0.093682 0.003332 0.010988
v 0.108755 -0.013839 0.001591
v 0.203300 0.019606 -0.005955
v 0.174920 0.019639 0.013819
v 0.180381 -0.002658 0.010244
v 0.174103 0.018706 0.014397
v 0.198413 -0.015989 -0.002181
v 0.201284 0.004415 -0.004393
v 0.205967 0.016140 -0.007777
v 0.176688 -0.000486 0.012795
v 0.178250 -0.001096 0.011713
v 0.204090 0.019226 -0.006501
v 0.187930 -0.017337 0.005137
v 0.027857 0.021195 -0.004024
v 0.028138 -0.002662 0.013167
v 0.027900 0.024228 -0.024414
v 0.028220 0.004910 -0.031979
v 0.028105 -0.000763 0.014087
v 0.028131 0.008787 -0.024812
v 0.028034 0.016367 -0.028535
v 0.028241 0.003388 -0.031755
v 0.027889 0.023931 -0.020900
v 0.028116 -0.001290 0.013349
v 0.027913 0.023446 -0.024847
v 0.028097 0.000091 0.013140
v 0.028400 -0.010915 -0.019292
v 0.028323 -0.013696 0.008331
v 0.028384 -0.008670 -0.023325
v 0.012965 0.020320 -0.000181
v -0.102615 -0.008428 0.019941
v -0.095644 0.008393 0.029812
v -0.131496 -0.016651 0.049554
v -0.127278 -0.030478 -0.008196
v -0.067443 -0.023477 0.006469
v -0.062230 -0.014883 0.025006
v 0.027596 -0.000767 0.013945
v -0.016145 -0.013549 0.027747
v -0.072821 0.023179 0.030537
v -0.089504 -0.019728 -0.007798
v -0.131146 0.007851 0.033218
v -0.140607 0.018008 0.012969
v 0.004372 -0.019730 0.003206
v -0.024456 -0.007432 -0.010928
v -0.075612 -0.016060 -0.017832
v -0.058347 0.006647 0.040307
v -0.134617 -0.005360 -0.027189
v -0.124748 -0.038533 -0.021560
v -0.135572 -0.016899 -0.035019
v -0.146923 -0.019064 -0.033155
v 0.024113 0.024503 -0.024830
v -0.145647 -0.007665 0.036257
v -0.141916 -0.016633 0.029543
v -0.141364 -0.005776 0.047911
v -0.119425 0.008030 -0.022473
v -0.011276 0.017555 0.010440
v -0.133016 -0.038150 -0.027038
v -0.086291 0.024820 -0.000445
v -0.030342 0.009059 -0.011299
v 0.027857 0.021195 -0.004024
v 0.028138 -0.002662 0.013167
v 0.027900 0.024228 -0.024414
v 0.028220 0.004910 -0.031979
v 0.028105 -0.000763 0.014087
v 0.028131 0.008787 -0.024812
v 0.028035 0.016367 -0.028535
v 0.028242 0.003388 -0.031755
v 0.027889 0.023931 -0.020900
v 0.028116 -0.001290 0.013349
v 0.027913 0.023446 -0.024847
v 0.028097 0.000091 0.013140
v 0.028400 -0.010915 -0.019292
v 0.028323 -0.013696 0.008331
v 0.028384 -0.008670 -0.023325
vt 0.253797 0.455465
vt 0.252950 0.455359
vt 0.253859 0.455331
vt 0.478434 0.635316
vt 0.481384 0.630724
vt 0.483305 0.634441
vt 0.507000 0.646540
vt 0.507370 0.646802
vt 0.506729 0.646673
vt 0.588577 0.723695
vt 0.589032 0.723829
vt 0.589096 0.724184
vt 0.499962 0.640345
vt 0.503658 0.642625
vt 0.489894 0.643366
vt 0.783003 0.426656
vt 0.782584 0.429088
vt 0.777183 0.422063
vt 0.104356 0.440609
vt 0.103767 0.441978
vt 0.103528 0.439318
vt 0.104113 0.439238
vt 0.791193 0.215246
vt 0.790737 0.215311
vt 0.790982 0.212442
vt 0.532225 0.537667
vt 0.529156 0.537712
vt 0.525312 0.534051
vt 0.105321 0.441783
vt 0.491049 0.640130
vt 0.489438 0.636287
vt 0.915763 0.920019
vt 0.915440 0.916384
vt 0.918526 0.920767
vt 0.127800 0.589936
vt 0.125431 0.589090
vt 0.130065 0.588284
vt 0.854655 0.906527
vt 0.850052 0.906654
vt 0.851262 0.903773
vt 0.782325 0.425077
vt 0.104682 0.986316
vt 0.105147 0.990815
vt 0.102324 0.989436
vt 0.506875 0.646087
vt 0.504564 0.642298
vt 0.502605 0.638253
vt 0.506347 0.640110
vt 0.102878 0.991735
vt 0.778667 0.416399
vt 0.780686 0.420680
vt 0.676709 0.472519
vt 0.676679 0.472477
vt 0.676745 0.472448
vt 0.924152 0.922823
vt 0.925555 0.926345
vt 0.923504 0.923564
vt 0.481066 0.639620
vt 0.772419 0.414324
vt 0.913542 0.901510
vt 0.913159 0.903763
vt 0.912488 0.902741
vt 0.487450 0.641065
vt 0.006084 0.768547
vt 0.008914 0.764686
vt 0.008450 0.769711
vt 0.498804 0.638150
vt 0.496175 0.644643
vt 0.852612 0.910359
vt 0.046207 0.834700
vt 0.047903 0.833471
vt 0.049805 0.836191
vt 0.782318 0.424903
vt 0.923229 0.926720
vt 0.479365 0.637437
vt 0.479633 0.637739
vt 0.920258 0.918655
vt 0.854716 0.901672
vt 0.858765 0.902422
vt 0.129144 0.586992
vt 0.491606 0.634902
vt 0.775172 0.410519
vt 0.771996 0.411902
vt 0.848872 0.911197
vt 0.674226 0.474262
vt 0.675550 0.474041
vt 0.532732 0.537902
vt 0.534086 0.541882
vt 0.533866 0.541915
vt 0.322178 0.711779
vt 0.322248 0.711887
vt 0.322133 0.711794
vt 0.848824 0.911189
vt 0.849958 0.906773
vt 0.522533 0.852201
vt 0.522786 0.852026
vt 0.526625 0.853182
vt 0.527020 0.853820
vt 0.575101 0.923968
vt 0.574881 0.923491
vt 0.575968 0.923081
vt 0.576292 0.923495
vt 0.913670 0.916039
vt 0.913307 0.914018
vt 0.913317 0.913038
vt 0.479560 0.637854
vt 0.775333 0.410464
vt 0.576164 0.923217
vt 0.913422 0.912934
vt 0.913769 0.912874
vt 0.916217 0.913713
vt 0.770768 0.412197
vt 0.949291 0.518167
vt 0.947442 0.515255
vt 0.953502 0.515773
vt 0.126979 0.787427
vt 0.124806 0.786051
vt 0.127772 0.784823
vt 0.574881 0.923491
vt 0.572867 0.919122
vt 0.575968 0.923081
vt 0.314971 0.029740
vt 0.311774 0.027467
vt 0.314394 0.029041
vt 0.775280 0.410370
vt 0.770683 0.404026
vt 0.774398 0.401265
vt 0.905962 0.339551
vt 0.904577 0.339876
vt 0.903173 0.333397
vt 0.951185 0.520749
vt 0.946500 0.521541
vt 0.771320 0.393369
vt 0.768039 0.391309
vt 0.768958 0.386262
vt 0.011187 0.089248
vt 0.012192 0.091671
vt 0.007680 0.090394
vt 0.288479 0.470739
vt 0.284505 0.471038
vt 0.286233 0.469836
vt 0.299242 0.469672
vt 0.295857 0.468397
vt 0.299082 0.468800
vt 0.123931 0.788505
vt 0.541843 0.987215
vt 0.542398 0.985749
vt 0.542145 0.987879
vt 0.027717 0.767515
vt 0.029240 0.768011
vt 0.025405 0.768763
vt 0.796178 0.213988
vt 0.791027 0.211916
vt 0.798402 0.211650
vt 0.285615 0.473211
vt 0.825364 0.071076
vt 0.823158 0.074544
vt 0.821071 0.072264
vt 0.899501 0.327752
vt 0.901191 0.327818
vt 0.939827 0.087239
vt 0.936951 0.088905
vt 0.937316 0.083673
vt 0.913422 0.912934
vt 0.913058 0.912629
vt 0.913769 0.912874
vt 0.767264 0.382263
vt 0.913317 0.913038
vt 0.913307 0.914018
vt 0.905160 0.915770
vt 0.902938 0.917146
vt 0.903468 0.914158
vt 0.296483 0.464727
vt 0.768230 0.381320
vt 0.773599 0.379143
vt 0.574805 0.920271
vt 0.576164 0.923217
vt 0.906782 0.907615
vt 0.905682 0.904948
vt 0.908514 0.902373
vt 0.897955 0.334949
vt 0.897395 0.327998
vt 0.298499 0.464695
vt 0.006255 0.093499
vt 0.312134 0.030217
vt 0.309426 0.029267
vt 0.286390 0.469114
vt 0.288638 0.465436
vt 0.774896 0.392559
vt 0.479633 0.637739
vt 0.479560 0.637854
vt 0.479536 0.637826
vt 0.007839 0.096441
vt 0.000413 0.094981
vt 0.812281 0.969715
vt 0.804633 0.972003
vt 0.810096 0.969402
vt 0.950886 0.525592
vt 0.949643 0.523334
vt 0.740118 0.529930
vt 0.737955 0.527923
vt 0.741024 0.525770
vt 0.904046 0.918252
vt 0.522786 0.852026
vt 0.524974 0.850514
vt 0.526625 0.853182
vt 0.826807 0.074473
vt 0.900598 0.339742
vt 0.775333 0.410464
vt 0.775172 0.410519
vt 0.025852 0.769858
vt 0.032708 0.808146
vt 0.032287 0.805433
vt 0.035527 0.804996
vt 0.030609 0.766883
vt 0.029357 0.766894
vt 0.904300 0.098720
vt 0.904061 0.100050
vt 0.902650 0.099607
vt 0.910077 0.908759
vt 0.029957 0.768962
vt 0.911165 0.913134
vt 0.908246 0.916097
vt 0.897624 0.322514
vt 0.770768 0.412197
vt 0.770287 0.411578
vt 0.771512 0.409131
vt 0.771996 0.411902
vt 0.586410 0.721652
vt 0.588443 0.720577
vt 0.589032 0.723829
vt 0.588577 0.723695
vt 0.913805 0.899964
vt 0.913542 0.901510
vt 0.912488 0.902741
vt 0.910675 0.899982
vt 0.253140 0.456891
vt 0.250493 0.455436
vt 0.252950 0.455359
vt 0.253797 0.455465
vt 0.795139 0.214681
vt 0.791193 0.215246
vt 0.790982 0.212442
vt 0.479365 0.637437
vn -0.7257 0.2819 -0.6276
vn -0.9361 0.1248 -0.3288
vn -0.0495 -0.1514 -0.9872
vn 0.1764 -0.9055 0.3859
vn 0.2293 -0.7218 -0.6530
vn -0.0383 -0.9860 -0.1623
vn 0.1903 -0.7871 0.5867
vn -0.6620 -0.3302 0.6729
vn -0.4866 -0.6701 0.5605
vn -0.5516 -0.8336 -0.0279
vn -0.8400 -0.3338 -0.4278
vn -0.0786 -0.9578 0.2765
vn -0.0112 -0.9841 0.1773
vn -0.1785 0.0122 0.9839
vn 0.2883 0.4222 0.8595
vn 0.2030 0.9769 0.0671
vn -0.0229 0.8732 -0.4868
vn 0.9646 -0.0124 0.2635
vn 0.1153 -0.5378 -0.8351
vn 0.4657 0.1795 -0.8666
vn 0.9294 0.0389 -0.3670
vn -0.7526 -0.6295 0.1933
vn -0.5547 0.1423 0.8198
vn 0.4482 0.6413 0.6228
vn 0.6186 -0.7798 0.0964
vn 0.0663 -0.7983 0.5986
vn -0.2071 -0.9783 -0.0087
vn -0.1022 0.0524 -0.9934
vn -0.2089 -0.0048 -0.9779
vn -0.0496 -0.6277 -0.7769
vn -0.0895 0.6201 -0.7794
vn 0.3291 0.7973 -0.5061
vn 0.4313 -0.0641 0.8999
vn 0.4494 -0.6874 0.5706
vn -0.2559 0.4264 0.8676
vn -0.2666 0.2862 0.9203
vn 0.8272 0.3952 0.3994
vn 0.3709 0.7626 0.5300
vn 0.3164 0.9163 0.2457
vn -0.5435 0.3966 -0.7398
vn -0.6414 -0.4406 0.6280
vn -0.9159 0.2742 0.2932
vn -0.4771 0.8415 0.2536
vn -0.8542 0.3804 -0.3545
vn -0.4978 0.0338 0.8666
vn 0.2063 0.7313 0.6501
vn -0.8587 -0.1732 -0.4824
vn -0.8436 0.2960 -0.4480
vn -0.2463 -0.0927 0.9647
vn -0.3838 0.6786 -0.6262
vn -0.6476 0.7269 -0.2284
vn 0.1021 -0.8688 0.4845
vn 0.1610 -0.0432 0.9860
vn -0.2999 -0.2475 0.9213
vn -0.8415 -0.5127 0.1702
vn 0.7919 -0.4348 -0.4287
vn -0.1647 -0.6998 -0.6951
vn 0.5285 -0.0316 -0.8483
vn 0.2608 -0.4416 -0.8585
vn 0.1864 -0.9658 0.1804
vn -0.1499 -0.8555 0.4957
vn 0.2316 -0.2873 0.9294
vn 0.1280 0.9626 0.2387
vn 0.3149 -0.7067 0.6336
vn 0.3037 -0.9357 -0.1796
vn 0.1037 0.1403 -0.9847
vn -0.3980 -0.9047 0.1520
vn -0.0762 -0.2199 0.9725
vn 0.0231 0.8418 0.5393
vn 0.2414 0.5842 0.7749
vn -0.8867 0.3527 -0.2989
vn -0.3412 -0.9028 0.2619
vn -0.2546 0.6134 0.7476
vn -0.7354 0.6776 0.0021
vn -0.5167 -0.0354 -0.8555
vn 0.1860 -0.9705 0.1536
vn -0.1881 -0.6799 0.7088
vn -0.0554 0.6082 -0.7918
vn 0.8348 0.5158 -0.1924
vn -0.7375 0.3539 -0.5752
vn 0.5923 0.7075 0.3854
vn 0.6506 0.5724 -0.4992
vn 0.0914 -0.4088 -0.9080
vn -0.7265 0.5238 -0.4448
vn 0.5042 0.4348 -0.7461
vn -0.1296 0.9141 -0.3842
vn 0.9068 -0.3124 0.2833
vn 0.6902 -0.3972 0.6049
vn -0.0899 0.8286 -0.5526
vn 0.7749 -0.5651 0.2830
vn 0.5524 -0.7358 -0.3918
vn 0.9033 0.3289 0.2753
vn 0.0967 0.9914 0.0878
vn 0.6185 0.5509 0.5604
vn -0.0916 0.6656 -0.7406
vn 0.7419 -0.5063 0.4395
usemtl Textured_mesh_1
s 1
f 40/1/1 42/2/2 1/3/3
f 5/4/4 3/5/5 4/6/6
f 34/7/7 33/8/8 23/9/9
f 49/10/10 51/11/11 3/12/5
f 12/13/12 10/14/13 8/15/14
f 11/16/15 6/17/16 22/18/17
f 31/19/18 14/20/19 21/21/20 32/22/21
f 50/23/22 5/24/4 38/25/23
f 23/26/9 7/27/24 11/28/15
f 30/29/25 14/20/19 31/19/18
f 12/13/12 25/30/26 2/31/27
f 2/32/27 17/33/28 16/34/29
f 15/35/30 18/36/31 14/37/19
f 7/38/24 20/39/32 21/40/20
f 22/18/17 8/41/14 11/16/15
f 12/13/12 8/15/14 25/30/26
f 3/42/5 17/43/28 4/44/6
f 28/45/33 34/7/7 23/9/9
f 36/46/34 10/14/13 14/47/19 30/48/25
f 2/49/27 4/44/6 17/43/28
f 22/18/17 13/50/35 24/51/36
f 35/52/37 20/53/32 26/54/38
f 6/55/16 21/56/20 18/57/31
f 13/58/35 4/6/6 25/30/26
f 2/31/27 25/30/26 4/6/6
f 19/59/39 13/50/35 22/18/17
f 43/60/40 1/61/3 42/62/2
f 13/58/35 25/30/26 24/63/36
f 23/64/9 11/65/15 10/66/13
f 2/31/27 15/67/30 12/13/12
f 11/68/15 8/15/14 10/14/13
f 20/39/32 7/38/24 23/69/9
f 14/47/19 12/13/12 15/67/30
f 3/70/5 1/71/3 17/72/28
f 24/51/36 8/73/14 22/18/17
f 16/34/29 18/57/31 15/74/30
f 10/14/13 12/13/12 14/47/19
f 38/75/23 5/4/4 4/6/6 46/76/41
f 16/34/29 17/33/28 22/77/17
f 7/38/24 6/78/16 11/79/15
f 18/36/31 21/80/20 14/37/19
f 7/38/24 21/40/20 6/78/16
f 16/81/29 15/67/30 2/31/27
f 48/82/42 19/59/39 37/83/43
f 16/34/29 22/77/17 18/57/31
f 25/30/26 8/15/14 24/63/36
f 6/55/16 18/57/31 22/77/17
f 20/39/32 23/69/9 9/84/44
f 21/85/20 20/53/32 35/52/37 32/86/21
f 23/26/9 33/87/8 29/88/45 9/89/44
f 23/9/9 10/14/13 36/46/34 28/45/33
f 9/90/44 29/91/45 27/92/46
f 20/39/32 9/84/44 27/93/46 26/94/38
f 5/95/4 50/96/22 49/97/10 3/98/5
f 3/99/5 51/100/11 44/101/47 1/102/3
f 17/33/28 1/103/3 43/104/40 47/105/48
f 4/6/6 13/58/35 41/106/49 46/76/41
f 13/50/35 19/59/39 48/82/42 41/107/49
f 1/102/3 44/101/47 40/108/1
f 22/77/17 39/109/50 45/110/51 19/111/39
f 17/33/28 47/105/48 39/109/50 22/77/17
f 49/97/10 50/96/22 38/25/23 46/76/41 41/106/49 48/82/42 37/83/43 45/112/51 39/109/50 47/105/48 43/104/40 42/62/2 40/1/1 44/101/47 51/100/11
f 19/59/39 45/112/51 37/83/43
f 27/93/46 29/91/45 34/7/7
f 53/113/52 54/114/53 55/115/54
f 75/116/55 53/117/52 55/118/54
f 96/119/56 66/120/57 89/121/58
f 67/122/59 57/123/60 62/124/61
f 59/125/62 78/126/63 60/127/64
f 70/128/65 71/129/66 67/130/59
f 53/113/52 56/131/67 62/132/61
f 68/133/68 61/134/69 54/135/53
f 54/136/53 53/137/52 68/138/68
f 75/139/55 76/140/70 74/141/71
f 70/142/65 56/143/67 79/144/72
f 56/145/67 53/117/52 75/116/55
f 63/146/73 64/147/74 74/148/71
f 72/149/75 71/150/66 79/151/72
f 65/152/76 59/153/62 60/154/64
f 55/155/54 76/140/70 75/139/55
f 53/156/52 57/157/60 58/158/77
f 67/130/59 81/159/78 66/160/57
f 57/161/60 66/162/57 65/163/76
f 84/164/79 73/165/80 90/166/81
f 63/167/73 54/135/53 61/134/69
f 92/168/82 88/169/83 73/165/80
f 63/170/73 76/171/70 55/172/54
f 69/173/84 56/143/67 75/139/55
f 63/174/73 55/175/54 54/135/53
f 89/121/58 66/120/57 81/176/78 85/177/85
f 61/178/69 68/179/68 78/180/63
f 80/181/86 78/182/63 81/159/78
f 79/144/72 69/173/84 72/183/75
f 53/137/52 58/184/77 68/138/68
f 67/122/59 66/185/57 57/186/60
f 69/173/84 74/187/71 64/188/74
f 92/168/82 73/165/80 84/164/79
f 58/189/77 60/127/64 68/133/68
f 60/127/64 78/126/63 68/133/68
f 91/190/87 86/191/88 59/192/62
f 57/193/60 60/194/64 58/184/77
f 69/195/84 64/196/74 77/197/89
f 70/198/65 62/132/61 56/199/67
f 65/200/76 60/201/64 57/202/60
f 76/171/70 63/170/73 74/203/71
f 79/144/72 56/143/67 69/173/84
f 95/204/90 65/205/76 94/206/91
f 62/207/61 57/157/60 53/156/52
f 71/129/66 77/208/89 81/159/78
f 86/209/88 93/210/92 59/125/62
f 79/151/72 71/150/66 70/211/65
f 77/212/89 64/213/74 80/214/86
f 81/159/78 67/130/59 71/129/66
f 69/173/84 75/139/55 74/187/71
f 69/215/84 71/150/66 72/216/75
f 77/208/89 80/181/86 81/159/78
f 70/217/65 67/218/59 62/219/61
f 78/180/63 80/220/86 61/178/69
f 77/221/89 71/150/66 69/215/84
f 80/222/86 64/223/74 61/178/69
f 61/178/69 64/223/74 63/170/73
f 52/224/93 81/159/78 78/182/63
f 90/225/81 73/226/80 52/227/93 82/228/94
f 59/125/62 52/227/93 78/126/63
f 65/229/76 66/230/57 96/231/56 94/232/91
f 73/233/80 88/234/83 87/235/95 52/236/93
f 81/237/78 52/238/93 87/239/95 85/240/85
f 65/241/76 95/242/90 83/243/96 59/153/62
f 59/192/62 83/244/96 91/190/87
f 59/125/62 93/210/92 82/228/94 52/227/93
f 92/168/82 84/164/79 90/166/81 82/228/94 93/210/92 86/209/88 91/190/87 83/244/96 95/242/90 94/206/91 96/231/56 89/121/58 85/177/85 87/239/95 88/234/83
f 28/45/33 36/46/34 31/19/18
f 36/46/34 30/48/25 31/19/18
f 31/19/18 32/22/21 26/54/38
f 32/22/21 35/52/37 26/54/38
f 29/91/45 33/87/8 34/7/7
f 34/7/7 28/45/33 27/93/46
f 28/45/33 31/19/18 27/93/46
f 26/54/38 27/93/46 31/19/18
