# Blender v2.79 (sub 0) OBJ File: 'CarausiusMorosus.blend'
# www.blender.org
mtllib Textured_mesh_1.mtl

o 19_ML_CT_L_Collision_Textured_mesh_1.048
v -0.043396 0.025827 0.051300
v -0.005398 -0.010521 -0.057467
v -0.029826 -0.040348 -0.041898
v 0.034368 -0.003617 0.037890
v 0.016520 0.031321 0.029313
v -0.048933 -0.048657 0.020647
v 0.011525 -0.044810 -0.021334
v 0.019084 0.039860 0.015696
v 0.019526 0.033218 -0.014425
v -0.057196 -0.011205 0.058986
v 0.010115 -0.025446 0.047291
v 0.055953 0.041638 -0.026277
v 0.054753 -0.016400 0.018454
v 0.028648 0.022262 -0.048309
v 0.056019 -0.022204 0.010242
v -0.012959 0.040627 -0.040981
v -0.009891 0.015167 -0.058965
v -0.044532 -0.036991 0.046976
v -0.023230 0.042024 0.035233
v 0.013067 -0.006977 -0.039919
v -0.027083 0.054087 -0.002997
v 0.050859 -0.007486 -0.052047
v 0.033058 -0.037615 -0.003774
v 0.005320 0.011819 0.053962
v -0.002099 0.020802 -0.031396
v -0.003376 -0.048685 0.015370
v -0.059668 -0.008925 0.061779
v -0.060803 0.055171 -0.048552
v -0.058929 -0.050631 0.009141
v -0.058594 -0.069540 0.040948
v -0.060363 0.030303 0.055317
v -0.059552 -0.015423 -0.068367
v -0.059520 -0.017228 0.062628
v -0.060733 0.051216 0.027089
v -0.059807 -0.001048 0.058576
v -0.059624 -0.011400 0.062758
v -0.059497 -0.018536 -0.066043
v -0.059584 -0.013623 -0.068415
v -0.059012 -0.045944 0.065844
v -0.058700 -0.063551 0.017669
v -0.060876 0.059270 -0.024198
v -0.059119 -0.039881 -0.001395
v -0.060513 0.038776 0.045307
v -0.060026 0.011302 -0.066546
v -0.060672 0.047738 0.038750
v -0.058602 -0.069067 0.049084
v -0.059232 -0.033528 -0.027880
v -0.060823 0.056308 -0.047703
v -0.059226 -0.033862 -0.017322
v -0.060834 0.056906 -0.045014
v 0.062870 0.028829 0.010240
v 0.063961 -0.015804 0.016961
v 0.063976 -0.016449 0.017167
v 0.064039 -0.019028 0.007789
v 0.062961 0.025079 0.015625
v 0.064064 -0.020052 0.011157
v 0.064093 -0.021220 0.010538
v 0.063149 0.017421 -0.053640
v 0.063865 -0.011901 -0.038847
v 0.062842 0.029983 -0.039432
v 0.063376 0.008136 0.022684
v 0.064103 -0.021608 -0.000905
v 0.062645 0.038040 -0.020651
v 0.063926 -0.014399 0.015997
v 0.063545 0.001220 0.026468
v 0.063932 -0.014624 0.013340
v 0.062561 0.041455 -0.023110
v 0.063757 -0.007473 0.016906
v 0.063393 0.007403 -0.053793
v 0.062544 0.042173 -0.026552
v 0.063811 -0.009666 -0.042969
vt 0.981394 0.191900
vt 0.979037 0.195417
vt 0.977256 0.194198
vt 0.393153 0.902460
vt 0.393730 0.906015
vt 0.397521 0.899282
vt 0.384326 0.901759
vt 0.383230 0.906409
vt 0.389704 0.907175
vt 0.287909 0.176389
vt 0.294246 0.173669
vt 0.293247 0.176339
vt 0.289992 0.176608
vt 0.515004 0.535173
vt 0.516019 0.535023
vt 0.517519 0.535970
vt 0.919716 0.746967
vt 0.920899 0.749581
vt 0.918133 0.748360
vt 0.000862 0.040967
vt 0.000421 0.040135
vt 0.002756 0.039749
vt 0.609337 0.703472
vt 0.608097 0.708129
vt 0.606546 0.700756
vt 0.699981 0.705993
vt 0.705687 0.703516
vt 0.702377 0.707954
vt 0.260374 0.839462
vt 0.260674 0.839073
vt 0.260746 0.839357
vt 0.293446 0.102570
vt 0.291542 0.097816
vt 0.296737 0.099192
vt 0.791686 0.254907
vt 0.791259 0.259492
vt 0.788826 0.255263
vt 0.391639 0.965585
vt 0.391344 0.965674
vt 0.391498 0.966147
vt 0.502483 0.782969
vt 0.503296 0.774258
vt 0.505785 0.780932
vt 0.502806 0.783270
vt 0.841518 0.189752
vt 0.840712 0.189739
vt 0.840278 0.189353
vt 0.957881 0.754565
vt 0.956718 0.750171
vt 0.959335 0.748792
vt 0.499944 0.770121
vt 0.505733 0.763705
vt 0.506038 0.766232
vt 0.214350 0.469258
vt 0.217695 0.469129
vt 0.213770 0.471488
vt 0.505110 0.770147
vt 0.508462 0.773999
vt 0.801304 0.447208
vt 0.799635 0.450500
vt 0.797186 0.448965
vt 0.779185 0.392956
vt 0.777000 0.394897
vt 0.775836 0.392663
vt 0.800414 0.445643
vt 0.393071 0.896417
vt 0.388201 0.897855
vt 0.498684 0.774449
vt 0.495917 0.772822
vt 0.044742 0.759753
vt 0.049044 0.761876
vt 0.048655 0.763032
vt 0.962943 0.751154
vt 0.958552 0.755709
vt 0.395327 0.908181
vt 0.394156 0.907566
vt 0.394906 0.893100
vt 0.400143 0.898707
vt 0.398797 0.904838
vt 0.396586 0.907274
vt 0.610330 0.350860
vt 0.605456 0.351752
vt 0.606709 0.346599
vt 0.190108 0.497597
vt 0.180981 0.497234
vt 0.182875 0.493135
vt 0.946898 0.844456
vt 0.947044 0.844264
vt 0.947600 0.843979
vt 0.886462 0.681116
vt 0.884581 0.677356
vt 0.889511 0.673477
vt 0.854884 0.409000
vt 0.855990 0.407265
vt 0.856713 0.408492
vt 0.292269 0.177191
vt 0.393482 0.908328
vt 0.393775 0.908447
vt 0.289882 0.100558
vt 0.186180 0.502010
vt 0.185617 0.506310
vt 0.183095 0.505729
vt 0.725251 0.369328
vt 0.726636 0.366191
vt 0.726935 0.367657
vt 0.607851 0.709124
vt 0.605685 0.708228
vt 0.957586 0.748204
vt 0.591974 0.436843
vt 0.588445 0.434498
vt 0.590749 0.433068
vt 0.592089 0.436783
vt 0.393519 0.909056
vt 0.393695 0.909041
vt 0.482950 0.449719
vt 0.484113 0.451307
vt 0.481174 0.451436
vt 0.878050 0.680915
vt 0.399868 0.904456
vt 0.123241 0.890798
vt 0.123081 0.890795
vt 0.123144 0.890430
vt 0.498043 0.781751
vt 0.492918 0.780168
vt 0.980638 0.190002
vt 0.981535 0.191475
vt 0.011942 0.981129
vt 0.009397 0.982223
vt 0.009529 0.978876
vt 0.327498 0.327400
vt 0.327468 0.328183
vt 0.327235 0.328391
vt 0.581926 0.925626
vt 0.575546 0.926105
vt 0.578302 0.923346
vt 0.790035 0.263398
vt 0.525510 0.724438
vt 0.527269 0.721509
vt 0.528100 0.726218
vt 0.527965 0.726322
vt 0.263419 0.107365
vt 0.256921 0.108994
vt 0.256504 0.108211
vt 0.258692 0.105035
vt 0.387801 0.893913
vt 0.386881 0.895216
vt 0.180276 0.492781
vt 0.501026 0.549120
vt 0.504634 0.549297
vt 0.503928 0.553266
vt 0.253494 0.105822
vt 0.191846 0.498950
vt 0.501802 0.545513
vt 0.502706 0.546055
vt 0.146103 0.869003
vt 0.149268 0.867109
vt 0.149824 0.870592
vt 0.149602 0.870705
vt 0.385329 0.898463
vt 0.384243 0.901059
vt 0.877686 0.681890
vt 0.877433 0.681625
vt 0.600953 0.705381
vt 0.603536 0.706949
vt 0.602145 0.707232
vt 0.223882 0.471076
vt 0.224352 0.470158
vt 0.224363 0.470280
vt 0.223793 0.470533
vt 0.219828 0.474246
vt 0.222016 0.471194
vt 0.225146 0.470364
vt 0.225433 0.469619
vt 0.024165 0.647580
vt 0.025403 0.648810
vt 0.024294 0.650537
vt 0.023875 0.650711
vn 0.6372 -0.6448 -0.4222
vn 0.9423 -0.3112 0.1235
vn 0.3349 -0.9410 0.0481
vn 0.2416 0.2883 0.9266
vn 0.5738 -0.0263 0.8186
vn 0.3589 0.7187 0.5956
vn 0.6731 -0.0698 0.7363
vn 0.4089 -0.6280 0.6621
vn 0.3831 -0.5443 0.7463
vn -0.8159 -0.5128 -0.2671
vn 0.2242 -0.9635 0.1464
vn 0.5402 -0.8403 -0.0457
vn -0.7003 -0.7091 -0.0822
vn 0.2595 -0.9497 0.1752
vn 0.4055 -0.2731 0.8724
vn -0.5246 0.4980 0.6906
vn 0.1676 0.3838 0.9081
vn -0.6084 0.5376 0.5837
vn -0.3481 0.8794 -0.3249
vn 0.1101 0.9596 -0.2590
vn -0.1869 0.4868 -0.8533
vn -0.1886 -0.9217 -0.3390
vn 0.0758 -0.8664 -0.4935
vn -0.3377 0.1804 0.9238
vn -0.0753 0.1461 0.9864
vn -0.0350 -0.3979 -0.9167
vn 0.7999 0.4569 0.3891
vn 0.5676 0.7292 -0.3823
vn -0.6379 -0.4390 -0.6328
vn 0.5619 0.0290 -0.8267
vn -0.4277 -0.6259 -0.6522
vn 0.7292 0.5737 0.3731
vn 0.6136 0.6741 0.4112
vn -0.2059 -0.9744 0.0908
vn -0.3264 -0.8331 -0.4465
vn 0.3898 0.5890 -0.7079
vn 0.1256 -0.1514 -0.9805
vn 0.5693 0.0063 -0.8221
vn 0.8193 -0.3043 -0.4859
vn 0.5049 0.6678 -0.5469
vn 0.2105 0.9759 0.0570
vn 0.1629 0.9354 0.3139
vn 0.2482 0.7918 0.5581
vn 0.7807 0.2664 -0.5653
vn -0.2018 -0.8091 0.5519
vn 0.8102 0.0555 0.5835
vn 0.9224 -0.3337 0.1943
vn 0.7933 0.3743 0.4801
vn 0.8042 0.1891 0.5635
vn -0.6253 0.7418 0.2424
vn -0.6479 0.7605 -0.0439
vn -0.8438 -0.5252 0.1102
vn -0.3043 -0.6957 -0.6507
vn 0.5154 0.8475 -0.1269
vn 0.6589 0.4742 -0.5839
vn -0.5497 0.7480 -0.3719
vn -0.5221 0.3628 -0.7718
vn 0.7014 -0.6962 -0.1527
vn 0.7925 0.5400 0.2836
vn -0.1010 0.3636 0.9261
vn -0.5201 0.0870 -0.8497
vn -0.4821 0.0774 -0.8727
vn -0.3748 0.0195 0.9269
vn -0.6294 0.7579 -0.1718
vn -0.9044 -0.4158 0.0955
vn -0.5701 0.7057 0.4206
vn -0.1501 -0.1240 0.9809
vn 0.5158 0.4223 -0.7454
vn 0.4544 0.0112 -0.8907
vn 0.9703 0.2044 0.1297
vn 0.8074 -0.5046 -0.3057
usemtl Textured_mesh_1
s 1
f 59/1/1 62/2/2 23/3/3
f 24/4/4 4/5/5 5/6/6
f 10/7/7 18/8/8 11/9/9
f 49/10/10 26/11/11 6/12/12 42/13/13
f 15/14/14 13/15/15 11/16/9
f 15/17/14 11/18/9 26/19/11
f 31/20/16 1/21/17 43/22/18
f 9/23/19 12/24/20 14/25/21
f 3/26/22 7/27/23 26/28/11
f 33/29/24 10/30/7 36/31/25
f 18/32/8 26/33/11 11/34/9
f 22/35/26 23/36/3 7/37/23
f 66/38/27 13/39/15 52/40/28
f 32/41/29 2/42/30 3/43/22 37/44/31
f 63/45/32 67/46/33 12/47/20
f 30/48/34 40/49/35 6/50/12
f 25/51/36 14/52/21 20/53/37
f 69/54/38 71/55/39 22/56/26
f 20/57/37 7/58/23 2/42/30
f 16/59/40 21/60/41 8/61/42
f 9/62/19 14/63/21 25/64/36
f 8/61/42 25/65/36 16/59/40
f 11/9/9 24/4/4 10/7/7
f 19/66/43 1/67/17 24/4/4
f 2/42/30 17/68/44 16/69/40
f 2/70/30 16/71/40 25/72/36
f 30/48/34 6/50/12 18/73/8 46/74/45
f 65/75/46 4/5/5 68/76/47
f 21/77/41 5/6/6 8/78/42
f 55/79/48 5/6/6 4/5/5 61/80/49
f 7/81/23 20/82/37 22/83/26
f 34/84/50 21/85/41 41/86/51
f 64/87/52 52/88/28 13/89/15
f 8/90/42 9/91/19 25/92/36
f 11/93/9 13/94/15 4/95/5
f 42/13/13 6/12/12 29/96/53
f 68/76/47 4/5/5 13/97/15 66/98/27
f 6/99/12 26/33/11 18/32/8
f 19/100/43 24/101/4 5/102/6
f 65/75/46 61/80/49 4/5/5
f 14/103/21 22/104/26 20/105/37
f 70/106/54 60/107/55 12/24/20
f 40/49/35 29/108/53 6/50/12
f 48/109/56 16/110/40 17/111/44 28/112/57
f 53/113/58 64/114/52 13/97/15
f 1/67/17 10/7/7 24/4/4
f 15/115/14 26/116/11 23/117/3
f 9/91/19 8/90/42 12/118/20
f 4/5/5 24/4/4 11/9/9
f 51/119/59 8/78/42 5/6/6 55/79/48
f 27/120/60 36/121/25 10/122/7
f 44/123/61 28/124/57 17/68/44
f 59/1/1 23/3/3 22/125/26 71/126/39
f 38/127/62 44/128/61 17/129/44
f 35/130/63 27/131/60 10/132/7
f 5/102/6 21/85/41 19/100/43
f 2/42/30 7/58/23 3/43/22
f 25/133/36 20/134/37 2/135/30
f 23/36/3 26/136/11 7/37/23
f 21/137/41 16/138/40 48/139/56 50/140/64
f 26/141/11 49/142/10 47/143/65 3/144/22
f 19/66/43 45/145/66 43/146/18 1/67/17
f 21/85/41 50/147/64 41/86/51
f 18/148/8 39/149/67 46/150/45
f 3/144/22 47/143/65 37/151/31
f 21/85/41 34/84/50 45/152/66 19/100/43
f 18/148/8 10/153/7 33/154/24 39/149/67
f 17/155/44 2/156/30 32/157/29 38/158/62
f 1/67/17 31/159/16 35/160/63 10/7/7
f 12/118/20 67/161/33 70/162/54
f 22/163/26 14/25/21 58/164/68 69/165/38
f 12/24/20 60/107/55 58/164/68 14/25/21
f 15/166/14 56/167/69 57/168/70
f 15/166/14 54/169/71 56/167/69
f 15/166/14 23/170/3 62/171/2 54/169/71
f 13/172/15 15/166/14 57/168/70 53/173/58
f 8/174/42 51/175/59 63/176/32 12/177/20
f 71/126/39 69/165/38 58/164/68 60/107/55 70/162/54 67/46/33 63/176/32 51/119/59 55/79/48 61/80/49 65/75/46 68/76/47 66/38/27 52/88/28 64/114/52 53/173/58 57/168/70 56/167/69 54/169/71 62/2/2 59/1/1
f 50/147/64 48/109/56 28/124/57 44/128/61 38/158/62 32/41/29 37/151/31 47/143/65 49/10/10 42/13/13 29/108/53 40/49/35 30/48/34 46/150/45 39/149/67 33/29/24 36/121/25 27/131/60 35/160/63 31/20/16 43/146/18 45/152/66 34/84/50 41/86/51
