# Blender v2.79 (sub 0) OBJ File: 'CarausiusMorosus.blend'
# www.blender.org
mtllib Textured_mesh_1.mtl

o 29_FL_CT_L_Visual_Textured_mesh_1.001
v -0.009336 -0.017013 0.042040
v 0.030347 -0.021322 0.030972
v 0.031805 -0.038059 -0.003711
v 0.053566 -0.034305 0.004791
v 0.065125 0.004129 -0.041846
v 0.058240 -0.017874 -0.045276
v 0.030975 0.013399 0.064449
v 0.026862 0.059765 0.046906
v 0.036539 0.021427 -0.051979
v -0.034739 0.035830 0.052209
v -0.006658 -0.030990 0.006442
v -0.007272 -0.026832 -0.024425
v -0.035945 -0.001235 -0.061706
v -0.029045 -0.024575 -0.056903
v -0.041675 -0.048224 0.084824
v -0.039641 -0.055863 -0.012933
v -0.015966 0.008314 0.056360
v -0.050863 -0.015137 0.091606
v -0.009858 0.067900 -0.015060
v -0.046132 0.074137 -0.014624
v 0.018908 -0.012038 -0.063678
v -0.046887 -0.046195 -0.038915
v 0.062613 -0.035738 -0.022652
v -0.033272 -0.037872 0.049707
v 0.064668 0.031654 -0.035170
v -0.014150 0.006357 -0.066582
v -0.034425 -0.004402 0.066359
v 0.017648 -0.035647 -0.047817
v 0.002896 0.071468 0.015996
v -0.035066 0.056150 -0.051560
v 0.043787 -0.027050 -0.047515
v 0.060475 -0.030479 -0.034349
v 0.011494 0.048321 -0.046084
v -0.056621 -0.049331 -0.039532
v -0.060396 0.049401 0.039776
v -0.055686 -0.073785 0.053940
v -0.059362 0.022372 0.068875
v -0.060574 0.054075 0.036841
v -0.055671 -0.074180 0.049430
v -0.058242 -0.006924 0.091320
v -0.056299 -0.057764 -0.021359
v -0.060134 0.042560 -0.044599
v -0.060142 0.042765 -0.044302
v -0.056746 -0.046078 -0.041626
v -0.061195 0.070313 0.003248
v -0.055942 -0.067089 0.086520
v -0.060820 0.060503 0.018911
v -0.057864 -0.016818 -0.066366
v -0.057570 -0.024514 0.095712
v -0.056185 -0.060738 0.024395
v -0.060127 0.042381 -0.044629
v -0.058251 -0.006685 -0.067677
v -0.060121 0.042231 -0.044664
v -0.055969 -0.066388 -0.003396
v -0.057184 -0.034617 -0.050244
v -0.056638 -0.048886 0.094495
v -0.058790 0.007414 -0.066245
v -0.059319 0.021242 0.069256
v -0.058683 0.004611 0.081456
v 0.065419 0.061545 -0.002933
v 0.065646 0.046278 0.040050
v 0.066864 -0.035621 -0.019685
v 0.065866 0.031491 -0.035491
v 0.066279 0.003753 -0.041903
v 0.066298 0.002461 -0.039838
v 0.066266 0.004585 -0.042006
v 0.066686 -0.023679 0.020169
v 0.065835 0.033592 -0.033642
v 0.065462 0.058638 -0.015261
v 0.066602 -0.017985 0.025704
v 0.065404 0.062555 0.003362
v 0.065442 0.059984 0.014422
v 0.066745 -0.027600 0.013572
v 0.066624 -0.019499 -0.033625
v 0.065930 0.027227 0.047706
v 0.066828 -0.033221 -0.020037
v 0.066170 0.011027 0.046536
v 0.065515 0.055077 -0.021755
v 0.066859 -0.035311 -0.013454
v 0.066771 -0.029373 -0.001301
vt 0.393122 0.321838
vt 0.393844 0.326632
vt 0.392325 0.327297
vt 0.931186 0.501341
vt 0.932565 0.505044
vt 0.928065 0.503472
vt 0.248130 0.708945
vt 0.246290 0.710081
vt 0.244196 0.708455
vt 0.756710 0.832994
vt 0.747740 0.838251
vt 0.752166 0.833125
vt 0.251969 0.101272
vt 0.259731 0.103212
vt 0.253836 0.103310
vt 0.825505 0.337146
vt 0.827469 0.339259
vt 0.824851 0.337475
vt 0.189215 0.137092
vt 0.189330 0.136635
vt 0.195264 0.135687
vt 0.189390 0.141134
vt 0.202559 0.854879
vt 0.203254 0.856916
vt 0.200404 0.855905
vt 0.591153 0.219195
vt 0.592790 0.216069
vt 0.595075 0.217832
vt 0.252548 0.555109
vt 0.251158 0.557561
vt 0.248651 0.556470
vt 0.252482 0.555075
vt 0.749583 0.842623
vt 0.751457 0.842255
vt 0.751527 0.843114
vt 0.936185 0.504672
vt 0.935814 0.505822
vt 0.935454 0.505052
vt 0.171247 0.115278
vt 0.171291 0.116891
vt 0.168450 0.115412
vt 0.792455 0.756685
vt 0.795809 0.753054
vt 0.795126 0.756835
vt 0.760364 0.825333
vt 0.759732 0.829733
vt 0.745999 0.833304
vt 0.290665 0.271261
vt 0.288069 0.274457
vt 0.288192 0.270429
vt 0.933422 0.499364
vt 0.034621 0.064170
vt 0.036324 0.061768
vt 0.039887 0.064832
vt 0.034647 0.064181
vt 0.592933 0.197077
vt 0.592831 0.194831
vt 0.594612 0.197047
vt 0.754625 0.836441
vt 0.744683 0.840288
vt 0.741775 0.838934
vt 0.743369 0.836783
vt 0.653955 0.087078
vt 0.651416 0.087580
vt 0.652529 0.086710
vt 0.746554 0.826252
vt 0.757390 0.821950
vt 0.751966 0.826605
vt 0.867566 0.822038
vt 0.864860 0.819669
vt 0.867633 0.820544
vt 0.201828 0.139616
vt 0.205472 0.141803
vt 0.200344 0.144122
vt 0.091771 0.515019
vt 0.090490 0.517762
vt 0.089260 0.516787
vt 0.791634 0.748645
vt 0.787000 0.755266
vt 0.790459 0.759183
vt 0.456894 0.488894
vt 0.456656 0.489191
vt 0.453032 0.488877
vt 0.454600 0.488488
vt 0.829470 0.334288
vt 0.825494 0.332936
vt 0.760820 0.831468
vt 0.830781 0.327143
vt 0.830137 0.330045
vt 0.827916 0.330662
vt 0.761317 0.832246
vt 0.338474 0.500784
vt 0.336388 0.503482
vt 0.336601 0.500597
vt 0.789768 0.012241
vt 0.792424 0.013786
vt 0.791878 0.017349
vt 0.646425 0.089403
vt 0.647868 0.087354
vt 0.648112 0.088486
vt 0.754286 0.840978
vt 0.751567 0.839146
vt 0.887115 0.971939
vt 0.883449 0.970086
vt 0.886283 0.968612
vt 0.205864 0.138531
vt 0.202266 0.135048
vt 0.761988 0.830872
vt 0.918057 0.836030
vt 0.917160 0.837937
vt 0.914815 0.836332
vt 0.881184 0.943183
vt 0.873810 0.943211
vt 0.883083 0.938728
vt 0.882255 0.941680
vt 0.433558 0.514198
vt 0.433385 0.514302
vt 0.433404 0.514203
vt 0.878071 0.940266
vt 0.248476 0.553163
vt 0.882272 0.973891
vt 0.887132 0.973262
vt 0.260245 0.098869
vt 0.264738 0.099463
vt 0.739109 0.829070
vt 0.284558 0.708650
vt 0.286896 0.705901
vt 0.286040 0.710320
vt 0.190076 0.142104
vt 0.185501 0.139366
vt 0.185594 0.139303
vt 0.185766 0.139555
vt 0.252455 0.557427
vt 0.252585 0.555105
vt 0.254038 0.556964
vt 0.037986 0.068015
vt 0.830589 0.331965
vt 0.648450 0.086678
vt 0.648438 0.088108
vt 0.744159 0.837364
vt 0.746613 0.841271
vt 0.745052 0.840559
vt 0.885511 0.941126
vt 0.736524 0.833342
vt 0.736510 0.833320
vt 0.238419 0.713520
vt 0.241777 0.712884
vt 0.241056 0.716583
vt 0.241029 0.716575
vt 0.830569 0.334340
vt 0.830885 0.335369
vt 0.256592 0.558549
vt 0.256078 0.557941
vt 0.589030 0.214975
vt 0.590753 0.219258
vt 0.544100 0.621374
vt 0.545541 0.617112
vt 0.545804 0.617909
vt 0.546246 0.621726
vt 0.831396 0.338049
vt 0.830685 0.338054
vt 0.752038 0.843065
vt 0.539974 0.962476
vt 0.538934 0.959039
vt 0.540523 0.961060
vt 0.966784 0.651041
vt 0.964651 0.651094
vt 0.966071 0.649186
vt 0.197022 0.145697
vt 0.192361 0.144410
vt 0.192459 0.143896
vt 0.795939 0.687320
vt 0.788671 0.682193
vt 0.794797 0.684278
vt 0.630161 0.556002
vt 0.628946 0.556968
vt 0.628603 0.556847
vt 0.630112 0.553564
vt 0.390053 0.327294
vt 0.390196 0.326400
vt 0.453169 0.487232
vt 0.453459 0.487259
vt 0.760479 0.825212
vt 0.760524 0.825302
vt 0.757579 0.821902
vt 0.457486 0.489205
vt 0.937179 0.500107
vt 0.937794 0.500530
vt 0.937716 0.501609
vt 0.969509 0.648096
vt 0.967132 0.647938
vt 0.870396 0.943380
vt 0.869108 0.939440
vt 0.192433 0.143045
vn 0.1358 0.0400 0.9899
vn 0.2654 -0.7747 0.5739
vn 0.0366 -0.8325 0.5528
vn 0.0255 -0.6282 -0.7777
vn 0.0407 -0.9822 0.1835
vn 0.2951 -0.9053 0.3054
vn 0.2849 -0.7842 0.5512
vn 0.3299 -0.8050 -0.4932
vn 0.0173 -0.5371 -0.8434
vn 0.0791 -0.3399 -0.9371
vn 0.7804 0.5991 -0.1791
vn 0.1197 0.9715 -0.2046
vn 0.7789 0.6244 -0.0592
vn 0.1655 -0.8515 -0.4975
vn 0.7195 0.3913 -0.5738
vn 0.2175 0.4786 -0.8507
vn 0.0813 0.6606 -0.7463
vn 0.6408 0.6115 -0.4642
vn -0.0375 0.1539 -0.9874
vn -0.1160 0.1065 -0.9875
vn -0.3081 -0.9463 -0.0983
vn 0.9225 -0.0454 0.3832
vn -0.2968 -0.6493 0.7002
vn -0.4500 0.3619 0.8164
vn 0.5756 0.2537 0.7773
vn 0.0619 0.4165 0.9070
vn -0.4690 0.3846 0.7950
vn -0.7115 -0.4272 -0.5579
vn -0.5392 -0.5753 -0.6151
vn 0.8222 -0.5659 0.0610
vn 0.8011 -0.5581 0.2161
vn -0.0205 -0.9504 0.3105
vn 0.1414 -0.2709 0.9522
vn 0.2676 -0.0328 -0.9630
vn 0.6424 -0.3991 -0.6542
vn 0.6141 -0.5646 -0.5515
vn -0.8366 0.1451 -0.5283
vn -0.8710 0.0465 -0.4890
vn 0.7512 -0.5914 0.2931
vn 0.2669 -0.9377 -0.2224
vn -0.5968 -0.1523 -0.7878
vn -0.5921 0.3606 -0.7207
vn -0.5163 0.5076 0.6898
vn -0.4850 -0.0893 0.8700
vn 0.5936 0.2708 0.7578
vn 0.3154 0.2804 -0.9066
vn -0.2913 0.9498 -0.1141
vn -0.2315 0.9696 0.0795
vn 0.1792 0.7132 0.6777
vn 0.8521 -0.2547 -0.4572
vn 0.8879 -0.1440 -0.4370
vn 0.6505 -0.5665 -0.5060
vn -0.3000 -0.9526 -0.0497
vn -0.3368 -0.9305 -0.1436
vn -0.3217 -0.0417 0.9459
vn -0.3008 0.5163 -0.8019
vn -0.7686 0.4885 0.4132
vn -0.8149 0.5493 0.1846
vn 0.9399 -0.1557 -0.3040
vn 0.5372 -0.3955 -0.7450
vn -0.7453 0.4585 0.4841
vn -0.4865 0.8007 0.3496
vn -0.9137 0.3186 -0.2523
vn 0.6704 0.2405 -0.7019
vn -0.5854 0.5813 0.5652
vn -0.6300 -0.7693 0.1062
vn -0.5285 -0.3608 -0.7685
vn -0.8309 0.3478 -0.4343
vn -0.6205 -0.6362 -0.4584
vn -0.6105 -0.5990 -0.5182
vn 0.7266 -0.6815 -0.0871
vn 0.8884 -0.3201 0.3289
vn 0.8106 0.2389 0.5346
vn 0.7521 0.6093 0.2513
vn 0.7742 0.6203 0.1259
vn 0.7171 -0.5201 0.4641
vn 0.7191 -0.5774 0.3866
vn 0.6372 0.1788 -0.7497
vn 0.6838 -0.5463 -0.4837
vn 0.7949 0.3848 0.4691
usemtl Textured_mesh_1
s 1
f 7/1/1 1/2/2 2/3/3
f 28/4/4 3/5/5 12/6/6
f 3/7/5 11/8/7 12/9/6
f 31/10/8 14/11/9 21/12/10
f 69/13/11 19/14/12 60/15/13
f 12/16/6 22/17/14 28/18/4
f 68/19/15 25/20/16 33/21/17 78/22/18
f 26/23/19 14/24/9 13/25/20
f 36/26/21 15/27/22 46/28/23
f 58/29/24 27/30/25 10/31/26 37/32/27
f 55/33/28 22/34/14 44/35/29
f 80/36/30 73/37/31 4/38/32
f 2/39/3 1/40/2 11/41/7
f 17/42/33 10/43/26 27/44/25
f 21/12/10 5/45/34 6/46/35
f 26/47/19 21/12/10 14/11/9
f 23/48/36 4/49/32 31/50/8
f 28/4/4 31/51/8 3/5/5
f 51/52/37 26/53/19 13/54/20 53/55/38
f 11/56/7 24/57/39 16/58/40
f 31/51/8 4/38/32 3/5/5
f 14/11/9 31/10/8 28/59/4
f 52/60/41 57/61/42 13/62/20
f 40/63/43 49/64/44 18/65/45
f 33/66/17 25/67/16 9/68/46
f 3/69/5 4/70/32 2/71/3
f 19/72/12 20/73/47 29/74/48
f 6/46/35 31/10/8 21/12/10
f 27/75/25 24/76/39 1/77/2
f 8/78/49 10/43/26 7/79/1
f 17/42/33 7/79/1 10/43/26
f 17/42/33 1/80/2 7/79/1
f 26/47/19 33/66/17 21/12/10
f 76/81/50 23/82/36 6/83/35 74/84/51
f 16/85/40 12/16/6 11/86/7
f 6/46/35 32/87/52 31/10/8
f 39/88/53 50/89/54 24/90/39
f 33/66/17 9/68/46 21/12/10
f 31/10/8 32/87/52 23/91/36
f 11/92/7 3/93/5 2/94/3
f 11/95/7 1/96/2 24/97/39
f 46/98/23 15/99/22 56/100/55
f 16/101/40 22/34/14 12/102/6
f 15/103/22 27/104/25 18/105/45
f 20/106/47 19/72/12 30/107/56
f 23/108/36 32/87/52 6/46/35
f 17/109/33 27/110/25 1/111/2
f 38/112/57 8/113/49 20/114/47 47/115/58
f 65/116/59 5/117/34 64/118/60
f 8/113/49 29/119/48 20/114/47
f 37/32/27 10/31/26 35/120/61
f 5/45/34 21/12/10 9/68/46
f 24/121/39 27/104/25 15/122/22
f 19/14/12 33/123/17 30/124/56
f 5/45/34 9/68/46 25/67/16
f 30/125/56 33/66/17 26/47/19
f 45/126/62 20/127/47 43/128/63
f 78/22/18 33/21/17 19/72/12 69/129/11
f 63/130/64 25/131/16 68/132/15
f 22/34/14 14/11/9 28/59/4
f 27/133/25 58/134/24 59/135/65
f 13/54/20 57/136/42 53/55/38
f 16/85/40 24/90/39 50/89/54 54/137/66
f 15/138/22 18/65/45 49/64/44 56/139/55
f 13/140/20 14/11/9 48/141/67 52/142/41
f 22/34/14 55/33/28 48/141/67 14/11/9
f 20/114/47 45/143/62 47/115/58
f 30/125/56 26/47/19 51/144/37 42/145/68
f 20/146/47 30/147/56 42/148/68 43/149/63
f 16/85/40 54/150/66 41/151/69
f 18/152/45 27/133/25 59/135/65 40/153/43
f 24/154/39 15/27/22 36/26/21 39/155/53
f 8/156/49 38/157/57 35/158/61 10/159/26
f 16/85/40 41/151/69 34/160/70 22/161/14
f 22/34/14 34/162/70 44/35/29
f 41/151/69 50/89/54 35/120/61
f 4/163/32 79/164/71 80/165/30
f 7/166/1 77/167/72 75/168/73
f 8/169/49 72/170/74 71/171/75 29/74/48
f 7/172/1 70/173/76 77/174/72
f 4/175/32 73/176/31 67/177/77 2/178/3
f 2/3/3 67/179/77 70/180/76 7/1/1
f 5/181/34 65/182/59 74/84/51 6/83/35
f 5/45/34 66/183/78 64/184/60
f 5/45/34 25/67/16 63/185/64 66/183/78
f 23/82/36 76/81/50 62/186/79
f 23/187/36 62/188/79 79/189/71 4/38/32
f 8/190/49 7/166/1 75/168/73 61/191/80
f 8/113/49 61/192/80 72/193/74
f 29/74/48 71/171/75 60/194/13 19/72/12
f 80/36/30 79/189/71 62/186/79 76/81/50 74/84/51 65/116/59 64/184/60 66/183/78 63/130/64 68/19/15 78/22/18 69/13/11 60/194/13 71/171/75 72/193/74 61/191/80 75/168/73 77/174/72 70/180/76 67/177/77 73/37/31
f 58/29/24 37/32/27 35/120/61
f 35/120/61 38/157/57 47/115/58
f 47/115/58 45/143/62 43/128/63
f 43/128/63 42/148/68 51/144/37
f 53/55/38 57/136/42 55/33/28
f 57/136/42 52/60/41 55/33/28
f 43/128/63 51/144/37 53/55/38
f 35/120/61 47/115/58 53/55/38
f 47/115/58 43/128/63 53/55/38
f 59/135/65 58/29/24 50/89/54
f 58/29/24 35/120/61 50/89/54
f 49/64/44 40/63/43 59/135/65
f 46/28/23 56/100/55 36/26/21
f 56/100/55 49/64/44 36/26/21
f 36/26/21 49/64/44 50/89/54
f 39/88/53 36/26/21 50/89/54
f 41/151/69 54/150/66 50/89/54
f 49/64/44 59/135/65 50/89/54
f 41/151/69 55/33/28 44/35/29
f 52/60/41 48/141/67 55/33/28
f 44/35/29 34/162/70 41/151/69
f 55/33/28 41/151/69 35/120/61
f 53/55/38 55/33/28 35/120/61
