# Blender v2.79 (sub 0) OBJ File: 'CarausiusMorosus.blend'
# www.blender.org
mtllib Textured_mesh_1.mtl

o 23_ML_Pretarsus_L_Visual_Textured_mesh_1.020
v 0.077537 -0.007099 -0.013129
v 0.063063 -0.022675 -0.018338
v 0.070196 -0.032600 0.005818
v -0.003027 -0.021831 -0.001220
v -0.055696 -0.006791 -0.011579
v -0.024261 -0.025975 0.002089
v 0.073742 0.006549 0.018633
v 0.070334 -0.030225 0.015974
v 0.060084 0.035448 -0.014233
v 0.030411 0.028354 0.004755
v 0.060646 0.011472 -0.024989
v -0.006818 0.013644 0.018582
v 0.006958 0.023566 0.006065
v -0.051426 0.008603 -0.016392
v 0.017503 -0.014439 -0.009293
v 0.051768 -0.022049 0.024066
v 0.069926 -0.036245 0.007769
v -0.017169 0.030388 -0.008705
v -0.024228 -0.000661 -0.014022
v 0.017238 0.005167 0.007165
v 0.067524 0.050860 0.024249
v 0.014097 0.005934 -0.023239
v 0.007362 0.021664 -0.016805
v 0.059714 -0.042230 0.022690
v 0.068097 0.038205 0.025240
v -0.006726 -0.017236 -0.010067
v -0.003088 -0.008808 0.019829
v 0.015812 -0.012373 0.003535
v -0.059313 0.013996 0.003960
v -0.059008 -0.006494 0.012050
v -0.059113 0.000528 0.013987
v -0.059204 0.006647 0.013738
v -0.059302 0.013249 0.000808
v -0.059006 -0.006633 -0.008896
v -0.058993 -0.007504 -0.011290
v -0.059002 -0.006909 -0.016857
v -0.059320 0.014481 0.003248
v -0.058904 -0.013536 0.006294
v -0.059287 0.012227 -0.018145
v -0.059125 0.001337 -0.023347
vt 0.610517 0.125454
vt 0.611865 0.121973
vt 0.614558 0.125656
vt 0.952973 0.258010
vt 0.952524 0.262657
vt 0.949323 0.260600
vt 0.952877 0.257977
vt 0.756113 0.341560
vt 0.754450 0.339919
vt 0.756054 0.338060
vt 0.163656 0.067165
vt 0.165046 0.059539
vt 0.167211 0.064739
vt 0.606122 0.123583
vt 0.605174 0.119491
vt 0.444963 0.540895
vt 0.444923 0.540007
vt 0.445557 0.540595
vt 0.605363 0.115826
vt 0.603236 0.115872
vt 0.974946 0.110136
vt 0.969941 0.111382
vt 0.968063 0.107966
vt 0.149371 0.613175
vt 0.152411 0.610307
vt 0.155005 0.611658
vt 0.149570 0.614061
vt 0.264095 0.916408
vt 0.264828 0.920282
vt 0.262524 0.919508
vt 0.611638 0.117785
vt 0.616532 0.116641
vt 0.342416 0.100134
vt 0.346406 0.097070
vt 0.347197 0.099285
vt 0.375882 0.308313
vt 0.374547 0.307380
vt 0.377418 0.305419
vt 0.163816 0.066143
vt 0.304331 0.750402
vt 0.305280 0.750623
vt 0.304970 0.750729
vt 0.185677 0.392583
vt 0.182792 0.395465
vt 0.183881 0.393184
vt 0.284836 0.104531
vt 0.281185 0.103556
vt 0.284552 0.100965
vt 0.284011 0.157136
vt 0.286046 0.159882
vt 0.281137 0.159439
vt 0.971584 0.106845
vt 0.968673 0.105922
vt 0.171739 0.057157
vt 0.167296 0.056101
vt 0.168937 0.054885
vt 0.601593 0.119281
vt 0.598934 0.116502
vt 0.658298 0.545401
vt 0.656412 0.542831
vt 0.655712 0.540912
vt 0.710644 0.356923
vt 0.713288 0.357323
vt 0.712354 0.358809
vt 0.284018 0.107049
vt 0.511553 0.317040
vt 0.509825 0.316003
vt 0.513517 0.314492
vt 0.378007 0.307418
vt 0.379035 0.305688
vt 0.285451 0.162751
vt 0.280908 0.161615
vt 0.283446 0.164426
vt 0.660742 0.533632
vt 0.663345 0.532444
vt 0.662169 0.536231
vt 0.340152 0.102400
vt 0.342972 0.101589
vt 0.200751 0.259221
vt 0.201760 0.259061
vt 0.203617 0.260718
vt 0.617267 0.119619
vt 0.286086 0.104702
vt 0.288102 0.101000
vt 0.309413 0.023829
vt 0.311160 0.022725
vt 0.310477 0.024854
vt 0.506681 0.232354
vt 0.507890 0.234704
vt 0.505684 0.234889
vt 0.701450 0.311886
vt 0.703859 0.312142
vt 0.702316 0.313430
vt 0.510098 0.308515
vt 0.512306 0.311362
vt 0.425909 0.726350
vt 0.423975 0.725635
vt 0.425558 0.727041
vt 0.974853 0.108622
vt 0.973675 0.106581
vt 0.304909 0.751017
vt 0.954136 0.260358
vt 0.261048 0.919312
vt 0.261665 0.915371
vt 0.287178 0.163639
vt 0.187574 0.038738
vt 0.187184 0.041273
vt 0.185638 0.040065
vt 0.057760 0.832762
vt 0.058673 0.828566
vt 0.060293 0.831075
vt 0.344462 0.102010
vt 0.346528 0.100999
vt 0.169666 0.936186
vt 0.171485 0.936965
vt 0.169959 0.937678
vt 0.169315 0.937041
vt 0.957277 0.195364
vt 0.956647 0.196141
vt 0.956744 0.195011
vt 0.702966 0.308343
vt 0.705134 0.310284
vt 0.147594 0.613978
vt 0.147619 0.613823
vt 0.930535 0.569753
vt 0.932523 0.570772
vt 0.932659 0.571040
vt 0.926409 0.574436
vt 0.955215 0.260325
vt 0.956460 0.262681
vt 0.152866 0.614567
vn 0.2706 0.0215 -0.9625
vn 0.3095 0.8153 -0.4894
vn 0.9425 -0.1161 -0.3135
vn -0.8872 0.1962 0.4177
vn 0.2471 0.3039 0.9201
vn -0.2947 0.9084 0.2966
vn -0.4070 0.8618 -0.3028
vn 0.0291 -0.8102 -0.5855
vn -0.3952 -0.6793 0.6184
vn 0.9724 -0.0835 0.2180
vn -0.1608 -0.0354 0.9864
vn 0.0546 -0.0960 -0.9939
vn 0.0546 0.5191 -0.8529
vn -0.0311 -0.4085 -0.9122
vn -0.5719 0.8025 -0.1704
vn 0.4715 0.1945 -0.8601
vn -0.2030 0.7363 0.6455
vn 0.5962 0.5379 0.5960
vn -0.4473 0.8054 0.3890
vn -0.8257 -0.5585 -0.0794
vn 0.1075 -0.9747 -0.1961
vn 0.2453 -0.3258 0.9130
vn -0.8055 -0.1543 0.5722
vn 0.1724 -0.7770 -0.6054
vn -0.0376 -0.1397 -0.9895
vn 0.4031 0.4721 0.7840
vn -0.3013 -0.9093 -0.2872
vn -0.0224 0.0766 0.9968
vn 0.0869 0.1935 0.9773
vn 0.7750 0.2356 0.5864
vn -0.4535 -0.7633 -0.4602
vn 0.2713 -0.7369 -0.6192
vn -0.4112 -0.8769 0.2488
vn 0.4068 -0.7793 -0.4766
vn 0.2961 -0.9276 0.2276
vn -0.1559 -0.4868 -0.8595
vn -0.5875 0.7901 -0.1750
vn -0.8926 -0.4299 0.1356
vn -0.7863 0.1780 0.5917
vn -0.7704 -0.1409 0.6218
usemtl Textured_mesh_1
s 1
f 11/1/1 9/2/2 1/3/3
f 29/4/4 12/5/5 18/6/6 37/7/7
f 2/8/8 11/9/1 1/10/3
f 24/11/9 7/12/10 16/13/11
f 11/1/1 22/14/12 23/15/13
f 40/16/14 39/17/15 14/18/16
f 13/19/17 23/15/13 18/20/6
f 16/21/11 25/22/18 10/23/19
f 38/24/20 6/25/21 27/26/22 30/27/23
f 22/28/12 26/29/24 19/30/25
f 10/31/19 21/32/26 9/2/2
f 26/33/24 22/34/12 15/35/27
f 28/36/28 20/37/29 27/38/22
f 24/11/9 8/39/30 7/12/10
f 36/40/31 5/41/32 35/42/33
f 3/43/34 2/44/8 1/45/3
f 12/46/5 20/47/29 13/48/17
f 11/49/1 2/50/8 22/51/12
f 20/52/29 10/23/19 13/53/17
f 10/54/19 25/55/18 21/56/26
f 18/20/6 23/15/13 19/57/25
f 19/57/25 14/58/16 18/20/6
f 24/59/9 20/60/29 28/61/28
f 23/62/13 13/63/17 10/64/19
f 27/65/22 20/47/29 12/46/5
f 3/66/34 1/67/3 7/68/10
f 4/69/35 27/38/22 6/70/21
f 22/51/12 2/50/8 3/71/34
f 7/12/10 25/55/18 16/13/11
f 15/72/27 3/71/34 24/73/9
f 23/15/13 10/31/19 9/2/2
f 23/15/13 9/2/2 11/1/1
f 20/74/29 16/75/11 10/76/19
f 28/36/28 27/38/22 4/69/35
f 6/77/21 26/33/24 4/78/35
f 28/79/28 15/80/27 24/81/9
f 25/82/18 9/2/2 21/32/26
f 12/83/5 13/48/17 18/84/6
f 17/85/36 3/86/34 8/87/30
f 7/88/10 8/89/30 3/90/34
f 19/91/25 5/92/32 14/93/16
f 1/67/3 25/94/18 7/95/10
f 39/96/15 33/97/37 14/98/16
f 24/99/9 16/21/11 20/100/29
f 3/71/34 15/72/27 22/51/12
f 34/101/38 35/42/33 5/41/32
f 29/4/4 32/102/39 12/5/5
f 19/103/25 23/104/13 22/28/12
f 3/71/34 17/105/36 24/73/9
f 15/106/27 28/107/28 26/108/24
f 9/2/2 25/82/18 1/3/3
f 26/109/24 5/110/32 19/111/25
f 4/112/35 26/33/24 28/113/28
f 40/114/14 14/115/16 5/116/32 36/117/31
f 8/118/30 24/119/9 17/120/36
f 26/121/24 6/122/21 5/92/32
f 6/25/21 38/24/20 34/123/38 5/124/32
f 14/125/16 33/126/37 37/127/7 18/128/6
f 12/5/5 32/102/39 31/129/40 27/130/22
f 27/26/22 31/131/40 30/27/23
f 33/126/37 39/96/15 34/101/38
f 39/96/15 40/114/14 34/101/38
f 40/114/14 36/117/31 34/101/38
f 36/117/31 35/42/33 34/101/38
f 34/101/38 38/24/20 30/27/23
f 30/27/23 31/131/40 34/101/38
f 31/131/40 32/102/39 33/126/37
f 34/101/38 31/131/40 33/126/37
f 32/102/39 29/4/4 33/126/37
f 29/4/4 37/7/7 33/126/37
