# Blender v2.79 (sub 0) OBJ File: 'CarausiusMorosus.blend'
# www.blender.org
mtllib Textured_mesh_1.mtl

o 18_HL_Pretarsus_R_Collision_Textured_mesh_1.057
v 0.013535 -0.021146 0.002113
v 0.050125 -0.012656 0.015022
v 0.100805 -0.034246 -0.020572
v 0.081906 -0.024493 -0.006863
v -0.127107 0.020903 0.025512
v -0.116665 -0.039411 0.034374
v -0.077988 0.011175 0.018587
v -0.079297 0.019040 -0.014993
v -0.046325 0.016734 0.021799
v 0.054565 0.017470 -0.013659
v 0.028686 0.005891 -0.027949
v 0.021547 -0.015630 -0.005584
v -0.094697 -0.004908 -0.021592
v -0.059431 0.003961 -0.024436
v -0.129771 -0.031942 0.019025
v 0.076436 0.011760 -0.019843
v -0.068475 -0.022010 0.001401
v -0.041017 0.024041 0.000101
v -0.037476 -0.034132 0.007223
v 0.104286 -0.002397 0.022778
v -0.117577 0.034220 -0.018710
v 0.040500 -0.026703 -0.028905
v -0.133072 -0.005508 -0.002449
v -0.017870 0.022761 -0.010306
v 0.073614 -0.020195 0.011997
v -0.122480 -0.022804 -0.018064
v -0.104318 0.039103 0.028864
v -0.113443 0.042399 0.017269
v -0.032661 -0.024671 -0.008741
v 0.000171 -0.009287 0.029317
v 0.078917 0.000719 0.013725
v -0.050462 -0.008254 0.029119
v -0.102198 -0.035835 0.005509
v -0.073426 0.020836 0.011355
v -0.104919 0.009779 0.028005
v 0.087165 0.006277 -0.033456
v -0.126265 0.056351 0.021827
v 0.006563 0.009162 0.025414
v 0.016778 0.007054 -0.011134
v -0.094405 0.043484 -0.007961
v -0.111733 0.056169 0.011276
v -0.084415 0.036414 0.022715
v 0.036698 -0.001617 0.018952
v 0.070080 -0.014664 -0.022161
v 0.087326 -0.017545 -0.033772
v 0.112472 -0.008583 0.013976
v 0.112626 -0.018500 0.011853
v 0.112902 -0.031132 -0.018013
v 0.112351 -0.001896 0.021149
v 0.112281 0.005730 0.006483
v 0.112617 -0.009678 -0.029548
v 0.112441 0.002099 -0.029407
v 0.112205 0.015330 -0.016009
v 0.112803 -0.023640 -0.022170
v 0.112247 0.013398 -0.020365
v 0.112843 -0.028781 -0.010083
vt 0.769448 0.944634
vt 0.769706 0.947785
vt 0.770987 0.945732
vt 0.310309 0.889693
vt 0.306177 0.891996
vt 0.307356 0.891192
vt 0.906968 0.319029
vt 0.909678 0.316262
vt 0.913905 0.321015
vt 0.536306 0.746534
vt 0.543621 0.745387
vt 0.544676 0.747836
vt 0.821656 0.361457
vt 0.818468 0.363916
vt 0.819767 0.361159
vt 0.350198 0.632745
vt 0.346219 0.628155
vt 0.347533 0.622030
vt 0.342982 0.615084
vt 0.346580 0.617204
vt 0.521131 0.741157
vt 0.520565 0.743472
vt 0.519376 0.742993
vt 0.913650 0.323887
vt 0.912304 0.325384
vt 0.909001 0.322893
vt 0.347267 0.634720
vt 0.346688 0.632749
vt 0.527320 0.745928
vt 0.524334 0.744531
vt 0.525404 0.743539
vt 0.300214 0.892350
vt 0.294986 0.892766
vt 0.298284 0.890651
vt 0.294506 0.888351
vt 0.341568 0.621701
vt 0.788578 0.249766
vt 0.789101 0.250655
vt 0.787913 0.252084
vt 0.511307 0.502262
vt 0.509475 0.497569
vt 0.511131 0.495695
vt 0.341063 0.617783
vt 0.339831 0.616237
vt 0.351318 0.627005
vt 0.354254 0.635457
vt 0.527245 0.739757
vt 0.530754 0.740532
vt 0.549325 0.749256
vt 0.552854 0.751519
vt 0.553430 0.757189
vt 0.334017 0.702507
vt 0.338996 0.701405
vt 0.336838 0.703830
vt 0.342096 0.617883
vt 0.126766 0.230404
vt 0.123740 0.231466
vt 0.124888 0.230016
vt 0.813072 0.360255
vt 0.814661 0.362655
vt 0.423173 0.320456
vt 0.424133 0.317744
vt 0.424624 0.319966
vt 0.537297 0.748790
vt 0.542967 0.750463
vt 0.556054 0.751332
vt 0.303611 0.893381
vt 0.301413 0.889388
vt 0.478415 0.354101
vt 0.478022 0.359271
vt 0.475244 0.357168
vt 0.530942 0.744686
vt 0.533390 0.718238
vt 0.533856 0.720043
vt 0.529239 0.720578
vt 0.115724 0.015678
vt 0.109863 0.016322
vt 0.111165 0.012594
vt 0.548732 0.747823
vt 0.550872 0.745175
vt 0.349824 0.638046
vt 0.501273 0.571502
vt 0.501621 0.568641
vt 0.503961 0.568455
vt 0.688273 0.553983
vt 0.686902 0.552732
vt 0.689196 0.551374
vt 0.355471 0.630268
vt 0.545909 0.745039
vt 0.288969 0.891054
vt 0.283585 0.890327
vt 0.286040 0.887171
vt 0.535253 0.743115
vt 0.534514 0.741710
vt 0.422599 0.315895
vt 0.350514 0.622174
vt 0.540781 0.742729
vt 0.676580 0.940908
vt 0.674965 0.938043
vt 0.678643 0.936508
vt 0.813373 0.357942
vt 0.810524 0.359079
vt 0.914291 0.310688
vt 0.316168 0.033824
vt 0.318694 0.032315
vt 0.318636 0.034925
vt 0.315913 0.034563
vt 0.349298 0.619042
vt 0.269102 0.937172
vt 0.268933 0.938403
vt 0.265551 0.937796
vt 0.908422 0.312642
vt 0.509219 0.489063
vt 0.510562 0.490752
vt 0.508627 0.489599
vt 0.959078 0.201276
vt 0.958013 0.198178
vt 0.961730 0.197344
vt 0.425547 0.314054
vt 0.554549 0.682679
vt 0.556106 0.683140
vt 0.553717 0.684373
vt 0.357267 0.634638
vt 0.357524 0.632294
vt 0.536087 0.743431
vt 0.426768 0.318568
vt 0.426070 0.315489
vt 0.030681 0.981271
vt 0.034865 0.984271
vt 0.032120 0.984558
vt 0.712986 0.591959
vt 0.710926 0.587799
vt 0.713725 0.589088
vt 0.034862 0.972198
vt 0.031592 0.970146
vt 0.035168 0.970453
vt 0.514437 0.499775
vt 0.512448 0.492957
vt 0.508279 0.493938
vt 0.506456 0.490550
vt 0.119614 0.019828
vt 0.120168 0.021552
vt 0.118347 0.017877
vt 0.238985 0.684347
vt 0.237649 0.686339
vt 0.234868 0.685435
vt 0.234640 0.683985
vt 0.237039 0.683527
vt 0.344958 0.627097
vt 0.490227 0.585042
vt 0.491198 0.583753
vt 0.488581 0.588053
vt 0.691338 0.366086
vt 0.688949 0.367625
vt 0.687855 0.364199
vt 0.895866 0.972762
vt 0.895051 0.973663
vt 0.894837 0.972312
vt 0.114201 0.018704
vt 0.676295 0.705783
vt 0.672388 0.704882
vt 0.677826 0.704967
vt 0.554549 0.748604
vt 0.555424 0.746744
vt 0.506398 0.495087
vt 0.505530 0.491133
vt 0.523097 0.738495
vt 0.327007 0.892974
vt 0.327954 0.893172
vt 0.327902 0.894846
vt 0.324780 0.896793
vt 0.265865 0.939731
vt 0.267088 0.939535
vn 0.0819 -0.6103 0.7880
vn 0.1429 -0.9169 -0.3726
vn -0.1138 -0.7882 -0.6048
vn 0.2514 -0.9427 -0.2194
vn 0.0714 -0.4934 0.8669
vn -0.2731 -0.9619 0.0134
vn -0.1283 0.8198 -0.5581
vn -0.9958 0.0719 -0.0561
vn -0.7761 -0.0399 0.6294
vn 0.2412 0.5427 0.8046
vn 0.1127 0.9936 -0.0116
vn 0.0058 0.7352 0.6778
vn -0.2516 0.5657 -0.7853
vn -0.6321 -0.7241 -0.2759
vn 0.1155 -0.3760 -0.9194
vn 0.0146 0.1028 -0.9946
vn 0.1705 -0.6498 -0.7407
vn 0.6251 0.7523 0.2083
vn 0.0353 0.3877 0.9211
vn 0.4848 0.1873 0.8543
vn -0.9633 0.1180 -0.2410
vn 0.0845 -0.7586 0.6461
vn 0.4207 0.8416 -0.3389
vn 0.1902 0.7034 -0.6849
vn -0.6559 0.0563 0.7528
vn 0.1746 -0.1099 0.9785
vn -0.2840 -0.9532 0.1039
vn 0.0749 0.7554 -0.6509
vn 0.0790 0.2323 -0.9694
vn -0.0714 -0.1643 -0.9838
vn -0.2189 -0.5637 -0.7964
vn -0.0838 0.9818 -0.1705
vn -0.2245 0.6910 -0.6871
vn -0.2033 -0.9356 0.2887
vn -0.6161 -0.3829 -0.6883
vn -0.1664 0.9544 -0.2478
vn 0.3946 -0.1459 0.9072
vn 0.3133 0.2775 0.9082
vn 0.0866 -0.8117 0.5777
vn -0.3602 -0.1142 0.9259
vn 0.2483 0.8379 0.4860
vn 0.5343 0.7186 0.4451
vn 0.5151 0.7441 0.4254
vn 0.4453 0.2517 0.8593
vn 0.0809 0.2517 0.9644
vn -0.0761 -0.9669 -0.2437
vn -0.5520 -0.8336 -0.0205
vn 0.6857 0.4258 -0.5903
vn 0.6506 0.7471 0.1363
vn 0.3609 -0.5541 0.7501
vn 0.7937 -0.3768 0.4775
vn 0.8508 -0.5063 -0.1407
vn 0.6533 -0.5735 -0.4943
vn 0.6175 0.4332 -0.6565
vn 0.7709 -0.3835 -0.5086
vn 0.8692 -0.4195 0.2616
usemtl Textured_mesh_1
s 1
f 2/1/1 1/2/2 12/3/3
f 3/4/4 25/5/5 4/6/6
f 21/7/7 23/8/8 5/9/9
f 38/10/10 18/11/11 9/12/12
f 12/13/3 11/14/13 22/15/14
f 13/16/15 14/17/16 29/18/17
f 29/18/17 12/19/3 1/20/2
f 50/21/18 20/22/19 49/23/20
f 28/24/21 41/25/22 21/26/7
f 13/16/15 40/27/23 8/28/24
f 2/29/1 25/30/5 31/31/25
f 2/32/1 30/33/26 1/34/2
f 30/33/26 19/35/27 1/34/2
f 29/18/17 14/17/16 24/36/28
f 36/37/29 45/38/30 44/39/31
f 11/40/13 16/41/32 44/42/31
f 12/19/3 39/43/33 11/44/13
f 17/45/34 26/46/35 13/16/15
f 16/47/32 10/48/36 31/31/25
f 7/49/37 35/50/38 6/51/39
f 17/52/34 19/53/27 32/54/40
f 39/55/33 29/18/17 24/36/28
f 28/56/21 37/57/41 41/58/22
f 16/59/32 11/14/13 10/60/36
f 34/61/42 42/62/43 7/63/37
f 38/10/10 9/12/12 30/64/26
f 30/64/26 9/12/12 32/65/40
f 35/50/38 5/66/9 6/51/39
f 2/67/1 12/68/3 25/5/5
f 25/69/5 12/70/3 22/71/14
f 30/64/26 43/72/44 38/10/10
f 2/73/1 43/74/44 30/75/26
f 8/76/24 18/77/11 14/78/16
f 34/79/42 9/12/12 8/80/24
f 21/81/7 40/27/23 13/16/15
f 6/82/39 17/83/34 7/84/37
f 27/85/45 5/86/9 35/87/38
f 26/46/35 17/45/34 33/88/46
f 9/12/12 18/89/11 8/80/24
f 32/90/40 7/91/37 17/92/34
f 39/93/33 43/72/44 11/94/13
f 42/62/43 34/61/42 40/95/23
f 17/45/34 29/18/17 19/96/27
f 38/10/10 24/97/28 18/11/11
f 6/98/39 33/99/46 17/100/34
f 44/101/31 16/59/32 36/102/29
f 29/18/17 17/45/34 13/16/15
f 19/35/27 30/33/26 32/90/40
f 5/9/9 23/8/8 15/103/47
f 55/104/48 36/105/29 16/106/32 53/107/49
f 19/108/27 29/18/17 1/20/2
f 47/109/50 46/110/51 25/111/5
f 15/103/47 23/8/8 26/112/35
f 48/113/52 3/114/4 54/115/53
f 10/48/36 43/72/44 31/31/25
f 13/16/15 26/46/35 21/81/7
f 13/116/15 8/117/24 14/118/16
f 28/119/21 42/62/43 40/95/23
f 55/120/48 52/121/54 36/122/29
f 15/123/47 26/46/35 33/124/46
f 32/65/40 9/12/12 34/79/42
f 38/10/10 39/125/33 24/97/28
f 35/126/38 42/62/43 27/127/45
f 43/72/44 2/29/1 31/31/25
f 34/79/42 7/49/37 32/65/40
f 40/128/23 37/129/41 28/130/21
f 16/47/32 31/31/25 20/22/19
f 29/131/17 39/132/33 12/133/3
f 25/134/5 22/135/14 4/136/6
f 44/42/31 22/137/14 11/40/13
f 4/138/6 22/137/14 44/42/31
f 54/115/53 3/114/4 45/139/30 51/140/55
f 21/141/7 41/142/22 40/143/23
f 3/144/4 4/145/6 44/146/31
f 44/147/31 45/148/30 3/144/4
f 26/112/35 23/8/8 21/7/7
f 18/149/11 24/36/28 14/17/16
f 5/9/9 28/24/21 21/26/7
f 41/150/22 37/151/41 40/152/23
f 6/153/39 15/154/47 33/155/46
f 56/156/56 3/157/4 48/158/52
f 34/159/42 8/76/24 40/143/23
f 20/22/19 31/31/25 25/30/5
f 27/127/45 42/62/43 28/119/21
f 39/125/33 38/10/10 43/72/44
f 7/63/37 42/62/43 35/126/38
f 6/160/39 5/161/9 15/162/47
f 11/94/13 43/72/44 10/48/36
f 27/163/45 28/164/21 5/66/9
f 45/139/30 36/165/29 52/166/54 51/140/55
f 16/47/32 20/22/19 50/21/18 53/167/49
f 3/168/4 56/169/56 47/170/50 25/171/5
f 20/172/19 25/111/5 46/110/51 49/173/20
f 55/120/48 53/167/49 50/21/18 49/173/20 46/110/51 47/170/50 56/156/56 48/113/52 54/115/53 51/140/55 52/121/54
