# Blender v2.79 (sub 0) OBJ File: 'aktuell.blend'
# www.blender.org
mtllib Textured_mesh_1.mtl
o FL_Pretarsus_L_Textured_mesh_1.006
v 0.032768 0.009965 -0.011333
v 0.088241 0.026921 -0.000480
v 0.136244 -0.034873 -0.027072
v 0.013554 0.018023 0.010406
v 0.121667 0.010898 -0.022508
v 0.143859 -0.002391 0.047876
v 0.144649 -0.013210 0.029510
v 0.148174 -0.004181 0.036223
v -0.021896 0.024178 -0.024864
v 0.149698 -0.015526 -0.033189
v 0.138325 -0.013616 -0.035053
v 0.128008 -0.035441 -0.021598
v 0.137119 -0.002124 -0.027226
v 0.060763 0.008175 0.040272
v 0.078482 -0.014097 -0.017865
v 0.027274 -0.006618 -0.010960
v -0.001235 -0.019520 0.003170
v 0.142581 0.021320 0.012936
v 0.133363 0.010983 0.033180
v 0.092428 -0.017452 -0.007831
v 0.074836 0.024988 0.030502
v 0.019106 -0.012902 0.027712
v -0.024813 -0.001110 0.013911
v 0.065112 -0.013218 0.024972
v 0.070498 -0.021678 0.006435
v 0.130347 -0.027347 -0.008233
v 0.134248 -0.013454 0.049517
v 0.097934 0.010739 0.029778
v 0.105258 -0.005889 0.019906
v -0.010681 0.020252 -0.000211
v -0.026913 0.023702 -0.024311
v -0.026902 0.022666 -0.024886
v -0.026225 -0.006489 0.011712
v -0.026371 -0.010919 -0.020232
v -0.026661 0.003225 -0.032224
v -0.026796 0.013416 -0.029724
v -0.026137 -0.013821 0.008487
v -0.026681 0.004437 -0.032407
v -0.026877 0.023309 -0.019649
v -0.026738 0.020838 -0.004359
v -0.026421 -0.009056 -0.023592
v -0.026287 -0.001132 0.014321
v -0.026279 -0.002649 0.012190
v -0.026343 0.001381 0.011537
v -0.026689 0.007516 -0.026709
v -0.105365 -0.015927 0.001519
v -0.090841 0.001525 0.010954
v -0.169693 -0.009825 0.004873
v -0.096470 0.017105 -0.016648
v -0.190128 0.011640 -0.021000
v -0.038563 0.021271 -0.007414
v -0.140591 0.014780 -0.024270
v -0.056556 0.013710 -0.025019
v -0.094137 -0.002187 -0.027153
v -0.177830 -0.012512 -0.020190
v -0.057372 -0.001587 0.022967
v -0.154047 -0.023526 -0.007807
v -0.144822 0.009964 0.022090
v -0.158450 -0.021807 0.008140
v -0.171175 0.019273 0.012445
v -0.108661 0.009177 0.018455
v -0.143895 0.019739 -0.009656
v -0.028036 -0.013386 0.008893
v -0.044575 -0.021846 -0.009286
v -0.031185 -0.009272 -0.024713
v -0.090060 -0.022815 -0.014764
v -0.031071 0.004029 -0.033963
v -0.171881 0.019383 0.012922
v -0.170451 0.017671 0.014320
v -0.171718 -0.003333 0.012748
v -0.183006 -0.024790 0.001191
v -0.182697 0.008084 0.001985
v -0.174585 -0.011150 0.009777
v -0.177166 -0.023533 0.007025
v -0.173269 0.008112 0.011373
v -0.167163 0.007369 0.017441
v -0.166662 -0.005139 0.017754
v -0.179142 -0.015070 0.005182
v -0.189420 -0.020006 -0.005125
v -0.195551 0.015301 -0.010706
v -0.174283 -0.001512 0.010221
v -0.176121 0.018744 0.008691
v -0.168251 -0.010398 0.016095
v -0.194172 -0.016716 -0.009807
v -0.170636 -0.011560 0.013703
v -0.198124 0.013064 -0.013301
v -0.194382 0.000009 -0.009768
v -0.171551 0.019397 0.013250
v -0.187916 0.007539 -0.003219
v -0.026913 0.023702 -0.024311
v -0.026902 0.022666 -0.024886
v -0.026225 -0.006489 0.011712
v -0.026372 -0.010919 -0.020232
v -0.026662 0.003225 -0.032224
v -0.026796 0.013416 -0.029724
v -0.026138 -0.013821 0.008487
v -0.026681 0.004437 -0.032407
v -0.026877 0.023309 -0.019649
v -0.026738 0.020838 -0.004359
v -0.026422 -0.009056 -0.023592
v -0.026287 -0.001132 0.014321
v -0.026279 -0.002649 0.012190
v -0.026343 0.001381 0.011537
v -0.026689 0.007516 -0.026709
vt 0.908513 0.902372
vt 0.906782 0.907615
vt 0.910077 0.908759
vt 0.950886 0.525592
vt 0.949643 0.523334
vt 0.946500 0.521541
vt 0.479816 0.637575
vt 0.479536 0.637826
vt 0.479605 0.637907
vt 0.913402 0.913172
vt 0.913542 0.913035
vt 0.913057 0.912629
vt 0.900598 0.339742
vt 0.899501 0.327752
vt 0.897956 0.334949
vt 0.913385 0.914451
vt 0.812282 0.969715
vt 0.810096 0.969402
vt 0.804632 0.972004
vt 0.007838 0.096442
vt 0.006255 0.093499
vt 0.000413 0.094981
vt 0.032708 0.808146
vt 0.035527 0.804996
vt 0.032288 0.805433
vt 0.012192 0.091671
vt 0.007680 0.090394
vt 0.902938 0.917146
vt 0.904046 0.918252
vt 0.905161 0.915770
vt 0.029957 0.768962
vt 0.030609 0.766883
vt 0.029240 0.768011
vt 0.911166 0.913134
vt 0.908246 0.916097
vt 0.825364 0.071076
vt 0.821071 0.072264
vt 0.823158 0.074544
vt 0.905962 0.339551
vt 0.903173 0.333396
vt 0.904577 0.339876
vt 0.025405 0.768763
vt 0.025852 0.769858
vt 0.949291 0.518167
vt 0.953502 0.515772
vt 0.947442 0.515255
vt 0.775280 0.410369
vt 0.774397 0.401341
vt 0.770683 0.404027
vt 0.314971 0.029740
vt 0.314394 0.029041
vt 0.311774 0.027467
vt 0.123931 0.788505
vt 0.126979 0.787427
vt 0.124806 0.786051
vt 0.768230 0.381320
vt 0.768958 0.386262
vt 0.773598 0.379143
vt 0.285615 0.473211
vt 0.288478 0.470739
vt 0.284505 0.471038
vt 0.904300 0.098720
vt 0.902650 0.099607
vt 0.904061 0.100050
vt 0.897624 0.322514
vt 0.897395 0.327998
vt 0.299082 0.468800
vt 0.296484 0.464726
vt 0.295858 0.468398
vt 0.298499 0.464695
vt 0.772034 0.412121
vt 0.771511 0.409131
vt 0.770287 0.411578
vt 0.770924 0.412399
vt 0.740118 0.529930
vt 0.741024 0.525770
vt 0.737955 0.527923
vt 0.576190 0.923273
vt 0.574805 0.920271
vt 0.572866 0.919120
vt 0.576033 0.923164
vt 0.774896 0.392559
vt 0.771320 0.393369
vt 0.522706 0.852082
vt 0.526691 0.853290
vt 0.524974 0.850514
vt 0.286390 0.469114
vt 0.903468 0.914158
vt 0.127772 0.784823
vt 0.914002 0.912953
vt 0.768039 0.391310
vt 0.767264 0.382263
vt 0.027717 0.767515
vt 0.826807 0.074473
vt 0.796178 0.213988
vt 0.798402 0.211651
vt 0.791027 0.211916
vt 0.299241 0.469672
vt 0.309426 0.029267
vt 0.312134 0.030217
vt 0.951185 0.520749
vt 0.011187 0.089248
vt 0.574919 0.923573
vt 0.939827 0.087239
vt 0.937316 0.083672
vt 0.936953 0.088905
vt 0.288638 0.465436
vt 0.775433 0.410643
vt 0.774961 0.410810
vt 0.905682 0.904948
vt 0.901191 0.327818
vt 0.029357 0.766894
vt 0.286233 0.469836
vt 0.541843 0.987215
vt 0.542145 0.987879
vt 0.542398 0.985749
vt 0.253140 0.456891
vt 0.253810 0.455438
vt 0.253136 0.455354
vt 0.250493 0.455436
vt 0.913805 0.899964
vt 0.910675 0.899982
vt 0.912625 0.902950
vt 0.913460 0.901993
vt 0.586409 0.721652
vt 0.588664 0.723777
vt 0.589043 0.723890
vt 0.588443 0.720577
vt 0.478909 0.637012
vt 0.795139 0.214681
vt 0.790938 0.213557
vt 0.791128 0.215592
vt 0.774961 0.410810
vt 0.772034 0.412121
vt 0.772419 0.414323
vt 0.479816 0.637575
vt 0.483307 0.634442
vt 0.478104 0.635967
vt 0.478909 0.637012
vt 0.481066 0.639620
vt 0.487450 0.641065
vt 0.491040 0.640136
vt 0.489329 0.636239
vt 0.924152 0.922823
vt 0.920258 0.918656
vt 0.923532 0.923646
vt 0.505040 0.639220
vt 0.502536 0.638242
vt 0.505177 0.640828
vt 0.853419 0.905535
vt 0.851254 0.903772
vt 0.850380 0.905991
vt 0.503343 0.642503
vt 0.499948 0.642322
vt 0.503386 0.645099
vt 0.102878 0.991735
vt 0.105147 0.990815
vt 0.102324 0.989436
vt 0.104969 0.441827
vt 0.104304 0.440731
vt 0.103767 0.441978
vt 0.506540 0.646801
vt 0.508085 0.647122
vt 0.507751 0.645637
vt 0.015388 0.979976
vt 0.015836 0.975682
vt 0.015938 0.980200
vt 0.918526 0.920736
vt 0.915440 0.916385
vt 0.125501 0.589071
vt 0.130014 0.588322
vt 0.129186 0.586971
vt 0.777182 0.422063
vt 0.780686 0.420679
vt 0.778667 0.416399
vt 0.015921 0.980261
vt 0.489878 0.643379
vt 0.923229 0.926720
vt 0.496175 0.644643
vt 0.856015 0.905178
vt 0.858708 0.902487
vt 0.854777 0.901706
vt 0.854672 0.905813
vt 0.482189 0.630943
vt 0.478363 0.628756
vt 0.913460 0.901993
vt 0.912625 0.902950
vt 0.913159 0.903762
vt 0.481384 0.630724
vt 0.500289 0.639392
vt 0.504789 0.641582
vt 0.886264 0.957690
vt 0.880097 0.956842
vt 0.886463 0.959820
vt 0.782318 0.424903
vt 0.516702 0.596169
vt 0.046207 0.834700
vt 0.049805 0.836192
vt 0.047903 0.833470
vt 0.783003 0.426656
vt 0.782325 0.425077
vt 0.791128 0.215592
vt 0.790938 0.213557
vt 0.790822 0.215661
vt 0.588664 0.723777
vt 0.589096 0.724184
vt 0.589043 0.723890
vt 0.915763 0.920019
vt 0.006881 0.768939
vt 0.008450 0.769711
vt 0.008914 0.764686
vt 0.007034 0.767250
vt 0.850953 0.907948
vt 0.852612 0.910359
vt 0.853681 0.908360
vt 0.103986 0.439255
vt 0.103528 0.439318
vt 0.491606 0.634902
vt 0.104682 0.986316
vt 0.508825 0.646528
vt 0.848829 0.910161
vt 0.848532 0.910968
vt 0.782282 0.428867
vt 0.925555 0.926345
vt 0.253810 0.455438
vt 0.253859 0.455331
vt 0.253136 0.455354
vt 0.674226 0.474262
vt 0.675262 0.474089
vt 0.676081 0.472912
vt 0.516931 0.600681
vt 0.533981 0.538261
vt 0.533752 0.541763
vt 0.533265 0.541772
vt 0.531403 0.539848
vt 0.321547 0.711813
vt 0.321145 0.712215
vt 0.321671 0.711990
vt 0.479605 0.637907
vt 0.775433 0.410643
vt 0.770924 0.412399
vt 0.576292 0.923495
vt 0.576190 0.923273
vt 0.576033 0.923164
vt 0.575101 0.923968
vt 0.574919 0.923573
vt 0.522533 0.852201
vt 0.527020 0.853821
vt 0.526691 0.853290
vt 0.522706 0.852082
vt 0.913402 0.913172
vt 0.913385 0.914451
vt 0.913670 0.916039
vt 0.913542 0.913035
vt 0.916217 0.913713
vt 0.914002 0.912953
vn -0.3045 0.8856 0.3508
vn 0.0053 0.7748 0.6322
vn 0.1231 0.9591 -0.2550
vn -0.2811 -0.9409 -0.1888
vn 0.4855 -0.6544 0.5797
vn -0.4145 -0.7941 0.4444
vn -0.8899 -0.2839 0.3569
vn 0.1830 -0.1838 0.9658
vn 0.0560 -0.0391 0.9977
vn -0.6609 0.0974 -0.7441
vn -0.8009 0.4617 -0.3813
vn 0.7873 0.4520 -0.4195
vn 0.3125 0.7401 -0.5955
vn -0.0940 0.4998 -0.8610
vn -0.4025 -0.2443 -0.8822
vn 0.8171 0.3983 -0.4168
vn 0.7201 0.6939 0.0004
vn 0.1033 -0.9769 -0.1870
vn 0.0345 -0.6900 0.7230
vn -0.3358 -0.7013 0.6288
vn -0.1071 -0.8806 0.4617
vn 0.1979 0.2396 0.9505
vn -0.1147 -0.2675 0.9567
vn 0.8614 -0.4768 -0.1748
vn 0.2386 0.7705 0.5912
vn -0.1048 0.1419 -0.9843
vn -0.4947 -0.5446 -0.6773
vn -0.2275 -0.7606 -0.6081
vn 0.3394 -0.7457 0.5733
vn -0.2044 -0.0855 0.9751
vn 0.8542 -0.4936 0.1634
vn -0.1483 0.9301 0.3360
vn 0.8156 0.2092 0.5395
vn -0.7516 0.6577 0.0502
vn -0.5058 0.8614 -0.0455
vn -0.0004 -0.9924 0.1232
vn -0.5384 0.3956 -0.7441
vn 0.3103 -0.3721 -0.8748
vn -0.6506 -0.3386 -0.6798
vn -0.6180 -0.3813 0.6875
vn -0.6297 -0.6462 -0.4312
vn -0.5705 -0.7534 -0.3270
vn -0.5185 0.6208 0.5880
vn -0.0405 0.7445 -0.6664
vn -0.4032 -0.5022 0.7650
vn 0.5190 0.5222 0.6767
vn 0.7522 0.4517 0.4799
vn 0.2221 0.9359 0.2734
vn 0.6193 -0.4285 0.6579
vn 0.1457 -0.9561 -0.2544
vn 0.0084 -0.5602 0.8283
vn 0.5792 -0.3735 0.7246
vn 0.1625 -0.4719 0.8666
vn 0.2393 0.2208 0.9455
vn 0.0554 -0.6594 0.7497
vn -0.1067 -0.9940 -0.0252
vn -0.2189 0.9755 0.0240
vn 0.0867 0.9865 -0.1392
vn 0.0246 0.4301 -0.9024
vn -0.9307 -0.2661 -0.2511
vn -0.0613 -0.5146 -0.8553
vn -0.5492 -0.7482 0.3722
vn -0.5682 0.3795 0.7302
vn -0.1515 0.6253 -0.7656
vn -0.4865 0.8645 0.1264
vn -0.3655 -0.4795 0.7978
vn -0.0718 -0.7532 0.6538
vn -0.3133 -0.1954 0.9293
vn -0.3368 0.2574 -0.9057
vn -0.9839 0.0088 0.1786
vn -0.9574 -0.0550 0.2833
vn 0.5884 -0.7056 -0.3947
vn -0.3643 -0.9310 -0.0222
vn -0.5979 0.7619 -0.2491
vn -0.6239 0.6768 0.3907
vn 0.7719 0.6090 -0.1825
vn 0.2097 -0.1174 -0.9707
vn -0.2334 0.7379 0.6333
vn -0.0506 0.5700 0.8201
vn -0.3076 0.4872 0.8173
vn -0.5313 0.2042 0.8222
vn -0.6614 0.6259 0.4132
vn -0.1906 -0.7124 0.6754
vn 0.1341 -0.4092 0.9025
vn 0.7297 0.3873 -0.5635
vn 0.9665 -0.0570 -0.2504
vn -0.0408 -0.0123 -0.9991
vn 0.0737 -0.7913 -0.6069
vn -0.0516 -0.9848 -0.1656
vn -0.5100 -0.7090 0.4871
vn -0.3693 -0.6773 0.6363
vn 0.4038 -0.9051 0.1331
vn 0.6850 -0.7273 -0.0424
vn 0.7876 -0.3013 -0.5376
vn -0.4779 0.3404 -0.8098
vn -0.9993 -0.0109 -0.0354
vn 0.7375 0.3117 -0.5990
vn 0.6848 0.3246 0.6525
vn 0.6654 0.3953 0.6332
vn 0.7940 -0.4019 0.4561
vn 0.8469 0.5287 -0.0577
vn 0.8104 -0.3718 -0.4529
vn 0.5801 0.6172 -0.5315
vn 0.3690 0.8957 -0.2480
usemtl Textured_mesh_1
s 1
f 4/1/1 21/2/2 2/3/3
f 12/4/4 26/5/5 20/6/6
f 43/7/7 23/8/8 42/9/9
f 32/10/10 31/11/11 9/12/12
f 5/13/13 1/14/14 2/15/3
f 32/10/10 9/12/12 36/16/15
f 13/17/16 5/18/13 18/19/17
f 25/20/18 24/21/19 22/22/20
f 5/23/13 2/24/3 18/25/17
f 29/26/21 14/27/22 24/21/19
f 6/28/23 8/29/24 19/30/25
f 5/31/13 13/32/16 11/33/26
f 2/34/3 21/2/2 18/35/17
f 29/36/21 24/37/19 25/38/18
f 12/39/4 15/40/27 11/41/26
f 3/42/28 12/43/4 11/33/26
f 29/44/21 27/45/29 28/46/30
f 23/47/8 22/48/20 4/49/1
f 15/50/27 20/51/6 25/52/18
f 26/53/5 7/54/31 29/55/21
f 19/56/25 28/57/30 27/58/29
f 27/59/29 7/60/31 6/61/23
f 12/62/4 20/63/6 15/64/27
f 30/65/32 4/66/1 1/14/14
f 21/2/2 19/30/25 18/35/17
f 3/67/28 13/68/16 26/69/5
f 3/67/28 10/70/33 13/68/16
f 40/71/34 30/72/32 9/73/12 39/74/35
f 17/75/36 25/76/18 22/77/20
f 1/14/14 11/41/26 15/40/27
f 38/78/37 1/79/14 16/80/38 35/81/39
f 23/47/8 4/49/1 30/72/32
f 24/82/19 14/83/22 22/48/20
f 37/84/40 34/85/41 17/86/36
f 11/41/26 1/14/14 5/13/13
f 22/48/20 14/83/22 4/49/1
f 13/68/16 8/87/24 7/60/31
f 19/30/25 27/88/29 6/28/23
f 7/54/31 27/89/29 29/55/21
f 31/11/11 39/90/35 9/12/12
f 14/83/22 28/57/30 21/91/2
f 13/68/16 7/60/31 26/69/5
f 19/92/25 21/91/2 28/57/30
f 10/93/33 3/42/28 11/33/26
f 20/94/6 29/36/21 25/38/18
f 17/95/36 22/96/20 23/97/8
f 12/98/4 3/67/28 26/69/5
f 15/50/27 25/99/18 16/100/38
f 29/44/21 20/6/6 26/101/5
f 28/102/30 14/27/22 29/26/21
f 2/15/3 1/14/14 4/66/1
f 41/103/42 35/81/39 16/80/38
f 25/104/18 17/105/36 16/106/38
f 13/68/16 18/107/17 8/87/24
f 42/108/9 23/47/8 44/109/43
f 21/2/2 4/1/1 14/110/22
f 15/40/27 16/111/38 1/14/14
f 13/32/16 10/112/33 11/33/26
f 7/60/31 8/113/24 6/61/23
f 19/114/25 8/115/24 18/116/17
f 23/47/8 30/72/32 40/71/34 44/109/43
f 1/117/14 38/118/37 45/119/44 30/120/32
f 9/121/12 30/122/32 45/123/44 36/124/15
f 17/125/36 34/126/41 41/127/42 16/128/38
f 23/8/8 43/7/7 33/129/45
f 17/130/36 23/97/8 33/131/45 37/132/40
f 41/103/42 34/85/41 37/132/40 33/129/45 43/7/7 42/108/9 44/109/43 40/71/34 39/90/35 31/11/11 32/10/10 36/124/15 45/119/44 38/78/37 35/81/39
f 103/133/46 99/134/47 51/135/48
f 102/136/49 64/137/50 63/138/51 92/139/52
f 56/140/53 47/141/54 46/142/55
f 66/143/56 64/137/50 46/142/55
f 62/144/57 49/145/58 52/146/59
f 84/147/60 55/148/61 79/149/62
f 72/150/63 50/151/64 80/152/65
f 74/153/66 59/154/67 70/155/68
f 66/156/56 53/157/69 64/158/50
f 84/159/60 87/160/70 55/161/61
f 81/162/71 48/163/72 78/164/73
f 82/165/74 68/166/75 60/167/76
f 54/168/77 49/145/58 53/169/69
f 52/170/59 55/171/61 50/172/64
f 49/173/58 47/174/54 56/175/53
f 88/176/78 60/167/76 68/166/75
f 59/154/67 46/142/55 61/177/79
f 54/168/77 55/178/61 52/146/59
f 58/179/80 59/154/67 61/177/79
f 76/180/81 58/181/80 62/182/57 75/183/82
f 85/184/83 48/163/72 83/185/84
f 95/186/85 104/187/86 67/188/87
f 46/142/55 47/141/54 61/177/79
f 63/138/51 64/137/50 65/189/88
f 79/149/62 55/148/61 57/190/89 71/191/90
f 55/192/61 54/193/77 57/194/89
f 47/174/54 49/173/58 61/195/79
f 51/135/48 49/173/58 56/175/53
f 59/154/67 66/143/56 46/142/55
f 73/196/91 48/163/72 85/184/83
f 56/140/53 46/142/55 64/137/50
f 75/183/82 62/182/57 50/151/64 72/150/63
f 65/197/88 53/198/69 67/199/87
f 49/173/58 58/200/80 61/201/79
f 96/202/92 92/203/52 63/204/51
f 54/168/77 52/146/59 49/145/58
f 93/205/93 65/206/88 100/207/94
f 66/208/56 54/168/77 53/169/69
f 70/209/68 59/210/67 58/211/80 76/212/81
f 89/213/95 48/214/72 81/215/71
f 86/216/96 50/217/64 55/161/61 87/160/70
f 66/143/56 59/154/67 57/190/89
f 54/218/77 66/143/56 57/190/89
f 65/219/88 64/158/50 53/157/69
f 78/164/73 48/163/72 73/220/91
f 82/221/74 60/222/76 48/214/72 89/213/95
f 58/200/80 49/173/58 62/223/57
f 62/144/57 52/146/59 50/224/64
f 97/225/97 67/226/87 104/227/86
f 50/228/64 86/229/96 80/230/65
f 48/163/72 77/231/98 83/185/84
f 59/154/67 74/153/66 71/191/90 57/190/89
f 48/232/72 60/233/76 69/234/99 77/235/98
f 60/236/76 88/237/78 69/238/99
f 79/149/62 70/209/68 72/150/63
f 85/184/83 83/185/84 77/235/98 69/238/99 88/176/78 68/166/75 82/221/74 89/213/95 81/162/71 78/164/73 73/196/91
f 64/137/50 102/136/49 101/239/100 56/140/53
f 56/175/53 101/240/100 103/133/46 51/135/48
f 51/135/48 99/134/47 98/241/101
f 67/242/87 97/243/97 94/244/102
f 65/245/88 67/242/87 94/244/102 100/246/94
f 63/247/51 65/248/88 93/249/93 96/250/92
f 53/169/69 91/251/103 95/252/85 67/253/87
f 53/169/69 49/145/58 90/254/104 91/251/103
f 49/145/58 51/255/48 98/256/101 90/254/104
f 101/240/100 102/136/49 92/203/52 96/250/92 93/205/93 100/246/94 94/244/102 97/225/97 104/187/86 95/252/85 91/251/103 90/254/104 98/241/101 99/134/47 103/133/46
f 80/230/65 86/229/96 87/160/70
f 87/160/70 84/147/60 79/149/62
f 79/149/62 71/191/90 74/153/66
f 70/209/68 76/180/81 75/183/82
f 79/149/62 74/153/66 70/209/68
f 80/230/65 87/160/70 72/150/63
f 87/160/70 79/149/62 72/150/63
f 70/209/68 75/183/82 72/150/63
